<svg width="192" height="192" viewBox="0 0 192 192" fill="none" xmlns="http://www.w3.org/2000/svg">
<path d="M96 -4.19629e-06C109.623 -4.79176e-06 123.09 2.89932 135.505 8.50527C147.921 14.1112 159.002 22.2955 168.011 32.514C177.02 42.7326 183.75 54.7516 187.756 67.7721C191.762 80.7927 192.95 94.5166 191.243 108.032L127.43 99.9706C127.994 95.5105 127.601 90.9816 126.28 86.6848C124.958 82.388 122.736 78.4218 119.764 75.0496C116.791 71.6775 113.134 68.9767 109.037 67.1267C104.94 65.2768 100.496 64.32 96 64.32L96 -4.19629e-06Z" fill="#8A76E8"/>
<circle cx="96" cy="96" r="31.5" stroke="#271A38"/>
</svg>
