<svg width="192" height="192" viewBox="0 0 192 192" fill="none" xmlns="http://www.w3.org/2000/svg">
<path d="M96 -4.19629e-06C110.64 -4.83624e-06 125.087 3.34849 138.234 9.78935C151.382 16.2302 162.882 25.5928 171.855 37.1609C180.828 48.7291 187.037 62.1963 190.005 76.5324C192.974 90.8686 192.625 105.694 188.984 119.874L125.755 103.64C126.92 99.102 127.032 94.3579 126.082 89.7704C125.132 85.1828 123.145 80.8733 120.274 77.1715C117.402 73.4697 113.722 70.4737 109.515 68.4126C105.308 66.3515 100.685 65.28 96 65.28L96 -4.19629e-06Z" fill="#8A76E8"/>
<circle cx="96" cy="96" r="31.5" stroke="#271A38"/>
</svg>
