<svg width="192" height="192" viewBox="0 0 192 192" fill="none" xmlns="http://www.w3.org/2000/svg">
<path d="M96 -4.19629e-06C111.15 -4.85851e-06 126.085 3.5855 139.583 10.4634C153.082 17.3412 164.761 27.3162 173.666 39.5726C182.57 51.829 188.448 66.019 190.818 80.9823C193.188 95.9456 191.983 111.257 187.301 125.666L126.129 105.79C127.674 101.035 128.072 95.982 127.29 91.0442C126.508 86.1063 124.568 81.4236 121.63 77.379C118.691 73.3343 114.837 70.0426 110.382 67.7729C105.928 65.5032 100.999 64.32 96 64.32L96 -4.19629e-06Z" fill="#9CC7F2"/>
<circle cx="96" cy="96" r="31.5" stroke="#271A38"/>
</svg>
