<svg width="192" height="192" viewBox="0 0 192 192" fill="none" xmlns="http://www.w3.org/2000/svg">
<path d="M96 -4.19629e-06C112.681 -4.92545e-06 129.074 4.34658 143.564 12.6114C158.054 20.8762 170.14 32.7739 178.631 47.132C187.123 61.4901 191.726 77.813 191.988 94.4921C192.25 111.171 188.162 127.631 180.125 142.248L123.761 111.262C126.413 106.438 127.763 101.006 127.676 95.5024C127.59 89.9983 126.07 84.6117 123.268 79.8736C120.466 75.1354 116.478 71.2091 111.696 68.4817C106.915 65.7544 101.505 64.32 96 64.32L96 -4.19629e-06Z" fill="#9CC7F2"/>
<circle cx="96" cy="96" r="31.5" stroke="#271A38"/>
</svg>
