<svg width="192" height="192" viewBox="0 0 192 192" fill="none" xmlns="http://www.w3.org/2000/svg">
<path d="M96 -4.19629e-06C116.789 -5.105e-06 137.016 6.74825 153.64 19.2303C170.265 31.7123 182.388 49.2535 188.188 69.2168C193.988 89.1802 193.151 110.487 185.803 129.934C178.454 149.38 164.992 165.916 147.439 177.055L112.461 121.938C118.077 118.373 122.385 113.082 124.737 106.859C127.088 100.636 127.356 93.8177 125.5 87.4294C123.644 81.0411 119.765 75.4279 114.445 71.4337C109.125 67.4394 102.652 65.28 96 65.28L96 -4.19629e-06Z" fill="#8A76E8"/>
<circle cx="96" cy="96" r="31.5" stroke="#271A38"/>
</svg>
