<svg width="192" height="192" viewBox="0 0 192 192" fill="none" xmlns="http://www.w3.org/2000/svg">
<path d="M96 -4.19629e-06C117.305 -5.12757e-06 138.005 7.08711 154.839 20.1451C171.673 33.2031 183.686 51.4901 188.984 72.1258C194.282 92.7615 192.566 114.573 184.104 134.126C175.643 153.679 160.918 169.862 142.248 180.125L111.262 123.761C117.423 120.374 122.282 115.034 125.074 108.582C127.867 102.129 128.433 94.9313 126.685 88.1215C124.936 81.3117 120.972 75.277 115.417 70.9679C109.862 66.6587 103.031 64.32 96 64.32L96 -4.19629e-06Z" fill="#8A76E8"/>
<circle cx="96" cy="96" r="31.5" stroke="#271A38"/>
</svg>
