<svg width="192" height="192" viewBox="0 0 192 192" fill="none" xmlns="http://www.w3.org/2000/svg">
<path d="M96 -4.19629e-06C119.221 -5.21132e-06 141.655 8.41679 159.146 23.691C176.636 38.9651 187.998 60.0613 191.125 83.0709C194.253 106.08 188.934 129.444 176.155 148.832C163.375 168.221 144.001 182.32 121.623 188.517L104.199 125.606C111.36 123.622 117.56 119.111 121.649 112.906C125.739 106.702 127.441 99.2258 126.44 91.8627C125.439 84.4996 121.804 77.7488 116.207 72.8611C110.61 67.9734 103.431 65.28 96 65.28L96 -4.19629e-06Z" fill="#8A76E8"/>
<circle cx="96" cy="96" r="31.5" stroke="#271A38"/>
</svg>
