<svg width="192" height="192" viewBox="0 0 192 192" fill="none" xmlns="http://www.w3.org/2000/svg">
<path d="M96 -4.19629e-06C120.417 -5.26361e-06 143.917 9.30421 161.717 26.019C179.516 42.7338 190.277 65.603 191.811 89.9721C193.344 114.341 185.533 138.379 169.969 157.193C154.405 176.007 132.257 188.183 108.032 191.243L99.8502 126.478C107.602 125.498 114.69 121.602 119.67 115.582C124.651 109.561 127.15 101.869 126.659 94.0711C126.169 86.273 122.725 78.9548 117.029 73.6061C111.333 68.2573 103.814 65.28 96 65.28L96 -4.19629e-06Z" fill="#8A76E8"/>
<circle cx="96" cy="96" r="31.5" stroke="#271A38"/>
</svg>
