<svg width="192" height="192" viewBox="0 0 192 192" fill="none" xmlns="http://www.w3.org/2000/svg">
<path d="M96 -4.19629e-06C108.607 -4.74736e-06 121.09 2.4831 132.738 7.30757C144.385 12.132 154.968 19.2033 163.882 28.1177C172.797 37.0322 179.868 47.6151 184.692 59.2624C189.517 70.9096 192 83.3931 192 96C192 108.607 189.517 121.09 184.692 132.738C179.868 144.385 172.797 154.968 163.882 163.882C154.968 172.797 144.385 179.868 132.738 184.692C121.09 189.517 108.607 192 96 192L96 126.72C100.034 126.72 104.029 125.925 107.756 124.382C111.483 122.838 114.87 120.575 117.722 117.722C120.575 114.87 122.838 111.483 124.382 107.756C125.925 104.029 126.72 100.034 126.72 96C126.72 91.9658 125.925 87.9711 124.382 84.244C122.838 80.5168 120.575 77.1303 117.722 74.2777C114.87 71.4251 111.483 69.1622 107.756 67.6184C104.029 66.0746 100.034 65.28 96 65.28L96 -4.19629e-06Z" fill="#8A76E8"/>
<circle cx="96" cy="96" r="31.5" stroke="#271A38"/>
</svg>
