<svg width="192" height="192" viewBox="0 0 192 192" fill="none" xmlns="http://www.w3.org/2000/svg">
<path d="M96 -4.19629e-06C109.877 -4.80288e-06 123.589 3.00851 136.191 8.81825C148.794 14.628 159.987 23.1008 168.999 33.653C178.011 44.2051 184.629 56.5857 188.396 69.9417C192.162 83.2977 192.989 97.3116 190.818 111.018C188.647 124.724 183.531 137.796 175.821 149.335C168.111 160.873 157.992 170.603 146.16 177.853C134.328 185.104 121.064 189.704 107.284 191.335C93.5028 192.966 79.5322 191.59 66.3344 187.301L86.2103 126.129C90.5656 127.545 95.1759 127.999 99.7236 127.46C104.271 126.922 108.648 125.404 112.553 123.012C116.457 120.619 119.797 117.408 122.341 113.6C124.885 109.793 126.574 105.479 127.29 100.956C128.006 96.4328 127.734 91.8082 126.491 87.4008C125.248 82.9933 123.064 78.9077 120.09 75.4255C117.116 71.9433 113.422 69.1472 109.263 67.23C105.104 65.3128 100.579 64.32 96 64.32L96 -4.19629e-06Z" fill="#9CC7F2"/>
<circle cx="96" cy="96" r="31.5" stroke="#271A38"/>
</svg>
