<svg width="192" height="192" viewBox="0 0 192 192" fill="none" xmlns="http://www.w3.org/2000/svg">
<path d="M96 -4.19629e-06C111.915 -4.89196e-06 127.58 3.95663 141.586 11.5139C155.592 19.0712 167.5 29.992 176.237 43.2938C184.975 56.5956 190.269 71.861 191.642 87.7165C193.015 103.572 190.425 119.52 184.104 134.126C177.784 148.732 167.931 161.538 155.433 171.39C142.935 181.243 128.183 187.834 112.505 190.57C96.8273 193.307 80.7151 192.102 65.6182 187.066C50.5214 182.029 36.9135 173.318 26.019 161.717L72.9063 117.686C76.5015 121.515 80.992 124.39 85.974 126.052C90.956 127.714 96.273 128.111 101.447 127.208C106.62 126.305 111.488 124.13 115.613 120.879C119.737 117.627 122.989 113.402 125.074 108.582C127.16 103.762 128.015 98.4988 127.562 93.2664C127.109 88.0341 125.362 82.9965 122.478 78.607C119.595 74.2174 115.665 70.6135 111.043 68.1196C106.421 65.6257 101.252 64.32 96 64.32L96 -4.19629e-06Z" fill="#8A76E8"/>
<circle cx="96" cy="96" r="31.5" stroke="#271A38"/>
</svg>
