<svg width="192" height="192" viewBox="0 0 192 192" fill="none" xmlns="http://www.w3.org/2000/svg">
<path d="M96 -4.19629e-06C113.705 -4.97018e-06 131.064 4.89594 146.16 14.1465C161.255 23.3971 173.499 36.642 181.537 52.4169C189.574 68.1918 193.093 85.8821 191.704 103.532C190.315 121.182 184.072 138.104 173.666 152.427C163.259 166.751 149.094 177.917 132.738 184.692C116.381 191.468 98.4689 193.588 80.9823 190.818C63.4957 188.048 47.1156 180.497 33.653 168.999C20.1903 157.501 10.1696 142.504 4.69857 125.666L65.8705 105.79C67.676 111.346 70.9828 116.295 75.4255 120.09C79.8682 123.884 85.2736 126.376 91.0442 127.29C96.8147 128.204 102.726 127.504 108.123 125.268C113.521 123.033 118.196 119.348 121.63 114.621C125.064 109.894 127.124 104.31 127.582 98.4856C128.041 92.6611 126.88 86.8233 124.227 81.6176C121.575 76.4119 117.534 72.041 112.553 68.9884C107.571 65.9357 101.842 64.32 96 64.32L96 -4.19629e-06Z" fill="#8A76E8"/>
<circle cx="96" cy="96" r="31.5" stroke="#271A38"/>
</svg>
