<svg width="192" height="192" viewBox="0 0 192 192" fill="none" xmlns="http://www.w3.org/2000/svg">
<path d="M96 1.10625e-05C116.016 1.01876e-05 135.531 6.25623 151.816 17.8936C168.101 29.531 180.341 45.9674 186.824 64.9039C193.308 83.8405 193.71 104.33 187.975 123.506C182.24 142.683 170.655 159.587 154.839 171.855C139.024 184.123 119.769 191.14 99.7689 191.926C79.7687 192.712 60.023 187.227 43.2938 176.238C26.5646 165.248 13.6885 149.305 6.46665 130.638C-0.755217 111.97 -1.96168 91.5126 3.01601 72.1258L66.2451 88.3602C64.6523 94.564 65.0383 101.111 67.3493 107.084C69.6603 113.058 73.7807 118.16 79.134 121.676C84.4874 125.193 90.806 126.948 97.2061 126.696C103.606 126.445 109.768 124.199 114.829 120.274C119.889 116.348 123.597 110.939 125.432 104.802C127.267 98.6656 127.138 92.1089 125.064 86.0493C122.989 79.9896 119.072 74.7299 113.861 71.006C108.65 67.282 102.405 65.28 96 65.28L96 1.10625e-05Z" fill="#E0474A"/>
<circle cx="96.5" cy="95.5" r="31" stroke="#271A38"/>
</svg>
