<svg width="192" height="192" viewBox="0 0 192 192" fill="none" xmlns="http://www.w3.org/2000/svg">
<path d="M96 1.10625e-05C116.531 1.01651e-05 136.521 6.5821 153.036 18.7799C169.55 30.9778 181.719 48.1488 187.756 67.7721C193.793 87.3954 193.38 108.437 186.577 127.808C179.775 147.18 166.941 163.86 149.96 175.4C132.979 186.94 112.746 192.732 92.2311 191.926C71.716 191.12 51.9997 183.758 35.9767 170.921C19.9537 158.085 8.46824 140.449 3.20638 120.604C-2.05547 100.759 -0.816481 79.7492 6.74146 60.66L67.4373 84.6912C65.0187 90.7997 64.6223 97.5227 66.306 103.873C67.9898 110.224 71.6652 115.867 76.7925 119.975C81.9199 124.083 88.2291 126.438 94.7939 126.696C101.359 126.954 107.833 125.101 113.267 121.408C118.701 117.715 122.808 112.377 124.985 106.179C127.162 99.9799 127.294 93.2465 125.362 86.9671C123.43 80.6876 119.536 75.1929 114.251 71.2896C108.967 67.3863 102.57 65.28 96 65.28L96 1.10625e-05Z" fill="#8A76E8"/>
<circle cx="96.5" cy="95.5" r="30.5" stroke="#271A38" stroke-width="2"/>
</svg>
