<svg width="192" height="192" viewBox="0 0 192 192" fill="none" xmlns="http://www.w3.org/2000/svg">
<path d="M96 1.10625e-05C109.115 1.04892e-05 122.09 2.68711 134.126 7.89556C146.162 13.104 157.003 20.7233 165.981 30.2835C174.959 39.8436 181.882 51.1419 186.325 63.4812C190.767 75.8205 192.634 88.9391 191.811 102.028L126.659 97.9289C126.923 93.7405 126.325 89.5426 124.904 85.594C123.482 81.6454 121.267 78.03 118.394 74.9707C115.521 71.9115 112.052 69.4733 108.2 67.8066C104.349 66.1399 100.197 65.28 96 65.28L96 1.10625e-05Z" fill="#5A9460"/>
<circle cx="96.5" cy="95.5" r="30.5" stroke="#271A38" stroke-width="2"/>
</svg>
