<svg width="192" height="192" viewBox="0 0 192 192" fill="none" xmlns="http://www.w3.org/2000/svg">
<path d="M96 1.10625e-05C120.678 9.98379e-06 144.408 9.50338 162.264 26.5373C180.12 43.5712 190.731 66.8273 191.893 91.4778C193.056 116.128 184.681 140.28 168.507 158.918C152.333 177.557 129.603 189.252 105.034 191.574C80.466 193.896 55.9469 186.668 36.567 171.39C17.187 156.112 4.43487 133.958 0.957724 109.527C-2.51942 85.0948 3.54554 60.2625 17.8936 40.1843C32.2416 20.1062 53.7706 6.3246 78.0114 1.70044L90.2437 65.8241C82.4866 67.3039 75.5973 71.714 71.006 78.139C66.4146 84.564 64.4738 92.5104 65.5865 100.328C66.6992 108.147 70.7799 115.236 76.9814 120.125C83.183 125.014 91.0291 127.327 98.891 126.584C106.753 125.84 114.027 122.098 119.202 116.134C124.378 110.169 127.058 102.441 126.686 94.5529C126.314 86.6647 122.918 79.2228 117.205 73.7719C111.491 68.3211 103.897 65.28 96 65.28L96 1.10625e-05Z" fill="#E0474A"/>
<circle cx="96.5" cy="95.5" r="31" stroke="#271A38"/>
</svg>
