<svg width="309" height="309" viewBox="0 0 309 309" fill="none" xmlns="http://www.w3.org/2000/svg">
<g clip-path="url(#clip0_15406_8482)">
<path d="M210.718 220.271C205.952 225.037 201.186 229.887 195.367 233.416C188.253 238.408 180.249 242.269 171.629 243.832C171.608 243.839 171.58 243.839 171.559 243.846C163.116 245.302 154.673 247.07 146.081 247.473C146.605 247.318 147.149 247.169 147.687 247.028L148.662 246.773C155.535 246.264 161.376 242.403 167.684 239.914C174.366 237.192 181.168 234.689 187.603 231.408C193.896 227.759 200.684 225.129 207.225 222.01C208.413 221.459 209.558 220.851 210.718 220.271Z" fill="#5A9460"/>
<path d="M207.423 216.721C209.699 217.626 207.932 218.56 206.136 219.436C205.726 219.634 205.252 219.854 204.757 220.094C197.947 223.128 191.159 226.097 184.64 229.803C178.063 232.843 171.275 235.403 164.579 238.182C160.86 239.695 157.352 241.717 153.548 243.033C152.41 243.393 151.222 243.591 150.027 243.683C148.004 243.881 146.095 244.659 144.122 245.09C148.627 240.713 153.4 236.803 158.873 233.649C159.827 233.006 161.015 232.652 161.722 231.719C163.115 231.09 164.508 230.474 165.908 229.88C174.627 226.211 183.261 222.371 192.206 219.253C197.085 217.442 202.268 216.954 207.423 216.721Z" fill="#5A9460"/>
<path d="M124.663 152.078C119.155 160.4 112.381 167.669 105.105 174.465C100.24 178.071 95.0355 181.663 89.4635 184.124C85.8149 185.269 82.3995 186.987 78.8357 188.331C72.5566 190.565 66.4189 193.125 60.9388 196.951C60.8116 197.021 60.6843 197.064 60.5429 197.092C63.3289 194.957 66.0866 192.764 68.7241 190.438C74.2466 185.425 79.4297 180.058 84.7542 174.832C93.5577 166.609 101.173 157.169 106.484 146.272C108.775 141.238 111.052 136.118 113.604 131.105C116.694 124.38 119.296 117.422 122.019 110.542C123.327 106.137 124.593 101.717 125.887 97.298C126.891 93.8332 127.174 90.2128 127.789 86.6702C128.673 82.1659 129.896 77.7465 131.183 73.3483C132.173 69.9118 133.389 66.5318 134.245 63.074C134.839 60.9244 134.881 58.6617 135.503 56.5262C135.701 55.904 135.92 55.3029 136.14 54.6877C136.359 56.802 136.762 58.9021 137.151 60.9881C137.95 65.0115 138.438 69.0774 139.244 73.0937C140.347 78.397 142.786 83.6226 143.324 89.1238C144.172 95.0353 143.458 100.982 142.659 106.858C142.129 112.154 141.782 117.578 139.64 122.535C137.363 128.064 134.153 133.141 131.798 138.635C129.945 143.387 127.591 147.891 124.663 152.078Z" fill="#5A9460"/>
<path d="M74.7486 181.217C70.7252 185.524 66.3199 189.406 61.7803 193.139C65.3653 189.837 68.9574 186.528 72.0475 182.773C74.8547 178.848 76.6013 174.302 78.164 169.769C81.0843 161.772 83.7713 153.697 86.2674 145.558C89.0605 137.744 90.1706 129.535 90.0646 121.255C90.8565 112.359 92.7516 103.379 97.1922 95.5442C101.011 88.6853 106.187 82.7031 111.278 76.7634C118.83 68.1367 126.686 59.7575 134.407 51.2864C134.181 51.8945 134.025 52.5592 133.75 53.1178C132.286 56.3634 132.236 59.807 131.324 63.2223C129.408 69.8055 127.23 76.325 125.703 83.0143C124.819 86.5427 124.508 90.1773 123.864 93.7481C122.712 98.8888 120.979 103.874 119.629 108.958C116.864 116.064 114.163 123.249 110.981 130.178C106.809 138.31 103.698 147.022 98.5428 154.665C92.1717 164.756 83.0006 172.697 74.7486 181.217Z" fill="#5A9460"/>
<path d="M285.176 122.322C286.004 122.089 286.902 122.04 287.701 121.693C286.265 123.199 284.858 124.734 283.6 126.388C280.623 130.171 278.028 134.294 274.541 137.624C271.034 140.919 266.947 143.522 262.952 146.159C257.118 149.801 251.03 153.145 244.631 155.684C240.162 157.296 235.537 158.399 230.899 159.431C224.945 160.916 218.821 161.539 212.684 161.114C205.019 160.86 197.382 160.506 189.724 159.962C196.739 158.364 203.541 155.719 210.117 152.848C216.743 150.366 223.191 147.792 229.676 144.886C233.232 143.451 236.817 142.426 240.325 140.771C243.648 139.173 246.858 137.32 250.245 135.885C256.913 133.346 263.779 131.119 270.32 128.227C273.092 127.138 275.793 125.766 278.607 124.621C280.799 123.843 282.949 122.966 285.183 122.33L285.176 122.322Z" fill="#5A9460"/>
<path d="M272.816 123.199C274.371 122.945 275.892 122.57 277.405 122.131C273.912 123.56 270.482 125.193 266.989 126.607C260.972 129.231 254.664 131.112 248.604 133.594C244.85 135.241 241.335 137.384 237.566 139.003C232.786 140.884 227.681 142.567 222.958 144.872C217.336 147.538 211.354 149.291 205.711 151.908C201.257 153.916 196.667 155.592 191.937 156.815C189.78 157.345 187.609 158.258 185.375 158.385C191.223 153.357 197.07 148.33 203.774 144.441C211.899 139.654 220.624 136.09 229.279 132.328C236.449 129.273 244.029 126.841 251.687 125.278C258.638 124.026 265.752 124.14 272.731 123.199C272.766 123.192 272.795 123.192 272.823 123.192L272.816 123.199Z" fill="#5A9460"/>
<path d="M204.757 220.094C205.252 219.854 205.725 219.634 206.136 219.436C207.932 218.56 209.699 217.626 207.422 216.721C202.268 216.954 197.085 217.442 192.206 219.253C183.261 222.371 174.627 226.21 165.908 229.88C164.508 230.474 163.115 231.089 161.722 231.719C161.015 232.652 159.827 233.006 158.872 233.649C153.399 236.803 148.627 240.713 144.122 245.09C146.095 244.659 148.004 243.881 150.027 243.683C151.222 243.591 152.41 243.393 153.548 243.033C157.352 241.717 160.859 239.695 164.579 238.182C171.275 235.403 178.063 232.843 184.639 229.803C191.159 226.097 197.947 223.127 204.757 220.094ZM217.294 217.527C217.859 218.206 217.463 219.026 216.813 219.465C216.636 219.641 216.332 219.663 216.155 219.486C215.851 219.182 216.134 218.842 216.353 218.595C211.198 223.679 206.22 229.067 200.408 233.409C191.732 239.554 182.568 244.786 171.961 246.596C163.829 248.011 155.627 249.693 147.396 250.16C144.794 250.302 142.171 250.563 139.568 250.28C138.96 250.224 138.296 250.026 137.871 249.587C133.77 250.832 129.655 252.034 125.504 253.144C124.139 253.335 121.848 254.735 121.198 252.798C120.851 250.584 123.949 250.896 125.342 250.295C129.867 249.078 134.357 247.728 138.847 246.377C145.19 240.445 151.554 234.533 159.353 230.623C159.474 230.389 159.672 230.191 159.926 230.092C166.778 227.243 173.58 224.287 180.482 221.558C186.393 219.267 192.269 216.629 198.541 215.547C203.788 215.01 209.218 214.402 214.409 215.59C215.95 214.798 218.185 215.533 217.294 217.527ZM195.366 233.416C201.186 229.887 205.945 225.03 210.718 220.271C209.558 220.851 208.412 221.459 207.224 222.01C200.684 225.129 193.896 227.759 187.602 231.408C181.168 234.689 174.365 237.192 167.683 239.914C161.376 242.403 155.535 246.264 148.662 246.773L147.686 247.028C147.149 247.169 146.604 247.318 146.081 247.473C154.672 247.07 163.115 245.302 171.558 243.846C171.579 243.839 171.607 243.839 171.629 243.832C180.248 242.269 188.253 238.408 195.366 233.416Z" fill="#271A38"/>
<path d="M111.942 171.742C110.182 173.503 108.371 175.228 106.526 176.918C101.548 180.524 96.3647 184.109 90.7503 186.641C87.0804 187.779 83.6297 189.49 80.0376 190.862C75.6748 192.552 71.1988 194.058 67.1188 196.385C65.1813 197.445 63.7671 198.676 61.8791 199.602C60.7407 200.048 58.5204 200.26 57.7638 199.206C58.6901 198.506 59.6235 197.799 60.5427 197.092C60.6841 197.064 60.8114 197.021 60.9387 196.95C66.4187 193.125 72.5564 190.565 78.8355 188.331C82.3994 186.987 85.8147 185.269 89.4634 184.124C95.0354 181.663 100.24 178.071 105.105 174.464C112.381 167.669 119.155 160.4 124.663 152.077C127.591 147.891 129.945 143.387 131.798 138.635C134.152 133.141 137.363 128.064 139.64 122.535C141.782 117.578 142.129 112.154 142.659 106.858C143.458 100.982 144.172 95.0351 143.324 89.1237C142.786 83.6224 140.347 78.3969 139.244 73.0936C138.438 69.0773 137.95 65.0114 137.151 60.9879C136.762 58.902 136.359 56.8019 136.139 54.6876C136.55 53.5987 136.988 52.5097 137.384 51.4208C137.426 51.2935 137.448 51.1733 137.448 51.046L138.756 51.0248C138.713 54.6593 139.477 58.209 140.135 61.7658C140.997 66.2064 141.422 70.7319 142.595 75.1159C145.763 83.9265 147.432 93.1896 146.032 102.523C145.077 108.612 145.169 114.912 143.225 120.816C141.443 126.445 138.268 131.472 135.729 136.769C133.191 142.532 130.78 148.422 127.046 153.527C122.683 160.153 117.535 166.149 111.942 171.742Z" fill="#271A38"/>
<path d="M106.483 146.272C101.173 157.169 93.5572 166.608 84.7537 174.832C79.4292 180.058 74.2461 185.425 68.7236 190.438C66.0861 192.764 63.3284 194.956 60.5424 197.092C60.0616 197.219 59.5454 197.127 59.0504 197.028C58.3008 196.887 57.5725 197.502 57.4877 198.237C57.4806 198.64 57.5725 198.959 57.7634 199.206C55.2108 201.136 52.644 203.053 50.1125 205.018C49.7236 205.521 48.96 205.747 48.4721 205.259C51.5904 202.819 54.4966 200.083 57.3321 197.304C58.7958 195.897 60.2878 194.518 61.7798 193.139C66.3194 189.406 70.7247 185.524 74.7481 181.217C83.0001 172.697 92.1713 164.756 98.5423 154.665C103.697 147.022 106.808 138.31 110.98 130.178C114.162 123.249 116.863 116.064 119.628 108.958C120.979 103.874 122.711 98.8888 123.864 93.7482C124.507 90.1773 124.818 86.5428 125.702 83.0143C127.23 76.3251 129.408 69.8055 131.324 63.2224C132.236 59.8071 132.285 56.3634 133.749 53.1178C134.025 52.5592 134.18 51.8945 134.407 51.2864C134.888 50.749 135.383 50.2116 135.863 49.6742C135.913 49.6671 135.969 49.6671 136.019 49.6601C135.892 51.343 135.962 53.0259 136.139 54.6876C135.92 55.3028 135.701 55.9038 135.503 56.5261C134.881 58.6615 134.838 60.9243 134.244 63.0739C133.389 66.5316 132.172 69.9116 131.182 73.3481C129.895 77.7464 128.672 82.1658 127.788 86.67C127.173 90.2126 126.89 93.833 125.886 97.2979C124.592 101.717 123.326 106.137 122.018 110.542C119.296 117.422 116.694 124.38 113.604 131.105C111.051 136.118 108.774 141.237 106.483 146.272Z" fill="#271A38"/>
<path d="M60.5427 197.092C59.6235 197.799 58.6901 198.506 57.7638 199.206C57.5729 198.959 57.4809 198.64 57.488 198.237C57.5729 197.502 58.3012 196.887 59.0507 197.028C59.5457 197.127 60.0619 197.219 60.5427 197.092Z" fill="#271A38"/>
<path d="M72.0471 182.773C68.957 186.528 65.3649 189.837 61.7799 193.139C57.3817 196.76 52.8704 200.239 48.4722 203.845C48.1186 204.213 48.0974 204.785 48.4015 205.174C48.4297 205.202 48.4439 205.231 48.4722 205.259C46.5418 206.779 44.5265 208.172 42.391 209.389C39.902 210.704 33.8563 214.529 31.5016 212.698C31.0208 212.217 31.0208 211.411 31.5087 210.923C31.8976 210.534 32.5057 210.449 32.9795 210.697C43.2749 207.939 50.7915 199.744 58.3363 192.694C63.2931 187.751 69.2328 183.409 72.3229 176.968C75.519 170.052 77.6474 162.691 80.193 155.535C83.5093 145.006 87.66 134.435 87.1933 123.249C88.2328 95.806 101.689 83.269 118.886 64.0922C124.769 57.7283 130.567 51.2512 136.472 44.9084C137.214 44.0811 137.985 42.6033 139.293 43.3175C139.873 43.6427 140.191 44.4276 139.901 45.0569C138.996 46.9378 138.855 48.9743 138.756 51.0108L138.763 51.0178L137.447 51.0461C137.462 50.2966 136.754 49.6743 136.019 49.6602C136.026 49.6107 136.033 49.5471 136.033 49.4905C135.977 49.5471 135.92 49.6178 135.863 49.6743C135.687 49.6956 135.51 49.7451 135.347 49.8511C134.881 50.2188 134.612 50.7279 134.407 51.2865C126.685 59.7577 118.829 68.1369 111.277 76.7636C106.186 82.7033 101.01 88.6854 97.1918 95.5444C92.7512 103.379 90.8561 112.359 90.0642 121.255C90.1702 129.535 89.0601 137.744 86.267 145.558C83.7709 153.697 81.0839 161.772 78.1636 169.769C76.6009 174.302 74.8543 178.849 72.0471 182.773Z" fill="#271A38"/>
<path d="M61.7806 193.139C60.2886 194.518 58.7966 195.897 57.3329 197.304C54.4974 200.083 51.5912 202.82 48.4728 205.259C48.4445 205.231 48.4304 205.202 48.4021 205.174C48.0981 204.785 48.1193 204.213 48.4728 203.845C52.871 200.239 57.3824 196.76 61.7806 193.139Z" fill="#271A38"/>
<path d="M285.417 116.425C287.743 115.768 296.285 111.553 296.215 115.951C295.713 117.472 294.581 118.532 293.535 119.678C291.003 122.393 288.288 124.925 285.99 127.845C282.942 131.741 280.262 135.963 276.677 139.42C272.074 143.797 266.573 147.177 261.192 150.508C255.528 153.683 249.857 156.893 243.67 158.936C236.627 161.058 229.365 162.847 222.074 163.716C208.54 164.211 194.999 162.847 181.508 161.885C180.157 163.009 178.764 164.134 177.23 164.989C176.551 165.343 175.688 165.018 175.349 164.339C174.606 162.62 176.919 162.147 177.852 161.213C177.117 160.45 177.902 159.042 178.891 159.198C179.316 159.24 179.761 159.262 180.193 159.283C186.846 153.294 193.67 147.333 201.321 142.666C209.806 137.504 219.076 133.679 228.156 129.775C235.672 126.572 243.514 124.048 251.525 122.485C258.399 121.255 265.484 121.368 272.385 120.434C276.875 119.579 281.16 118.037 285.424 116.418L285.417 116.425ZM292.106 117.104C289.844 117.769 287.609 118.575 285.375 119.409C285.353 119.402 285.339 119.416 285.325 119.43C282.61 120.109 279.987 121.064 277.399 122.139C275.885 122.577 274.365 122.952 272.809 123.206C272.774 123.213 272.746 123.213 272.717 123.213C265.731 124.161 258.618 124.034 251.674 125.292C244.016 126.855 236.443 129.295 229.266 132.342C220.618 136.097 211.885 139.668 203.76 144.455C197.057 148.344 191.209 153.371 185.361 158.399C184.888 158.449 184.407 158.434 183.926 158.392C182.059 155.62 179.429 161.433 185.828 160.747C187.129 160.534 188.43 160.266 189.717 159.969C197.368 160.506 205.012 160.867 212.677 161.121C218.808 161.553 224.931 160.916 230.892 159.438C235.531 158.406 240.148 157.31 244.624 155.691C251.023 153.152 257.112 149.808 262.945 146.166C266.947 143.536 271.027 140.926 274.535 137.631C278.021 134.301 280.616 130.178 283.593 126.395C284.858 124.748 286.266 123.213 287.694 121.7C287.864 121.629 288.026 121.552 288.182 121.453C288.564 121.212 288.748 120.887 288.783 120.555C289.9 119.409 291.017 118.278 292.092 117.104L292.106 117.104Z" fill="#271A38"/>
<path d="M229.675 144.886C223.191 147.792 216.757 150.366 210.117 152.848C203.534 155.726 196.738 158.378 189.724 159.962C187.822 159.841 185.913 159.7 184.011 159.551C184.456 159.163 184.916 158.774 185.368 158.392C187.603 158.25 189.773 157.352 191.93 156.822C196.661 155.599 201.25 153.923 205.705 151.915C211.347 149.298 217.336 147.538 222.951 144.879C227.674 142.574 232.78 140.891 237.56 139.01C241.329 137.391 244.843 135.248 248.598 133.601C254.665 131.112 260.972 129.245 266.982 126.614C270.476 125.2 273.905 123.567 277.398 122.138C280.071 121.375 282.694 120.392 285.325 119.43C285.332 119.423 285.346 119.409 285.374 119.409C285.806 119.303 286.23 119.204 286.661 119.098C287.793 118.391 288.959 119.515 288.79 120.547C288.429 120.936 288.061 121.318 287.694 121.686C286.895 122.032 285.997 122.082 285.169 122.315C282.935 122.952 280.785 123.843 278.593 124.606C275.779 125.752 273.078 127.124 270.306 128.213C263.772 131.112 256.906 133.339 250.231 135.87C246.837 137.313 243.634 139.159 240.31 140.757C236.796 142.404 233.218 143.437 229.661 144.872L229.675 144.886Z" fill="#271A38"/>
</g>
<defs>
<clipPath id="clip0_15406_8482">
<rect width="180.41" height="256.25" fill="white" transform="translate(181.196) rotate(45)"/>
</clipPath>
</defs>
</svg>
