<svg width="192" height="192" viewBox="0 0 192 192" fill="none" xmlns="http://www.w3.org/2000/svg">
<path d="M96 1.10625e-05C118.34 1.0086e-05 139.98 7.79095 157.193 22.0307C174.406 36.2705 186.114 56.0675 190.3 78.0114C194.486 99.9553 190.888 122.672 180.125 142.248C169.363 161.825 152.111 177.035 131.34 185.259L107.309 124.563C113.955 121.931 119.476 117.064 122.92 110.799C126.364 104.535 127.515 97.2657 126.176 90.2436C124.836 83.2216 121.09 76.8866 115.582 72.3298C110.074 67.7731 103.149 65.28 96 65.28L96 1.10625e-05Z" fill="#E0474A"/>
<circle cx="96.5" cy="95.5" r="31" stroke="#271A38"/>
</svg>
