<svg width="1023" height="503" viewBox="0 0 1023 503" fill="none" xmlns="http://www.w3.org/2000/svg">
<path d="M96.789 459.68C101.109 459.68 104.149 462.368 104.149 466.272C104.149 475.2 91.829 474.976 91.861 482.048H103.861V484H89.461V483.008C89.461 472.768 101.909 473.888 101.909 466.272C101.909 463.488 99.829 461.632 96.789 461.632C93.877 461.632 91.381 463.744 91.029 467.616H88.885C89.269 462.624 92.629 459.68 96.789 459.68ZM116.272 459.68C121.264 459.68 124.272 464.32 124.272 472.064C124.272 479.776 121.264 484.384 116.272 484.384C111.248 484.384 108.24 479.776 108.24 472.064C108.24 464.288 111.248 459.68 116.272 459.68ZM110.48 472.064C110.48 478.72 112.624 482.368 116.272 482.368C119.888 482.368 122.032 478.688 122.032 472.064C122.032 465.376 119.888 461.696 116.272 461.696C112.624 461.696 110.48 465.376 110.48 472.064ZM136.164 459.68C140.484 459.68 143.524 462.368 143.524 466.272C143.524 475.2 131.204 474.976 131.236 482.048H143.236V484H128.836V483.008C128.836 472.768 141.284 473.888 141.284 466.272C141.284 463.488 139.204 461.632 136.164 461.632C133.252 461.632 130.756 463.744 130.404 467.616H128.26C128.644 462.624 132.004 459.68 136.164 459.68ZM155.647 459.68C160.639 459.68 163.647 464.32 163.647 472.064C163.647 479.776 160.639 484.384 155.647 484.384C150.623 484.384 147.615 479.776 147.615 472.064C147.615 464.288 150.623 459.68 155.647 459.68ZM149.855 472.064C149.855 478.72 151.999 482.368 155.647 482.368C159.263 482.368 161.407 478.688 161.407 472.064C161.407 465.376 159.263 461.696 155.647 461.696C151.999 461.696 149.855 465.376 149.855 472.064Z" fill="#271A38"/>
<path d="M355.914 459.68C360.234 459.68 363.274 462.368 363.274 466.272C363.274 475.2 350.954 474.976 350.986 482.048H362.986V484H348.586V483.008C348.586 472.768 361.034 473.888 361.034 466.272C361.034 463.488 358.954 461.632 355.914 461.632C353.002 461.632 350.506 463.744 350.154 467.616H348.01C348.394 462.624 351.754 459.68 355.914 459.68ZM375.397 459.68C380.389 459.68 383.397 464.32 383.397 472.064C383.397 479.776 380.389 484.384 375.397 484.384C370.373 484.384 367.365 479.776 367.365 472.064C367.365 464.288 370.373 459.68 375.397 459.68ZM369.605 472.064C369.605 478.72 371.749 482.368 375.397 482.368C379.013 482.368 381.157 478.688 381.157 472.064C381.157 465.376 379.013 461.696 375.397 461.696C371.749 461.696 369.605 465.376 369.605 472.064ZM395.289 459.68C399.609 459.68 402.649 462.368 402.649 466.272C402.649 475.2 390.329 474.976 390.361 482.048H402.361V484H387.961V483.008C387.961 472.768 400.409 473.888 400.409 466.272C400.409 463.488 398.329 461.632 395.289 461.632C392.377 461.632 389.881 463.744 389.529 467.616H387.385C387.769 462.624 391.129 459.68 395.289 459.68ZM411.346 460.064H413.458V484H411.25V465.024C410.546 466.176 409.49 466.368 407.09 466.368H405.234V464.416H407.09C410.258 464.416 411.25 463.616 411.346 460.064Z" fill="#271A38"/>
<path d="M610.008 459.68C614.328 459.68 617.368 462.368 617.368 466.272C617.368 475.2 605.048 474.976 605.08 482.048H617.08V484H602.68V483.008C602.68 472.768 615.128 473.888 615.128 466.272C615.128 463.488 613.048 461.632 610.008 461.632C607.096 461.632 604.6 463.744 604.248 467.616H602.104C602.488 462.624 605.848 459.68 610.008 459.68ZM629.491 459.68C634.483 459.68 637.491 464.32 637.491 472.064C637.491 479.776 634.483 484.384 629.491 484.384C624.467 484.384 621.459 479.776 621.459 472.064C621.459 464.288 624.467 459.68 629.491 459.68ZM623.699 472.064C623.699 478.72 625.843 482.368 629.491 482.368C633.107 482.368 635.251 478.688 635.251 472.064C635.251 465.376 633.107 461.696 629.491 461.696C625.843 461.696 623.699 465.376 623.699 472.064ZM649.383 459.68C653.703 459.68 656.743 462.368 656.743 466.272C656.743 475.2 644.423 474.976 644.455 482.048H656.455V484H642.055V483.008C642.055 472.768 654.503 473.888 654.503 466.272C654.503 463.488 652.423 461.632 649.383 461.632C646.471 461.632 643.975 463.744 643.623 467.616H641.479C641.863 462.624 645.223 459.68 649.383 459.68ZM668.352 459.68C672.672 459.68 675.712 462.368 675.712 466.272C675.712 475.2 663.391 474.976 663.424 482.048H675.424V484H661.024V483.008C661.024 472.768 673.472 473.888 673.472 466.272C673.472 463.488 671.392 461.632 668.352 461.632C665.44 461.632 662.944 463.744 662.592 467.616H660.448C660.832 462.624 664.192 459.68 668.352 459.68Z" fill="#271A38"/>
<path d="M865.977 459.68C870.297 459.68 873.337 462.368 873.337 466.272C873.337 475.2 861.016 474.976 861.049 482.048H873.049V484H858.649V483.008C858.649 472.768 871.097 473.888 871.097 466.272C871.097 463.488 869.017 461.632 865.977 461.632C863.065 461.632 860.569 463.744 860.217 467.616H858.073C858.457 462.624 861.817 459.68 865.977 459.68ZM885.46 459.68C890.452 459.68 893.46 464.32 893.46 472.064C893.46 479.776 890.452 484.384 885.46 484.384C880.436 484.384 877.428 479.776 877.428 472.064C877.428 464.288 880.436 459.68 885.46 459.68ZM879.668 472.064C879.668 478.72 881.812 482.368 885.46 482.368C889.076 482.368 891.22 478.688 891.22 472.064C891.22 465.376 889.076 461.696 885.46 461.696C881.812 461.696 879.668 465.376 879.668 472.064ZM905.352 459.68C909.672 459.68 912.712 462.368 912.712 466.272C912.712 475.2 900.391 474.976 900.424 482.048H912.424V484H898.024V483.008C898.024 472.768 910.472 473.888 910.472 466.272C910.472 463.488 908.392 461.632 905.352 461.632C902.44 461.632 899.944 463.744 899.592 467.616H897.448C897.832 462.624 901.192 459.68 905.352 459.68ZM924.256 484.384C920.288 484.384 917.088 481.632 916.704 477.664H918.848C919.264 480.48 921.472 482.368 924.288 482.368C927.328 482.368 929.504 480.32 929.504 477.312C929.504 474.432 927.072 472.448 923.616 472.448H922.464L922.176 470.496H923.712C926.72 470.496 928.832 468.64 928.832 465.952C928.832 463.456 926.88 461.696 924.064 461.696C921.312 461.696 919.136 463.712 918.784 466.592H916.64C917.056 462.496 920.192 459.68 924.128 459.68C928.192 459.68 931.072 462.208 931.072 465.824C931.072 468.768 928.96 471.104 926.112 471.392C929.44 471.712 931.776 474.464 931.776 477.376C931.776 481.504 928.64 484.384 924.256 484.384Z" fill="#271A38"/>
<path d="M68.4657 384.704V381.632L81.1377 356.096H84.6897L71.9217 381.776H85.6017V372.896L88.9137 372.224V381.776H93.5217V384.704H88.9137V392H85.6017V384.704H68.4657ZM102.306 392L100.146 397.76H98.4181L99.9541 392H98.3701V387.728H102.306V392ZM119.111 392.576C113.159 392.576 108.359 388.448 107.783 382.496H110.999C111.623 386.72 114.935 389.552 119.159 389.552C123.719 389.552 126.983 386.48 126.983 381.968C126.983 377.648 123.335 374.672 118.151 374.672H116.423L115.991 371.744H118.295C122.807 371.744 125.975 368.96 125.975 364.928C125.975 361.184 123.047 358.544 118.823 358.544C114.695 358.544 111.431 361.568 110.903 365.888H107.687C108.311 359.744 113.015 355.52 118.919 355.52C125.015 355.52 129.335 359.312 129.335 364.736C129.335 369.152 126.167 372.656 121.895 373.088C126.887 373.568 130.391 377.696 130.391 382.064C130.391 388.256 125.687 392.576 119.111 392.576ZM157.37 358.976C148.73 368.144 143.69 377.456 144.89 392H141.53C140.474 377.792 145.418 367.52 153.818 359.024H133.61V356.096H157.37V358.976ZM172.923 392.576C166.971 392.576 162.171 388.448 161.595 382.496H164.811C165.435 386.72 168.747 389.552 172.971 389.552C177.531 389.552 180.795 386.48 180.795 381.968C180.795 377.648 177.147 374.672 171.963 374.672H170.235L169.803 371.744H172.107C176.619 371.744 179.787 368.96 179.787 364.928C179.787 361.184 176.859 358.544 172.635 358.544C168.507 358.544 165.243 361.568 164.715 365.888H161.499C162.123 359.744 166.827 355.52 172.731 355.52C178.827 355.52 183.147 359.312 183.147 364.736C183.147 369.152 179.979 372.656 175.707 373.088C180.699 373.568 184.203 377.696 184.203 382.064C184.203 388.256 179.499 392.576 172.923 392.576Z" fill="white"/>
<path d="M328.112 356.096H331.28V392H327.968V363.536C326.912 365.264 325.328 365.552 321.728 365.552H318.944V362.624H321.728C326.48 362.624 327.968 361.424 328.112 356.096ZM337.755 384.704V381.632L350.427 356.096H353.979L341.211 381.776H354.891V372.896L358.203 372.224V381.776H362.811V384.704H358.203V392H354.891V384.704H337.755ZM371.595 392L369.435 397.76H367.707L369.243 392H367.659V387.728H371.595V392ZM381.175 356.096H384.343V392H381.031V363.536C379.975 365.264 378.391 365.552 374.791 365.552H372.007V362.624H374.791C379.543 362.624 381.031 361.424 381.175 356.096ZM405.217 392.576C396.193 392.576 392.689 384.896 392.641 375.296C392.593 363.584 397.969 355.52 406.081 355.52C411.793 355.52 416.209 359.024 417.121 364.64H413.809C413.089 361.04 410.113 358.544 406.129 358.544C399.361 358.544 395.137 366.416 396.001 377.456C397.153 371.888 401.569 369.536 405.505 369.536C411.697 369.536 416.209 374.48 416.209 380.912C416.209 387.728 411.553 392.576 405.217 392.576ZM397.105 380.864C397.105 386.288 400.513 389.552 405.025 389.552C409.537 389.552 412.849 385.904 412.849 380.912C412.849 375.92 409.489 372.272 404.977 372.272C400.561 372.272 397.105 375.824 397.105 380.864ZM433.869 392.576C427.917 392.576 423.117 388.448 422.541 382.496H425.757C426.381 386.72 429.693 389.552 433.917 389.552C438.477 389.552 441.741 386.48 441.741 381.968C441.741 377.648 438.093 374.672 432.909 374.672H431.181L430.749 371.744H433.053C437.565 371.744 440.733 368.96 440.733 364.928C440.733 361.184 437.805 358.544 433.581 358.544C429.453 358.544 426.189 361.568 425.661 365.888H422.445C423.069 359.744 427.773 355.52 433.677 355.52C439.773 355.52 444.093 359.312 444.093 364.736C444.093 369.152 440.925 372.656 436.653 373.088C441.645 373.568 445.149 377.696 445.149 382.064C445.149 388.256 440.445 392.576 433.869 392.576Z" fill="white"/>
<path d="M842.212 356.096L842.644 359.024H827.14L825.7 372.512C827.236 370.016 830.356 368.384 833.476 368.384C839.668 368.384 843.7 373.136 843.7 380.48C843.7 387.824 839.092 392.576 832.516 392.576C826.372 392.576 822.1 388.544 821.668 382.496H824.788C825.316 386.864 828.388 389.552 832.516 389.552C837.028 389.552 840.34 386.048 840.34 380.48C840.34 374.912 837.364 371.312 832.804 371.312C829.732 371.312 826.948 373.136 825.556 375.968H822.148L824.26 356.096H842.212ZM860.91 355.52C867.39 355.52 871.95 359.552 871.95 365.408C871.95 378.8 853.47 378.464 853.518 389.072H871.518V392H849.918V390.512C849.918 375.152 868.59 376.832 868.59 365.408C868.59 361.232 865.47 358.448 860.91 358.448C856.542 358.448 852.798 361.616 852.27 367.424H849.054C849.63 359.936 854.67 355.52 860.91 355.52ZM882.259 392L880.099 397.76H878.371L879.907 392H878.323V387.728H882.259V392ZM899.064 392.576C893.112 392.576 888.312 388.448 887.736 382.496H890.952C891.576 386.72 894.888 389.552 899.112 389.552C903.672 389.552 906.936 386.48 906.936 381.968C906.936 377.648 903.288 374.672 898.104 374.672H896.376L895.944 371.744H898.248C902.76 371.744 905.928 368.96 905.928 364.928C905.928 361.184 903 358.544 898.776 358.544C894.648 358.544 891.384 361.568 890.856 365.888H887.64C888.264 359.744 892.968 355.52 898.872 355.52C904.968 355.52 909.288 359.312 909.288 364.736C909.288 369.152 906.12 372.656 901.848 373.088C906.84 373.568 910.344 377.696 910.344 382.064C910.344 388.256 905.64 392.576 899.064 392.576ZM927.611 392.576C921.659 392.576 916.859 388.448 916.283 382.496H919.499C920.123 386.72 923.435 389.552 927.659 389.552C932.219 389.552 935.483 386.48 935.483 381.968C935.483 377.648 931.835 374.672 926.651 374.672H924.923L924.491 371.744H926.795C931.307 371.744 934.475 368.96 934.475 364.928C934.475 361.184 931.547 358.544 927.323 358.544C923.195 358.544 919.931 361.568 919.403 365.888H916.187C916.811 359.744 921.515 355.52 927.419 355.52C933.515 355.52 937.835 359.312 937.835 364.736C937.835 369.152 934.667 372.656 930.395 373.088C935.387 373.568 938.891 377.696 938.891 382.064C938.891 388.256 934.187 392.576 927.611 392.576ZM957.166 355.52C964.654 355.52 969.166 362.48 969.166 374.096C969.166 385.664 964.654 392.576 957.166 392.576C949.63 392.576 945.118 385.664 945.118 374.096C945.118 362.432 949.63 355.52 957.166 355.52ZM948.478 374.096C948.478 384.08 951.694 389.552 957.166 389.552C962.59 389.552 965.806 384.032 965.806 374.096C965.806 364.064 962.59 358.544 957.166 358.544C951.694 358.544 948.478 364.064 948.478 374.096Z" fill="white"/>
<path d="M568.302 384.704V381.632L580.974 356.096H584.526L571.758 381.776H585.438V372.896L588.75 372.224V381.776H593.358V384.704H588.75V392H585.438V384.704H568.302ZM596.286 384.704V381.632L608.958 356.096H612.51L599.742 381.776H613.422V372.896L616.734 372.224V381.776H621.342V384.704H616.734V392H613.422V384.704H596.286ZM630.126 392L627.966 397.76H626.238L627.774 392H626.19V387.728H630.126V392ZM646.908 355.52C654.396 355.52 658.908 362.48 658.908 374.096C658.908 385.664 654.396 392.576 646.908 392.576C639.372 392.576 634.86 385.664 634.86 374.096C634.86 362.432 639.372 355.52 646.908 355.52ZM638.22 374.096C638.22 384.08 641.436 389.552 646.908 389.552C652.332 389.552 655.548 384.032 655.548 374.096C655.548 364.064 652.332 358.544 646.908 358.544C641.436 358.544 638.22 364.064 638.22 374.096ZM672.378 356.096H675.546V392H672.234V363.536C671.178 365.264 669.594 365.552 665.994 365.552H663.21V362.624H665.994C670.746 362.624 672.234 361.424 672.378 356.096ZM695.892 355.52C703.38 355.52 707.892 362.48 707.892 374.096C707.892 385.664 703.38 392.576 695.892 392.576C688.356 392.576 683.844 385.664 683.844 374.096C683.844 362.432 688.356 355.52 695.892 355.52ZM687.204 374.096C687.204 384.08 690.42 389.552 695.892 389.552C701.316 389.552 704.532 384.032 704.532 374.096C704.532 364.064 701.316 358.544 695.892 358.544C690.42 358.544 687.204 364.064 687.204 374.096Z" fill="white"/>
<line y1="439.5" x2="1022" y2="439.5" stroke="#271A38"/>
<line x1="0.5" y1="2.18557e-08" x2="0.499981" y2="440" stroke="#271A38"/>
<line x1="1022.5" y1="2.18557e-08" x2="1022.5" y2="440" stroke="#271A38"/>
<line x1="253.5" y1="2.18557e-08" x2="253.5" y2="440" stroke="#271A38"/>
<line x1="511.5" y1="2.18557e-08" x2="511.5" y2="440" stroke="#271A38"/>
<line x1="764.5" y1="2.18557e-08" x2="764.5" y2="440" stroke="#271A38"/>
<rect width="64" height="25" transform="matrix(1 0 0 -1 95 309)" fill="url(#paint0_linear_15274_44801)"/>
<rect width="64" height="84" transform="matrix(1 0 0 -1 351 309)" fill="url(#paint1_linear_15274_44801)"/>
<rect width="64" height="261" transform="matrix(1 0 0 -1 607 309)" fill="url(#paint2_linear_15274_44801)"/>
<rect width="72" height="309" transform="matrix(1 0 0 -1 859 309)" fill="url(#paint3_linear_15274_44801)"/>
<defs>
<linearGradient id="paint0_linear_15274_44801" x1="32" y1="25" x2="32" y2="0" gradientUnits="userSpaceOnUse">
<stop stop-color="#8A76E8"/>
<stop offset="1" stop-color="#8A76E8"/>
</linearGradient>
<linearGradient id="paint1_linear_15274_44801" x1="32" y1="84" x2="32" y2="0" gradientUnits="userSpaceOnUse">
<stop stop-color="#8A76E8"/>
<stop offset="1" stop-color="#8A76E8"/>
</linearGradient>
<linearGradient id="paint2_linear_15274_44801" x1="32" y1="261" x2="32" y2="0" gradientUnits="userSpaceOnUse">
<stop stop-color="#8A76E8"/>
<stop offset="1" stop-color="#8A76E8"/>
</linearGradient>
<linearGradient id="paint3_linear_15274_44801" x1="36" y1="309" x2="36" y2="0" gradientUnits="userSpaceOnUse">
<stop stop-color="#8A76E8"/>
<stop offset="1" stop-color="#8A76E8"/>
</linearGradient>
</defs>
</svg>
