<svg width="1023" height="503" viewBox="0 0 1023 503" fill="none" xmlns="http://www.w3.org/2000/svg">
<path d="M96.789 459.68C101.109 459.68 104.149 462.368 104.149 466.272C104.149 475.2 91.829 474.976 91.861 482.048H103.861V484H89.461V483.008C89.461 472.768 101.909 473.888 101.909 466.272C101.909 463.488 99.829 461.632 96.789 461.632C93.877 461.632 91.381 463.744 91.029 467.616H88.885C89.269 462.624 92.629 459.68 96.789 459.68ZM116.272 459.68C121.264 459.68 124.272 464.32 124.272 472.064C124.272 479.776 121.264 484.384 116.272 484.384C111.248 484.384 108.24 479.776 108.24 472.064C108.24 464.288 111.248 459.68 116.272 459.68ZM110.48 472.064C110.48 478.72 112.624 482.368 116.272 482.368C119.888 482.368 122.032 478.688 122.032 472.064C122.032 465.376 119.888 461.696 116.272 461.696C112.624 461.696 110.48 465.376 110.48 472.064ZM136.164 459.68C140.484 459.68 143.524 462.368 143.524 466.272C143.524 475.2 131.204 474.976 131.236 482.048H143.236V484H128.836V483.008C128.836 472.768 141.284 473.888 141.284 466.272C141.284 463.488 139.204 461.632 136.164 461.632C133.252 461.632 130.756 463.744 130.404 467.616H128.26C128.644 462.624 132.004 459.68 136.164 459.68ZM155.647 459.68C160.639 459.68 163.647 464.32 163.647 472.064C163.647 479.776 160.639 484.384 155.647 484.384C150.623 484.384 147.615 479.776 147.615 472.064C147.615 464.288 150.623 459.68 155.647 459.68ZM149.855 472.064C149.855 478.72 151.999 482.368 155.647 482.368C159.263 482.368 161.407 478.688 161.407 472.064C161.407 465.376 159.263 461.696 155.647 461.696C151.999 461.696 149.855 465.376 149.855 472.064Z" fill="#271A38"/>
<path d="M355.914 459.68C360.234 459.68 363.274 462.368 363.274 466.272C363.274 475.2 350.954 474.976 350.986 482.048H362.986V484H348.586V483.008C348.586 472.768 361.034 473.888 361.034 466.272C361.034 463.488 358.954 461.632 355.914 461.632C353.002 461.632 350.506 463.744 350.154 467.616H348.01C348.394 462.624 351.754 459.68 355.914 459.68ZM375.397 459.68C380.389 459.68 383.397 464.32 383.397 472.064C383.397 479.776 380.389 484.384 375.397 484.384C370.373 484.384 367.365 479.776 367.365 472.064C367.365 464.288 370.373 459.68 375.397 459.68ZM369.605 472.064C369.605 478.72 371.749 482.368 375.397 482.368C379.013 482.368 381.157 478.688 381.157 472.064C381.157 465.376 379.013 461.696 375.397 461.696C371.749 461.696 369.605 465.376 369.605 472.064ZM395.289 459.68C399.609 459.68 402.649 462.368 402.649 466.272C402.649 475.2 390.329 474.976 390.361 482.048H402.361V484H387.961V483.008C387.961 472.768 400.409 473.888 400.409 466.272C400.409 463.488 398.329 461.632 395.289 461.632C392.377 461.632 389.881 463.744 389.529 467.616H387.385C387.769 462.624 391.129 459.68 395.289 459.68ZM411.346 460.064H413.458V484H411.25V465.024C410.546 466.176 409.49 466.368 407.09 466.368H405.234V464.416H407.09C410.258 464.416 411.25 463.616 411.346 460.064Z" fill="#271A38"/>
<path d="M610.008 459.68C614.328 459.68 617.368 462.368 617.368 466.272C617.368 475.2 605.048 474.976 605.08 482.048H617.08V484H602.68V483.008C602.68 472.768 615.128 473.888 615.128 466.272C615.128 463.488 613.048 461.632 610.008 461.632C607.096 461.632 604.6 463.744 604.248 467.616H602.104C602.488 462.624 605.848 459.68 610.008 459.68ZM629.491 459.68C634.483 459.68 637.491 464.32 637.491 472.064C637.491 479.776 634.483 484.384 629.491 484.384C624.467 484.384 621.459 479.776 621.459 472.064C621.459 464.288 624.467 459.68 629.491 459.68ZM623.699 472.064C623.699 478.72 625.843 482.368 629.491 482.368C633.107 482.368 635.251 478.688 635.251 472.064C635.251 465.376 633.107 461.696 629.491 461.696C625.843 461.696 623.699 465.376 623.699 472.064ZM649.383 459.68C653.703 459.68 656.743 462.368 656.743 466.272C656.743 475.2 644.423 474.976 644.455 482.048H656.455V484H642.055V483.008C642.055 472.768 654.503 473.888 654.503 466.272C654.503 463.488 652.423 461.632 649.383 461.632C646.471 461.632 643.975 463.744 643.623 467.616H641.479C641.863 462.624 645.223 459.68 649.383 459.68ZM668.352 459.68C672.672 459.68 675.712 462.368 675.712 466.272C675.712 475.2 663.391 474.976 663.424 482.048H675.424V484H661.024V483.008C661.024 472.768 673.472 473.888 673.472 466.272C673.472 463.488 671.392 461.632 668.352 461.632C665.44 461.632 662.944 463.744 662.592 467.616H660.448C660.832 462.624 664.192 459.68 668.352 459.68Z" fill="#271A38"/>
<path d="M865.977 459.68C870.297 459.68 873.337 462.368 873.337 466.272C873.337 475.2 861.016 474.976 861.049 482.048H873.049V484H858.649V483.008C858.649 472.768 871.097 473.888 871.097 466.272C871.097 463.488 869.017 461.632 865.977 461.632C863.065 461.632 860.569 463.744 860.217 467.616H858.073C858.457 462.624 861.817 459.68 865.977 459.68ZM885.46 459.68C890.452 459.68 893.46 464.32 893.46 472.064C893.46 479.776 890.452 484.384 885.46 484.384C880.436 484.384 877.428 479.776 877.428 472.064C877.428 464.288 880.436 459.68 885.46 459.68ZM879.668 472.064C879.668 478.72 881.812 482.368 885.46 482.368C889.076 482.368 891.22 478.688 891.22 472.064C891.22 465.376 889.076 461.696 885.46 461.696C881.812 461.696 879.668 465.376 879.668 472.064ZM905.352 459.68C909.672 459.68 912.712 462.368 912.712 466.272C912.712 475.2 900.391 474.976 900.424 482.048H912.424V484H898.024V483.008C898.024 472.768 910.472 473.888 910.472 466.272C910.472 463.488 908.392 461.632 905.352 461.632C902.44 461.632 899.944 463.744 899.592 467.616H897.448C897.832 462.624 901.192 459.68 905.352 459.68ZM924.256 484.384C920.288 484.384 917.088 481.632 916.704 477.664H918.848C919.264 480.48 921.472 482.368 924.288 482.368C927.328 482.368 929.504 480.32 929.504 477.312C929.504 474.432 927.072 472.448 923.616 472.448H922.464L922.176 470.496H923.712C926.72 470.496 928.832 468.64 928.832 465.952C928.832 463.456 926.88 461.696 924.064 461.696C921.312 461.696 919.136 463.712 918.784 466.592H916.64C917.056 462.496 920.192 459.68 924.128 459.68C928.192 459.68 931.072 462.208 931.072 465.824C931.072 468.768 928.96 471.104 926.112 471.392C929.44 471.712 931.776 474.464 931.776 477.376C931.776 481.504 928.64 484.384 924.256 484.384Z" fill="#271A38"/>
<path d="M68.6063 384.704V381.632L81.2783 356.096H84.8303L72.0623 381.776H85.7423V372.896L89.0543 372.224V381.776H93.6623V384.704H89.0543V392H85.7423V384.704H68.6063ZM118.97 392.576C113.018 392.576 108.218 388.448 107.642 382.496H110.858C111.482 386.72 114.794 389.552 119.018 389.552C123.578 389.552 126.842 386.48 126.842 381.968C126.842 377.648 123.194 374.672 118.01 374.672H116.282L115.85 371.744H118.154C122.666 371.744 125.834 368.96 125.834 364.928C125.834 361.184 122.906 358.544 118.682 358.544C114.554 358.544 111.29 361.568 110.762 365.888H107.546C108.17 359.744 112.874 355.52 118.778 355.52C124.874 355.52 129.194 359.312 129.194 364.736C129.194 369.152 126.026 372.656 121.754 373.088C126.746 373.568 130.25 377.696 130.25 382.064C130.25 388.256 125.546 392.576 118.97 392.576ZM157.229 358.976C148.589 368.144 143.549 377.456 144.749 392H141.389C140.333 377.792 145.277 367.52 153.677 359.024H133.469V356.096H157.229V358.976ZM172.783 392.576C166.831 392.576 162.031 388.448 161.455 382.496H164.671C165.295 386.72 168.607 389.552 172.831 389.552C177.391 389.552 180.655 386.48 180.655 381.968C180.655 377.648 177.007 374.672 171.823 374.672H170.095L169.663 371.744H171.967C176.479 371.744 179.647 368.96 179.647 364.928C179.647 361.184 176.719 358.544 172.495 358.544C168.367 358.544 165.103 361.568 164.575 365.888H161.359C161.983 359.744 166.687 355.52 172.591 355.52C178.687 355.52 183.007 359.312 183.007 364.736C183.007 369.152 179.839 372.656 175.567 373.088C180.559 373.568 184.063 377.696 184.063 382.064C184.063 388.256 179.359 392.576 172.783 392.576Z" fill="white"/>
<path d="M326.776 356.096H329.944V392H326.632V363.536C325.576 365.264 323.992 365.552 320.392 365.552H317.608V362.624H320.392C325.144 362.624 326.632 361.424 326.776 356.096ZM336.419 384.704V381.632L349.091 356.096H352.643L339.875 381.776H353.555V372.896L356.867 372.224V381.776H361.475V384.704H356.867V392H353.555V384.704H336.419ZM382.511 356.096H385.679V392H382.367V363.536C381.311 365.264 379.727 365.552 376.127 365.552H373.343V362.624H376.127C380.879 362.624 382.367 361.424 382.511 356.096ZM406.553 392.576C397.529 392.576 394.025 384.896 393.977 375.296C393.929 363.584 399.305 355.52 407.417 355.52C413.129 355.52 417.545 359.024 418.457 364.64H415.145C414.425 361.04 411.449 358.544 407.465 358.544C400.697 358.544 396.473 366.416 397.337 377.456C398.489 371.888 402.905 369.536 406.841 369.536C413.033 369.536 417.545 374.48 417.545 380.912C417.545 387.728 412.889 392.576 406.553 392.576ZM398.441 380.864C398.441 386.288 401.849 389.552 406.361 389.552C410.873 389.552 414.185 385.904 414.185 380.912C414.185 375.92 410.825 372.272 406.313 372.272C401.897 372.272 398.441 375.824 398.441 380.864ZM435.205 392.576C429.253 392.576 424.453 388.448 423.877 382.496H427.093C427.717 386.72 431.029 389.552 435.253 389.552C439.813 389.552 443.077 386.48 443.077 381.968C443.077 377.648 439.429 374.672 434.245 374.672H432.517L432.085 371.744H434.389C438.901 371.744 442.069 368.96 442.069 364.928C442.069 361.184 439.141 358.544 434.917 358.544C430.789 358.544 427.525 361.568 426.997 365.888H423.781C424.405 359.744 429.109 355.52 435.013 355.52C441.109 355.52 445.429 359.312 445.429 364.736C445.429 369.152 442.261 372.656 437.989 373.088C442.981 373.568 446.485 377.696 446.485 382.064C446.485 388.256 441.781 392.576 435.205 392.576Z" fill="white"/>
<path d="M842.353 356.096L842.785 359.024H827.281L825.841 372.512C827.377 370.016 830.497 368.384 833.617 368.384C839.809 368.384 843.841 373.136 843.841 380.48C843.841 387.824 839.233 392.576 832.657 392.576C826.513 392.576 822.241 388.544 821.809 382.496H824.929C825.457 386.864 828.529 389.552 832.657 389.552C837.169 389.552 840.481 386.048 840.481 380.48C840.481 374.912 837.505 371.312 832.945 371.312C829.873 371.312 827.089 373.136 825.697 375.968H822.289L824.401 356.096H842.353ZM861.051 355.52C867.531 355.52 872.091 359.552 872.091 365.408C872.091 378.8 853.611 378.464 853.659 389.072H871.659V392H850.059V390.512C850.059 375.152 868.731 376.832 868.731 365.408C868.731 361.232 865.611 358.448 861.051 358.448C856.683 358.448 852.939 361.616 852.411 367.424H849.195C849.771 359.936 854.811 355.52 861.051 355.52ZM898.923 392.576C892.971 392.576 888.171 388.448 887.595 382.496H890.811C891.435 386.72 894.747 389.552 898.971 389.552C903.531 389.552 906.795 386.48 906.795 381.968C906.795 377.648 903.147 374.672 897.963 374.672H896.235L895.803 371.744H898.107C902.619 371.744 905.787 368.96 905.787 364.928C905.787 361.184 902.859 358.544 898.635 358.544C894.507 358.544 891.243 361.568 890.715 365.888H887.499C888.123 359.744 892.827 355.52 898.731 355.52C904.827 355.52 909.147 359.312 909.147 364.736C909.147 369.152 905.979 372.656 901.707 373.088C906.699 373.568 910.203 377.696 910.203 382.064C910.203 388.256 905.499 392.576 898.923 392.576ZM927.47 392.576C921.518 392.576 916.718 388.448 916.142 382.496H919.358C919.982 386.72 923.294 389.552 927.518 389.552C932.078 389.552 935.342 386.48 935.342 381.968C935.342 377.648 931.694 374.672 926.51 374.672H924.782L924.35 371.744H926.654C931.166 371.744 934.334 368.96 934.334 364.928C934.334 361.184 931.406 358.544 927.182 358.544C923.054 358.544 919.79 361.568 919.262 365.888H916.046C916.67 359.744 921.374 355.52 927.278 355.52C933.374 355.52 937.694 359.312 937.694 364.736C937.694 369.152 934.526 372.656 930.254 373.088C935.246 373.568 938.75 377.696 938.75 382.064C938.75 388.256 934.046 392.576 927.47 392.576ZM957.025 355.52C964.513 355.52 969.025 362.48 969.025 374.096C969.025 385.664 964.513 392.576 957.025 392.576C949.489 392.576 944.977 385.664 944.977 374.096C944.977 362.432 949.489 355.52 957.025 355.52ZM948.337 374.096C948.337 384.08 951.553 389.552 957.025 389.552C962.449 389.552 965.665 384.032 965.665 374.096C965.665 364.064 962.449 358.544 957.025 358.544C951.553 358.544 948.337 364.064 948.337 374.096Z" fill="white"/>
<path d="M567.927 384.704V381.632L580.599 356.096H584.151L571.383 381.776H585.063V372.896L588.375 372.224V381.776H592.983V384.704H588.375V392H585.063V384.704H567.927ZM595.911 384.704V381.632L608.583 356.096H612.135L599.367 381.776H613.047V372.896L616.359 372.224V381.776H620.967V384.704H616.359V392H613.047V384.704H595.911ZM647.283 355.52C654.771 355.52 659.283 362.48 659.283 374.096C659.283 385.664 654.771 392.576 647.283 392.576C639.747 392.576 635.235 385.664 635.235 374.096C635.235 362.432 639.747 355.52 647.283 355.52ZM638.595 374.096C638.595 384.08 641.811 389.552 647.283 389.552C652.707 389.552 655.923 384.032 655.923 374.096C655.923 364.064 652.707 358.544 647.283 358.544C641.811 358.544 638.595 364.064 638.595 374.096ZM672.753 356.096H675.921V392H672.609V363.536C671.553 365.264 669.969 365.552 666.369 365.552H663.585V362.624H666.369C671.121 362.624 672.609 361.424 672.753 356.096ZM696.267 355.52C703.755 355.52 708.267 362.48 708.267 374.096C708.267 385.664 703.755 392.576 696.267 392.576C688.731 392.576 684.219 385.664 684.219 374.096C684.219 362.432 688.731 355.52 696.267 355.52ZM687.579 374.096C687.579 384.08 690.795 389.552 696.267 389.552C701.691 389.552 704.907 384.032 704.907 374.096C704.907 364.064 701.691 358.544 696.267 358.544C690.795 358.544 687.579 364.064 687.579 374.096Z" fill="white"/>
<line y1="439.5" x2="1022" y2="439.5" stroke="#271A38"/>
<line x1="0.5" y1="2.18557e-08" x2="0.499981" y2="440" stroke="#271A38"/>
<line x1="1022.5" y1="2.18557e-08" x2="1022.5" y2="440" stroke="#271A38"/>
<line x1="253.5" y1="2.18557e-08" x2="253.5" y2="440" stroke="#271A38"/>
<line x1="511.5" y1="2.18557e-08" x2="511.5" y2="440" stroke="#271A38"/>
<line x1="764.5" y1="2.18557e-08" x2="764.5" y2="440" stroke="#271A38"/>
<rect width="64" height="25" transform="matrix(1 0 0 -1 95 309)" fill="url(#paint0_linear_15792_514)"/>
<rect width="64" height="84" transform="matrix(1 0 0 -1 351 309)" fill="url(#paint1_linear_15792_514)"/>
<rect width="64" height="261" transform="matrix(1 0 0 -1 607 309)" fill="url(#paint2_linear_15792_514)"/>
<rect width="72" height="309" transform="matrix(1 0 0 -1 859 309)" fill="url(#paint3_linear_15792_514)"/>
<defs>
<linearGradient id="paint0_linear_15792_514" x1="32" y1="25" x2="32" y2="0" gradientUnits="userSpaceOnUse">
<stop stop-color="#8A76E8"/>
<stop offset="1" stop-color="#8A76E8"/>
</linearGradient>
<linearGradient id="paint1_linear_15792_514" x1="32" y1="84" x2="32" y2="0" gradientUnits="userSpaceOnUse">
<stop stop-color="#8A76E8"/>
<stop offset="1" stop-color="#8A76E8"/>
</linearGradient>
<linearGradient id="paint2_linear_15792_514" x1="32" y1="261" x2="32" y2="0" gradientUnits="userSpaceOnUse">
<stop stop-color="#8A76E8"/>
<stop offset="1" stop-color="#8A76E8"/>
</linearGradient>
<linearGradient id="paint3_linear_15792_514" x1="36" y1="309" x2="36" y2="0" gradientUnits="userSpaceOnUse">
<stop stop-color="#8A76E8"/>
<stop offset="1" stop-color="#8A76E8"/>
</linearGradient>
</defs>
</svg>
