<?xml version="1.0" encoding="UTF-8"?>
<svg id="Calque_2" data-name="Calque 2" xmlns="http://www.w3.org/2000/svg" viewBox="0 0 1065.35 864.56">
  <defs>
    <style>
      .cls-1 {
        fill: #271a38;
      }

      .cls-1, .cls-2, .cls-3 {
        stroke-width: 0px;
      }

      .cls-2 {
        fill: #5a9460;
      }

      .cls-3 {
        fill: #fff;
      }
    </style>
  </defs>
  <path class="cls-3" d="M1056.7,705.92c-1.38-1.15-3.27-1.25-5-1.34-2.69-.08-5.39-.08-8.08-.1-1.87-.6-4.51-.35-6.25-.93-4.03-1.05-8.35-2.2-12.14-4.16-4.18-2-8.13-5.02-12.84-5.49-7.61-.21-15.08-.56-22.61-2.3-12.9-1.69-26.19-1.5-38.78-5.02-7.8-2.3-15.02-6.21-22.86-8.39-9.3-2.67-18.97-3.83-28.27-6.67-6.87-2.49-14.24-.25-20.98-3.31-9.42-5.84-19.77-10.02-29.05-16.05-6.85-4.81-13.02-11.17-21.52-12.86-17.24-4.48-35.18-.47-52.67-.66-5.08-5.86-9.67-12.86-15.06-18.62-8.91-9.53-19.36-17.38-30.28-24.44-9.87-7.04-20.63-13.52-32.55-16.54-30.76-9.67-56.86-21.27-86.94-1.42-1.05-11.62-8.54-21.17-13.43-31.41-4.67-9.83-11.56-18.76-21.23-24.09-6.81-3.68-13.25-8.48-20.78-10.62-13.64-2.69-27.77-.91-41.56-.25-10.55.6-20.98,2.43-31.37,4.36-4.51,1.05-9.44.64-13.43,3.29-34.66,25.72-42.19,29.34-54.27,72.66-5.41-2.43-10.84-5.35-16.87-5.8-10.64-.41-21.29-.02-31.95.29-14.5.06-29.23,1.83-41.82,9.59-12.78,7.3-25.49,16.42-32.24,29.87-8.04-1.58-16.23-2.22-24.44-1.97-11.89.14-23.91-.31-35.69,1.48-10.7,1.42-20.45,6.4-29.87,11.38-9.44,4.86-18.19,10.84-26.7,17.18-5.49,4.09-10.37,9.09-16.4,12.43-10.57,4.59-22.22,6.01-33.35,8.87-6.99,1.46-14.15,1.85-21.23,2.86-11.5,2.14-22.65,5.86-34.4,6.83-11.38.45-22.24,3.81-33.2,6.62-8.13,1.85-16.58,3.04-24.87,4.73.04-.04-.43.06-.64.04-.41,0-.78.12-1.11.35-2.28.29-4.55.66-6.83,1.11-1.48-.16-3.17.66-3.15,2.35,0,1.28,1.05,2.28,2.32,2.3,2.69.04,5.37-.45,8.04-.78,14.73-2.1,29.67-.95,44.54-1.25,17.18-1.46,34.38-1.93,51.62-1.63,27.22-.56,54.43-.49,81.65-.45,16.62.39,33.16-1.63,49.79-1.44,27.3.27,54.52-1.81,81.82-1.25,21.07-.62,41.78,3.93,62.85,4.07,14.57.16,29.09,2.2,43.7,3.19,20.1.35,40.22.7,60.34,1.05,44.33.04,88.69-.29,133,1.11,32.63-.02,65.26-.21,97.86,1.21,14.81.12,29.62-.43,44.35,1.52,10.16.99,20.37.7,30.55,1.01,12.8.86,26.15,1.25,39.15,1.13,17.42.19,34.81-.06,52.19-1.28,27.67-.7,55.34-.19,83.01-.33,15-.21,29.77.06,44.72,1.75,10.43.97,20.9.78,31.35.91,3.41.06,6.83.14,10.22.31,1.3.93,3.19.62,4.18-.66,1.03-1.36.76-3.29-.56-4.34Z"/>
  <g>
    <path class="cls-2" d="M865.01,481.26c-.47.09-.71.24-.78.45-1.01-1.31.35-3.46-1.46-4.24-.77-.23-1.55-.49-2.15-1.05-.62-.6-1.19-1.32-1.35-2.18-.24-1.04-.09-2.27-.83-3.11-.3-.26-.66-.4-1.02-.55.39-.21.69-.5.7-1.06.03-.98-1.32-1.42-1.87-.62-.22.04-.43.1-.64.18-.34-.52-.64-1.08-1.1-1.51-.74-.59-1.62-.17-2.22.37-1.63.41-3.23-.61-4.83-.44-.98.19-1.12,1.2-1.52,1.92-.64.62-1.78.23-2.32-.34-.56-.63-.65-1.6-1.42-2.04-.98-.64-1.69.4-2.46.82-3.15.76-4.83-2.32-4.72-5.07-.08-.83-1.08-1.41-1.84-1.04-.81.29-.82,1.08-1.14,1.76-.39.77-1.42.55-2.13.56-2.25-.04-4.21-1.13-5.72-2.79-.62-.76-1.62-1.51-2.62-.94-.98.62-.61,2.01-1.28,2.86-1.81,2.26-6.66,2.78-8.54.42.12-.98-.44-2.22-1.59-2.06-2.56.5.31,5.03-3.03,5.25-2.77.21-5.59-.84-6.99-3.35-.78-1.49-2.61-1.77-3.1.12-.53,1.63-3.39.75-4.47.12-1.34-.97-1.84-2.64-2.35-4.14-.34-1.08-.66-2.45-1.88-2.83-.78-.24-1.64-.19-2.38-.6-3.22-1.36-2.02-5.29-1.67-7.98.18-.84.17-1.93-.65-2.44-.52-.32-1.27-.32-1.59-.88h0c-.45-2.22,1.32-4.92,3.7-4.91.88-.23,1.28-1.38.7-2.1-2.69-1.67-2.07-3.56-.52-5.85.76-1.02,1.53-2.03,2.49-2.88.62-.46,1.28-1.1,1.14-1.94-.47-1.37.22-2.83.56-4.18.37-.84.46-2-.54-2.42-.41-.2-.9-.17-1.29.07-3.55.48-.97-3.49-1.95-5.22-.29-.51-.85-.75-1.21-1.2-.29-.78.05-1.68.1-2.52.55-2.75-.61-2.25-2.16-3.7-.74-1.26.07-2.95-.78-4.19-.26-.36-.67-.57-1.09-.66-.52-.21-.89-.64-1.2-1.08-2.08-2.91-1.58-5.23.12-8.09.09-.69-.45-1.32-1.15-1.32-.54,0-.98.36-1.12.84-.65.95-1.14,2.05-1.46,3.15-.27,1.24-.21,2.6.15,3.89-.13.14-.22.31-.28.5-.46,1.39-.97,2.73-1.59,4.1-.58,1.18-1.11,2.39-1.61,3.6-.46-.22-1.03,0-1.27.47-.41.44-.95.87-.89,1.53.02.17.03.51.09.85-.57-1.52-3.15-.67-4.47-1.1-1.49-.33-2.9-.61-3.88.86-1.66,1.09-4.4.35-6-.73-1.28-1.03-3.12-4.16-4.56-1.49-.35.51-.88.86-1.43,1.12,0-.01-.16.06-.31.13-.18.07-.53.17-.89.22-.99.05-1.96-.02-3.01-.4-.52-.24-1.01-.5-1.51-1-1.44-1.65-2.06-2.79-4.41-1.67-2.33.48-5.1-.1-6.9-1.79-1.34-1.18-2.17-3.16-2.56-5-.65-1.68.42-5.1-2.05-5.35-.4,0-.71.21-1.05.4-1.5.04-2.7-1.35-3.45-2.56-.69-1.04.11-2.35-.52-3.34-.31-.4-.91-.64-1.41-.47-.39.12-.63.44-1.03.52-1.25.17-2.58.03-3.78-.41-.84-.41-1.52-.98-2.04-1.85-.54-.86-.53-2.69-1.97-2.68-.87,0-1.29,1.02-2.2.99-1.03.05-2.32-.12-3.34-.44-1.41-.39-3.08-1.96-4.47-.76-.06.07-.13.13-.2.19-.22-.21-.52-.35-.85-.35-.66,0-1.22.56-1.22,1.22v.23c-.65.14-1.34.14-2.07-.03-.88-.15-1.48-.58-1.87-1.43-.65-1.24-.67-2.79-.95-4.17-.33-1.8-2.36-1.38-3.68-1.79-.72-.22-1.4-.67-2.02-1.26-1.28-1.36-2.08-3.32-2.5-5.16-.32-1.3.04-2.96-.99-3.95-.93-.76-2.43-.14-3.57-.52-1.27-.23-2.71-1.12-3.73-2.06-1.22-1.17-2.25-2.74-2.54-4.5-.24-2.18-.03-4.6.6-6.72.23-.75.79-1.6.33-2.37-.28-.55-.85-.79-1.45-.82-3.66-1.88-5.48-6.39-5.95-10.33-.1-1.63,0-3.42.09-5.22-.01-.47-.2-1.01-.59-1.3-2.53-1.08-4.2-3.19-4.8-5.99-.46-3.32-.06-6.97,1.42-10.01.69-1.39,1.61-2.65,2.5-3.92.69-.89,1.13-2.2.25-3.13-2.67-2.62-4.28-6.12-4.49-9.88-.09-3.63-.17-7.6,1.41-11.05.67-1.43,1.74-2.59,2.66-3.84.47-.57.83-1.33.59-2.07-.21-.8-1.09-1.14-1.72-1.52-.82-.49-1.59-1.48-1.83-2.45-.59-3.38-.18-7.13,1.27-10.26.66-1.42,1.83-2.52,2.69-3.79.42-.74.09-1.61-.06-2.38-.31-1.49-.26-3.04-.07-4.54.8-6.64,6.94-13.34,14.01-10.53.82.34,1.69.92,2.28,1.76.99,1.29,3.04-.09,2.2-1.49-1.59-3.12-1.09-7.2.39-10.31,1.25-2.35,3.38-1.71,5.41-.7,2.23.41,1.82-1.98,1.91-3.41.41-3.36.54-7.22,3.26-9.64,1.86-1.38,4.51-.89,6.61-.09.61.23,1.28.92,1.87,1.28.92.56,2.17-.26,1.99-1.33-.05-2.63.55-5.32,2.63-7.13,2.24-1.85,5.33-2.69,8.29-2.92,1.85-.18,3.85.23,5.62-.4.58-.34.91-.99,1.22-1.57,1.36-2.94,3.08-6.08,6.33-7.23,1.63-.59,3.39-.48,5.2-.2,1.45.23,3.01,1.18,3.99,2.33.59.77,1.41,1.86,2.55,1.45,2.13-1.09,4.25-2.47,6.74-2.51,1.84,0,3.78.62,4.99,2.21.57.67,1.23,1.72,1.67,2.62.35.73.99,1.5,1.89,1.23,1.01-.25,1.02-1.39,1.16-2.24.83-3.64,2.85-7.54,6.58-8.9,1.67-.37,3.76-.23,5.43.62,1.03.64,1.55,1.91,2.25,2.89.6.8,1.84.6,2.32-.24.29-.63.47-1.33.69-1.99.78-2.46,1.31-5.19,3.38-6.94,2.08-1.26,4.9-.45,7.13.15,1.66.42,4.19,2.2,5.41.2.56-2.06,1.34-3.99,3.32-5.18,1.68-1.01,3.82-.74,5.72-.15,1.01.31,2.07,1.03,2.95,1.65.52.41,1.14.69,1.79.47,1.08-.25,1-1.51,1.14-2.37.4-3.52,7.41-.5,8.81,1.09.8.94,1.62,2.06,1.72,3.44-.25,1.85,2.29,2.5,2.7.61.52-2.23,2.14-4.1,4.31-4.96,4.32-1.19,10.39.4,12.02,5.03.35.83.5,2.07.5,3.08-.03,1.4,2.05,1.84,2.56.51.5-2.97,3.24-3.41,5.88-3.11,3.1.15,6.45,1.55,8.26,4.24.88,1.24,1.37,2.66,1.4,4.21.06.87-.18,2.39.86,2.86,1.57.81,2.22-1.48,3.65-1.69,3.83-.79,8.16,1.61,9.81,5.2,1.56,2.87.81,6.26,1.67,9.26.24.59.87.81,1.45.94,1.28.35,2.43,1.09,3.48,1.96,1.3,1.11,2.15,2.76,2.23,4.59.22,1.66-.36,3.77.86,5.09.87.53,2.26.37,2.51,1.64.26,3.36-1.02,6.71-2.81,9.5-.63,1.13-2.25,2.09-1.66,3.54.56.96,1.85,1.13,2.6,1.95,1.35,1.09,2.12,2.63,2.99,4.09.61.86,2.11.58,2.34-.46.34-2.95,1.47-6.07,4.36-7.47,3.46-1.1,6.99,1.23,10.22,2.22,1.2.25,1.99-.82,2.74-1.57.82-.76,1.9-1.48,3.12-1.66,4.41-.24,9.23.75,12.64,3.72,1.34,1.11,2.35,2.86,3.55,4.17.55.61,1.39.54,2.11.79,1.36.5,2.2,1.79,3.06,2.89,2.27,2.85,1.5,6.33.54,9.54-.19,1.03.63,1.71,1.51,2.05.85.45,1.42.89,2.08,1.65,1.53,1.81,2.29,4.1,3.25,6.23.2.43.57.74,1.04.8,1.68.19,1.51-1.78,2-2.84.94-1.79,2.76-3.23,4.72-3.84,2.22-.4,4.59-.05,6.53,1.33,1.27,1.11,3.35,2.17,3.99-.19.56-2.93,1.85-4.59,5.06-3.73,3.23.72,5.71,3.32,8.01,5.57.73.74,1.76,1.6,2.88,1.18.89-.52,1.32-1.28,2.33-1.71,3.63-1.54,7.91-.68,11.67.04,1.88.41,3.74,1.07,5.44,2,2.19,1.19,4.13,2.82,5.53,4.92.93,1.07,1.06,3.06,2.61,3.43,2.06-.02,4.01.68,5.33,2.44,3.47,4.18,2.2,9.31,1.08,14.09,0,1.24,1.11,1.84,1.34,3.06.47,2.24.31,4.71-.04,6.97-1.59.2-2.95,1.82-2.56,3.43.9,2.2,3.62,1.01,4.37-.7,4.32.84,3.67,2.23,3.74,5.98,0,1.45,2.13,2.05,2.69.64.52-1.35.95-2.87,2.37-3.55,2.07-.73,4.4.15,5.84,1.84,1.11,1.3,1.72,3.06,1.9,4.81.15,1.04,1.41,1.5,2.22.85.38-.3.51-.81.93-1.07,1.95-1.15,5.78-.51,7.61.79,2.11,1.78,3.57,4.82,3.19,7.65-.26,1.02.54,1.67,1.33,1.67.52,0,1.05-.29,1.26-.96,3.31.54,6.85,2.61,7.92,6,.55,3.18-.18,6.84-2.42,9.34-.45.64-.38,1.4-.04,2.07.3,4.66-.93,9.57-3.93,13.24-1.11,1.23-2.33,2.37-3.97,2.85-1.08.25-2.92.33-2.82,1.89,0,.65.51.97.57,1.67.36,3.75-.67,8.21-4.3,10.12-.91.48-2.17.19-3.06.72-.82.44-.86,1.65-.14,2.2.45.35.78.46,1.26.93,1.77,1.87,1.75,4.69,1.58,7.14,0,.83-.28,1.64-.17,2.47.09,1.06,1.55,1.54,2.27.76,1.16-1.56,3.12-2.33,5.05-2.46,1.59-.01,3.09-.02,4.61.62,1.22.53,2.36,2.34,3.89,1.63.83-.37,1.64-.41,2.6-.35,1.62.13,3.12.19,4.67,1.03,4.26,2.58,4.54,8.22,2.34,12.39-.45,1.06.17,2.09,1.16,2.55.59.38,1.13,1.05,1.56,1.67,2.9,4.22,1.54,14.57-1.08,18.77-2.61-2.38-4.74,2.7-1.44,3.32.28,3.16.08,6.77-2.23,9.26-1.08,1.03-2.61,1.58-4.06,1.91-1.03.21-2.23.03-3.09.72-.88.78-.48,2.18-1,3.17-.58,1.41-1.71,3.46-3.57,3.12-1.58-.04-4.16-1.28-4.85.85-.13.91-.14,1.8-.51,2.68-.15.32-.48,1.09-.94,1.32-1.33.3-2.74-.01-4.12-.38-1.75-.39-2.8-1.92-4.38-2.38-.84-.09-1.24.52-1.99.86-.63.19-1.32.09-1.93-.12-.92-2.55-5-.64-2.66,1.52-.39,2.51-.22,5.44-2.13,7.39-.65.72-2.36,1.05-2.18,2.38.09.83.89,1.14,1.6,1.29.98.29,1.72,1.05,1.75,2.1.07,2.41-.18,4.75-1.32,6.93-.45,1.24-1.99,2.15-2.11,3.51.01.93.95,1.3,1.39,2,.55.78,1.01,2.01,1.24,3.05.61,4.87-.32,11.68-5.55,13.7-1.1.21-2.92.45-2.96,1.94.17,1.48.24,2.91-.31,4.38-1.48,3.18-4.91,5.22-8.29,6.08-2.49.53-5.17-.07-7.54-.97-.96-.24-1.79.36-2.22,1.19-.68.95-1.37,1.97-2.53,2.48-1.31.41-2.77.13-4.02-.55-1.26-.76-2.06-2.23-2.72-3.58-.18-.73-1.07-1.4-1.87-1.09-.53.12-.87.59-.96,1.1-.41,2.63-1.78,2.86-4.14,2.37-2.42-.44-4.24-2.59-4.76-5.03-.06-.29-.11-.57-.15-.85-.17-1.26-1.9-1.55-2.52-.47-.37,1.14-1.16,2.07-2.49,2.01-2.47-.01-5.02-1.61-6.5-3.7-1.44-1.96-2-4.55-3.41-6.52-.58-.76-1.53-1.03-2.44-.72-2.21.23-4.52-.03-6.64-.72-1.7-.58-3.33-1.51-4.5-2.93-.77-1.07-2.1-3-3.48-1.53-.75,1.1-1.65,2.15-2.91,2.67-1.35.56-3.11.21-4.69.34-1.26.03-1.94,1.15-2,2.31-.35,1.62-1,3.13-2.49,4.04-.46.23-.93.46-1.6.55-1.8.13-3.67-.11-5.43-.74-2.87-.88-2.69,1.17-3.11,3.22-.26.87-1.01,1.77-1.75,2.38-1.52,1.34-3.71,1.3-5.67.74-1.07-.28-2.26-1.17-3.09-2-.66-.72-1.97-.75-2.49.15-.24.46-.38.96-.66,1.39-.77,1.16-2.05,2.01-3.43,2.44-1.46.29-3.07.15-4.54-.42-2.28-1.05-3.47-3.63-3.95-6.02-.15-1.04-.08-2.7-1.53-2.72-1.82.07-.78,2.45-2.98,1.76-.87-.14-2.15-.66-2.61-1.57-.69-1.97.35-4.11.09-6.14-.09-.78-.91-1.29-1.64-1.32-2.9,0-2.19-2.38-2.48-4.39-.06-.94-.88-1.6-1.8-1.49-1.7,0-3.19-.82-3.86-2.42-.46-1.19-1.51-2.82-2.72-1.32-.42.79-.8,1.68-1.63,2.14-1.47.49-3.22.32-4.71-.21.64-1.97-1.48-2.85-2.38-1.33-.13-.08-.27-.14-.41-.18Z"/>
    <path class="cls-2" d="M822.9,192.15c-2.02-3.48-6.1-5.24-10-5.41-2.14-.28-4.2,1.09-4.66,3.21-5.59-3.58-12.72-2.08-14.65,4.73-8.39-3.27-13.65-2.69-16.02,6.91-1.52-1.89-4.01-2.49-6.34-2.55-5.32-.37-9.14,4.6-10.69,9.18-3.22-5.03-10.13-4.66-14.63-1.62-2.84-3.71-8.26-4.62-12.52-3.17-4,1.42-6.18,5.25-7.89,8.88-7.31-.31-16.97,1.79-17.7,10.56-9.97-4.15-13.52,3.52-13.87,12.26-6.89-2.45-9.04,6.25-8.61,11.43-11.1-4.25-19.96,8.88-17.28,18.9-2.64,2.82-4.11,6.54-4.29,10.39-.38,3.48-.01,7.64,3.39,9.52-2.99,3.23-4.29,7.52-4.33,11.87-.45,5.57.72,11.53,4.83,15.56-5.3,6.33-7.64,18.85.85,23.52-.71,6.41,1.28,13.87,7.14,17.3-.87,3.2-1.35,6.85-.13,10.02,1.65,3.95,5.63,7.03,10,6.94.28,4.86,3.12,10.72,8.58,10.97.21,1.78.55,3.63,1.61,5.13,1.32,1.78,3.61,2.39,5.78,2.07v1.67c-.06-.02-.13-.03-.21-.03-.94.04-.74,1.19-.84,1.86-.13,4.48-1.8,9.43-5.49,12.25-1.3.81-3.09,1.2-4.61.8-.86-.42-1.94-1.19-2.7-.15-1.36,3.25,1.71,8.03-1.9,10.49-5.24,3.03-6.25-4.25-9-1.48-.62.94-.99,2.07-1.87,2.82-1.49,1.32-3.58,1.02-5.46,1.11-2.53-.26-3.99-2.8-5.42-4.62-2.77-1.84-2.64,3.06-5.11,4.23-.2-1.07-.38-2.13-.55-3.2.92-.76.26-2.34-.95-2.17-2.16.32-1.6,3.11-1.1,5.33-.05-.02-.1-.04-.16-.06-1.83-.75-3.89-2.09-4.74-3.95-.23-.89-1.38-1.3-2.1-.7-.89,1.04-1.81,2.18-3.27,2.37-1.49.39-2.74-.84-4.17-.92-2.1.4-1.72,2.84-1.79,4.92-.03.83-.13,1.61-.49,2.17-.74,1.59-2.32,2.47-4.05,2.44-.89-.1-1.86.12-2.13,1.1-.45,1.89-.22,3.89-.65,5.79-1.39-.7-2.74-2.69-4.47-1.86-1.7,1.67-2.71,4.14-4.77,5.49l-.09-.03h0c-.38-.11-.7.07-.87.35h-.01c-.15.07-.28.16-.39.25-3.12-1.29-6.54-2.07-9.92-2.47-5.29-.22-10.46-1.38-15.49-3.08-3.75-1.46-7.4-3.18-11.27-4.34-5.64-2.02-10.26-6.25-15.49-9.13-7.32-4.16-13.96-9.46-21.4-13.45-.24-2.1-.99-4.18-1.84-6.12.09-.12.15-.28.15-.45,0-.46-.42-.83-.86-.76-2.63.11.04,4.27.12,5.75.09.39.15.79.19,1.19-.17.1-.31.25-.42.43-.35.59-.17,1.41.41,1.77-.14,1.19-.51,2.36-1.08,3.45-3.18-.09-1.24,5.1-1.67,7.07-.01,2.43-2.68,3.31-4.63,3.88-.7.16-1.1.95-.92,1.63.68,1.85,2.89.48,4.12,0,2.79-1.05,3.77-3.04,4-5.37,3,2.27,6.47,3.89,9.53,6.1,4.49,2.78,8.54,6.21,13.3,8.55,2.67,1.53,4.93,3.68,7.84,4.77-8.46-1.23-16.95-.03-25.46-.4-3.65-.44-7.02-2.25-10.77-2.04-.27-.01-.51.06-.7.19-.11-.48-.25-.96-.41-1.43.07-.18.1-.37.07-.56-.06-.42-.37-.79-.79-.9-2.48-.15-.98,3.15-.77,4.51.41,2.52.39,5.11.33,7.66-.72.98-1.05,2.16-1.44,3.33-.35,1.06-.75,2.1-1.54,2.94-.71.75-2.14,1.29-1.42,2.57,1.44,1.86,3.55-.9,4.3-2.2.31-.46.54-.95.73-1.45.25.02.5.03.73.05,1.69.19,3.36-.02,5.03-.23,2.66.13,5.52.82,8.28.81,6.67.56,13.39.12,20.06.76.73-.01,1.45-.02,2.17-.03.07.07.16.14.25.2.56.34,1.3.2,1.75-.23,1.87-.03,3.73-.04,5.59.02.66.36,1.27.82,1.81,1.36.44.4.55.97.64,1.56.82,2.05,3.74.81,5.43,1.55.88.31,1.41.83,1.98,1.6.76.93.91,2.33,1.96,3.02,1.29.59,2.8.26,4.16.59,1.47.33,2.69.85,3.89,1.89,1.21,1.08,2.19,2.51,2.6,4.15.13.53.06,1.12.34,1.61.86,1.15,2.39,1.53,3.39,2.55,1.85,1.6,2.4,4.2,2.34,6.67-.73.3-1.69.43-2,1.29-.27.65-.15,1.46.01,2.11.51,1.92.91,3.86,1.01,5.84-.02,1.32.43,3.4-1.18,4.02-2.23.87-4.78.89-7.29.76-4.84-.97-.94,6.98-3.37,8.94-1.71,1.48-8.01,2.57-9.42.41-.52-.51-1.48-.62-2-.05-1.39,1.99-2.02,4.56-4.02,6.14-.75.59-1.76,1.01-2.88,1.03-1.94.03-2.3-1.95-3.51-2.91-2.21-.94-2.24,2.17-2.5,3.58-.42,1.91-1.22,4.79-3.65,5.01-1.65.21-3.2-.97-4.09-2.35-.64-.87-.93-2.5-2.04-2.99-.8-.37-1.67.04-2.37.45-1.26.76-2.67,1.19-4.15,1.27-3.3.19-7.48-1.98-8.98-5.04.22-.68.2-1.46-.19-2.08-.9-1.45-3.18-.47-2.81,1.18-2.07.61-4.02-1.08-5.38-2.51-2.82-2.89-3.88-6.81-3.63-10.77-.21-1.22-1.49-1.38-2.42-.82-1.09.31-2.28.39-3.39.12-1.47-.44-3.24-1.01-4.47-2.03-1.83-1.64-2.64.79-3.42,2.1-.33.52-.82,1.01-1.44,1.42-.91.52-1.9.75-3.1.83-1.82.09-3.49.16-5.26-.7-1.92-.82-2.82-2.79-3.83-4.47-2.04-2.6-5.03.49-7.18,1.41-7.22,3.42-14.72,1.66-16.17-7-.25-.99-1.34-1.2-2.22-1.09-1.22.05-2.44.08-3.66.04-7.3-.68-11.17-9.24-9.62-15.83.36-1.32,1.28-2.28,2.27-3.15.63-.77.11-1.93-.8-2.17-.88-.21-1.79.04-2.67-.05-.8-1.13-.2-2.44.37-3.57.37-1.46-1.11-2.1-2.33-1.83-1.59.11-3.28.34-4.92-.12-2.17-.84-4.34-2.52-5.41-4.64,0-.4-.11-.79-.4-1.08-1.53-1.01-3.36-1.63-4.71-2.95-4.32-4.11-5.78-10.58-5.43-16.37.43-2.38,2.62-4.36,4.9-5.17,1.38-.39,3.39-.46,3.01-2.46-.71-2.2-1.68-4.36-1.09-6.75,1.26-3.21,3.68-6.69,7.16-7.72.95-.13,2.06-.15,2.48-1.18.5-1.05.32-2.28.5-3.41.27-1.68,1.13-3.33,2.47-4.48.65-.47,1.47-.87,2.41-.89.56-.02,1.01.41,1.58.35.59.02,1.13-.43,1.29-.98.29-1.03-.69-1.73-1.59-1.89-.95-.56-1.88-1.18-2.76-1.86-5.21-4.31-12.67-11.4-9.82-18.83.79-1.37,2.14-2.42,3.56-3.12,1.61-.7,1.13-2.7,1.06-4.11-.13-1.87-.49-3.57-.1-5.47.52-2.2,2.31-4.1,4.49-4.8,1.03-.41,2.13-.49,3.19-.71.73-.26,1.19-.95,1.62-1.56,1-1.47,2.02-2.96,3.4-4.1.78-.82,2.16-1.09,2.89-1.85.52-.67.26-1.71-.54-2.04-.41-.18-.75-.36-1.19-.69-2.87-2.38-3.69-6.45-3.69-10.07.04-1.09.51-2.31,1.25-3.19.37-.43.66-.5,1.1-.93.62-.56.48-1.71-.27-2.1-1.75-.7-3.78-.48-5.62-.91-2.17-.39-4.27-1.63-5.21-3.84-.5-1.04-.72-2.45-.82-3.66-.01-.98-.12-2.17.59-2.94.37-.22.81-.33,1.16-.58,3.1-3.13-7.63-4.63-7.83-15.72-.4-4.19.48-8.51,3.03-11.92.81-1.1,2.97-2.55.96-3.78-1.65-.48-3.33-1.12-4.63-2.35-2.05-1.83-2.99-5.48-.31-7.32,1.28-.99,2.86-1.72,4.36-2.43.54-.24,1.14-.48,1.41-1.05.89-1.78-1.67-2.3-2.61-3.28-.8-.72-1.32-1.72-1.5-2.89-.24-1.26.47-2.52,1.62-3.19.49-.17,1.14-.75,1.07-1.37,0-1.65-2.11-1.55-3.08-2.45-3.24-2.28-4.76-6.56-5.19-10.39-.4-1.77,1.99-1.18,2.74-2.12.63-.63.37-1.57.03-2.28-1.14-1.97-2.38-3.86-2.78-6.17-.24-2.61-1.21-8.97,2.45-9.42.9-.06,1.99-.33,1.98-1.44.05-.65-.42-1.1-.91-1.45-.77-.6-1.45-1.31-1.99-2.12-.94-1.47-1.6-3.46-1.23-5.26.28-.59.53-.94,1.11-1.4,1.66-1.33,4.19-1.51,5.69-3.06.56-.79.31-1.8.03-2.65-1.24-3.93-2.1-8.55-.22-12.41,1.53-2.83,3.97-5.35,7.25-5.98.76-.12,1.85-.17,2.6.23.79.38,1.31,1.32,2.29,1.25,1.83-.35,2.98-2.26,4.85-2.66,2.57-.9,5.03,1.12,6.72,2.94.44.51.72.93,1.13,1.5.29.59.79,1,1.46,1.05,2.01.03,1.92-2.71,2.78-4.03.44-1.2,2.13-2.29,3.23-1.16.63.82.69,2.38,2.08,2.18.91-.1,1.14-1.03,1.37-1.76.27-.62.63-1.23.99-1.81.91-1.3,1.76-2.32,2.99-3.45.59-.5,1.36-1.03,1.38-1.87-.08-2.24-1.74-4.13-2.38-6.25-.79-2.23-.97-4.61-.88-6.96.19-2.59,1.71-6.19,4.91-4.8.72.4,1.99.94,2.75.16.9-.99.78-2.46,1.1-3.69.36-1.59.86-3.2,1.92-4.47,1.58-1.9,4.68-3.11,7.17-2.36.81.25,1.64-.41,1.75-1.21.06-1.01-.76-1.8-1.15-2.67-.85-1.67-1.22-3.51-1.35-5.36-.06-1.98-.28-4.01.65-5.85,1.64-2.41,5.23-1.85,7.81-1.85,1.93-.46,1.49-2.72,2.1-4.2,1.68-4.18,6.64-6.92,11.11-6.17,1.48.5,2.56,1.82,3.25,3.25.63,1.28,1.17,4.21,3.15,2.71.84-.87,1.4-2.08,2.37-2.86.88-.74,1.85-1.21,3.12-1.42,2.27-.47,4.78.09,6.87,1.14,1.49.75,3.15,1.79,3.61,3.62.18,1.08.42,2.54,1.91,2.21.22-.08.4-.18.54-.32.9.25,1.59-1.07.79-1.64.49-2.29,1.06-4.57,1.12-6.92.31-2.23-.42-4.82.14-7.07.74-1.82,2.83-2.53,4.6-2.98.96-.27,2.04-.01,2.9-.57,1.45-1.45.4-3.77.24-5.55-.27-2.67-1.39-6.14.76-8.3,1.47-1.19,3.58-1.3,5.38-1.01,1.34.57,2.58-.07,2.68-1.54.13-4.52,2.83-10.23,8.11-9.71,1.78.19,2.44,2.07,3.81,2.86,1.46.56,2.03-1.12,2.14-2.27.41-2.04,1.05-4.2,2.7-5.59,2.29-1.77,5.74-1.86,8.29-.53,1.33.66,2.51,1.61,3.62,2.64,1.06,1.2,2.64.68,3.03-.81,1.43-7.45,7.71-2.86,10.47,1.01.62.79.91,1.8,1.59,2.52.69.71,2,.38,2.23-.58.39-1.82.06-3.75.76-5.52.94-3.03,4.04-5.88,7.37-4.88.79.29,1.41.68,2.12,1.17,1.23,1.11,2.82,1.34,3.31-.57.67-4.91-.48-9.87-.03-14.78,1.28-4.83,6.68-7.71,11.49-7.01,1.43.16,2.42,1.35,3.74,1.71,2.07.1,1.66-2.73,1.75-4.1.03-1.87-.19-3.81.76-5.54,1.36-2.77,4.79-4.41,7.79-3.64,1.88.63,2.91,2.34,3.89,3.92.73.78,2.14.29,2.26-.77.36-2.46-.31-5.11.8-7.44.66-1.61,2.68-2.14,4.24-1.63,1.46.48,2.39,1.76,3.43,2.81.37.37.92.48,1.39.3.04.46.07.92.08,1.37-.09.6.41,1.15,1.01,1.15,1.42-.08.89-1.76,1.04-2.71,0-1.39-.15-2.78.09-4.21.5-1.95,2.08-6.52,4.69-4.52.78.46,1.41,1.83,2.52,1.72,2.85-.2.31-6.78,3.97-7.65,1.91-.57,4.16-.04,5.11,1.94.21.33.44,1.05.57,1.5.24.97,1.57,1.31,2.26.6,1.3-1.75-1.49-5.82,1.83-6.19,1.71.68,2.82,2.46,3.52,4.09.16.47.29.93.41,1.41.25.98,1.53,1.29,2.23.59.56-.55.5-1.4.69-2.12.34-1.49.68-3.06,1.71-4.24,1.03-1.14,2.59,0,3.39.94,4.83,7.5,5.23-6.54,10.39-2.79-.01,0,.12.1.25.2.14.12.36.34.56.58.32.4.74,1.2.94,1.77.43,1.16.31,3.4,2.14,2.99.59-.16.95-.69.98-1.28.37-1.74-.92-5.45,1.37-5.93.87-.21,1.96-.27,2.87,0,2.87.86,5.4,3.15,5.81,6.27.24.96.04,2.39,1.23,2.72.73.21,1.51-.3,1.72-1.01.4-1.23.65-2.7,2.17-3.01,2.09-.48,4.77.46,5.71,2.5.28.61.5,1.43.6,2.12.09.68.04,1.47.64,1.93,2.6,2.01,3.49-4.38,4.67-5.85.43-.78.86-1.49,1.55-2.08.6-.44,1.11-.46,1.87-.71,2.88-.94,2.41-4.56,3.13-6.93.73-2.66,1.75-5.82,4.37-7.27,1.35-.52,3.25-.84,4.7-.31.71.29,1.24,1.07,1.84,1.55,1.6.86,2.32-.78,2.41-2.13.29-1.43.58-2.77,1.49-3.98,1.3-1.81,4.63-3.49,6.37-1.32.67.75,1.06,1.84,1.67,2.63.64.68,1.91.52,2.25-.38.55-1.36.42-2.94,1.62-4,.93-.46,1.89-.53,2.98-.26,1.85.6,3.37,2.14,4.23,3.93.54.9.53,2.19,1.42,2.82,1.5,1.02,2.47-.97,3.28-1.94.7-.88,1.84-1.56,2.99-1.71,3.93.04,6.36,4.38,7.56,7.68.41,1.22.68,2.49,1.01,3.74.15.59.46,1.19,1.06,1.43.65.27,1.34-.03,1.95-.26,1.32-.32,2.8-.58,4.18-.05,4.57,2.38,3.99,10.27,4.8,14.66.36.86,1.37.97,1.98,1.58.43.49.69.9.95,1.63.56,1.8.54,3.66.68,5.6-.1,1.61.92,3.13,2.52,1.89,1.39-2.23,2.14-4.88,4.54-6.37.02,0,.15-.08.28-.15.13-.08.43-.2.74-.29,1.11-.34,2.57-.3,3.6.57.96.77,1.78,1.85,2.52,2.88.56.86,1.33,1.85,2.47,1.82,1.51.04,2.44-1.16,3.85-1.61,3.52-1.23,7.31.7,9.76,3.28,2.08,2.36,3.09,5.31,3.76,8.36.67,1.79-.02,5.33,2.53,5.58,2.72-.08,5.55-1,8.21-.12,5.66,2.55,6.1,9.88,6.69,15.29,0,3.15,2.06,2.72,4.41,2.94,1.17,2.07.61,4.68,1.11,6.95.07,1.51,1.26,3.21,2.86,2.14,1.83-1.68,2.65-4.23,4.14-6.21.77-1.31,1.98-1.66,3.49-1.12,1.11.4,2.23.96,2.81,2.04.22.42.42,1.13.64,1.61.5,1.16,2.19.97,2.69-.1,1.47-2.77,2.98-6.28,6.38-7,2.71-.27,3.72,3.03,4.53,5.13.78,1.5.43,5.54,2.98,4.82,2.38-1.45,4.29-4.32,7.46-3.94,3.3,1.16,4,5.49,4.53,8.56.34,2.26-.22,6.38,3.47,4.54,4.73-2.92,8.22,2.53,9.07,6.65.27,2.11.96,4.56-.36,6.43-1.35,1.08-.74,3.19,1.09,2.65,1.67-.97,4.07-2.16,5.46-.05,1.83,3,1.59,7.15.72,10.47-.35.92-1.37,1.79-.43,2.74.47.47,1.23.51,1.76.11,1.39-1.24,3.38-1.36,5.16-1.54.9-.03,1.59-.1,2.5.28.53.32,1.01.69,1.39,1.34,1.25,2.19,1.07,4.87,1.45,7.29.14.5.59.9,1.11.97,1.04.25,1.79-.64,2.32-1.42.66-.94,1.33-1.87,2.09-2.74,2.12-2.51,5.76-3.73,8.95-2.78.02.02.12.08.23.12.25.14.5.29.73.46,1.99,1.63,2.85,4.35,3.4,6.8.59,1.76.1,7.78,3.32,5.61,1.15-1.42,1.63-3.3,2.99-4.57,1.26-1.2,3.24-1.11,4.66-.09,2.23,1.27,2.33,4.18,2.16,6.54-.11.86-1.15,2.01-.23,2.83.58.65,1.44.53,2.17.23,1.37-.42,2.66-.71,4.13-.37,5.38,2.14,6.53,8.65,6.42,13.87-2.45,3.86,2.54,6.03,2.65,1.04,3.3-2.2,5.89,1.97,7.23,4.51,1.09,1.94,1.86,4.25,1.97,6.51-.02.56.16,1.19-.07,1.71-.25.2-.44.45-.52.78-.18.78.3,1.54,1.11,1.67,1.41.14,2.82-.04,3.94,1.11,3.68,3.66,5.21,9.24,4.52,14.35-.02.02-.06.2-.11.39-.1.29-.22.56-.36.82-.49.87-1.27,1.46-2.21,2.1-.56.4-1.23.69-1.74,1.16-.99,1.02.07,2.24,1.02,2.79,1.21,1.05,1.86,2.82,2.21,4.38.4,2.33.43,4.71.34,7.06-.08.76-.14,1.62-.74,2.21-1.12.97-2.86.76-4.23,1.07-.81.22-1.26,1.24-.79,1.96.77,1.02,1.91,1.75,2.41,2.99,1.08,2.78,1.38,6.51.53,9.39-.59,1.25-1.89,2.19-3.05,2.98-2.32,1.51-4.57,3.16-7.11,4.27-.98.5-.93,2.03.09,2.43.88.17,1.57.75,1.85,1.6.71,2.65.79,5.95-1.12,8.26-1.46,1.54-3.76,1.52-5.68,2.55-1.51.83-3.11,1.66-4,3.21-.56,1.54-.03,3.2.11,4.77.19,1.62.23,3.25.2,4.87.06,1.02-.77,1.81-1.8,1.94-1.21.25-2.34.27-3.6.31-2.8.31-1.56,4.26-1.95,6.18-.05.33-.1.83-.3,1.29-.22.42-.54.75-.88,1.06-.69.62-1.31,1.2-2.22,1.45-.51.25-.79.62-.89,1.01-1.95-.81-4.01-1.37-6.08-1.68-4.42-.62-9.69-1.34-13.31,1.85-2.12-2-4.15-4.21-6.81-5.51-4.17-2.2-9.42-1.81-10.68,3.47-4.67-3.57-11.69-2.5-14.87,2.51-1.1-2.46-2.69-4.88-5.17-6.12.97-2.92,1.29-6.31-.16-9.12-1.44-2.58-3.46-5.44-6.6-5.86-2.72-4.12-6.81-7.2-11.73-8.05-4.28-.91-8.95-1.03-11.95,2.69-6.77-3.28-13.49-4.25-16.59,4.12-.82-1.06-1.83-1.99-2.95-2.71,2.84-3.57,7.3-13.94.78-15.84.29-5.79-1.86-10.14-7.62-12.01-.13-3.73-.41-7.82-2.83-10.89-2.83-3.72-8.41-6.13-12.87-4.07-.57-5.95-6.39-10.02-12.09-10.19-2.25-.25-4.73-.06-6.54,1.44-2.57-7.75-15.22-10.31-19.97-3.32Z"/>
    <path class="cls-1" d="M643.63,418.88c-.19-.43-.51-.67-.86-.76,0-.22-.01-.44-.03-.66,2.35,1.11,5.22.56,7.1-1.19,1.68,2.14,4.38,3.83,6.98,4.18,1.85,8.42,4.02,16.75,6.5,25,2.1,6.29,3.54,12.92,6.66,18.8,2.51,4.32,4.41,9.08,7.93,12.71,1.69,1.75,3.48,3.06,5.21,4.83,2.33,2.43,4.45,5.06,6.81,7.45,3.84,3.71,7.42,7.66,10.88,11.73,4.51,5.42,9.13,10.74,13.59,16.2,2.87,3.33,4.84,6.99,7.58,10.53,1.46,1.84,2.91,3.7,4.26,5.64,1.83,2.84,3.41,5.83,5.13,8.74.12.2.24.41.36.62-.1,2.35-.15,4.69-.2,7.04-.07,2.2,0,4.35-.16,6.55-.32,3.61-.84,6.96-.76,10.63-.13,5.62-.62,11.28-1.1,16.93-.13,4.03-.46,8.02-.98,12.01-.14,2.72-.26,5.53-.61,8.29-.56-3.32-1.2-6.63-1.98-9.92-1.95-9.05-3.9-18.13-7.33-26.76-1.56-3.96-3.64-7.67-5.62-11.43-2.09-4.91-4.83-9.46-7.58-14.02-4.65-7.82-10.68-14.71-16.13-21.97-2.42-3.45-5.54-6.26-8.52-9.21-4.36-4.72-8.96-9.19-13.44-13.79-2.92-2.91-6.34-5.23-9.44-7.92-2.95-2.88-6.18-5.55-9.34-8.21-5.1-4.24-9.8-9.1-15.07-13.17-4.06-2.96-7.41-6.75-11.41-9.75-4.28-2.65-8.38-5.71-13.19-7.43-5.55-2.73-11.69-3.64-17.77-4.41-2.9-.62-5.84-.83-8.79-.87-1.95-.62-4.12-.73-6-.41-.4.05-.87.23-1.17.53-.12,0-.23.01-.35.01-9.41-.69-18.9-.04-28.25-1.33-2.29-.35-4.61.43-6.88.34.23-.66.49-1.3.87-1.88.35-.89.1-1.89.14-2.83-.02-1.7-.09-3.41-.34-5.09.59.14,1.26.02,1.86.1,1.88.13,3.65.76,5.44,1.28,2.9.95,5.96.74,8.97.76,2.91.02,5.68-.08,8.6-.31,4.34-.16,8.79.44,13.29.75,1.54-.03,5.46.46,4.5-2.19-1.65-1.81-4.28-2.47-6.44-3.53-2.46-1.27-4.53-3.14-6.99-4.41-3.75-1.81-7.03-4.35-10.48-6.64-3.76-2.39-7.61-4.63-11.49-6.81.06-.54-.43-.95-.94-.97-.18-.05-.34-.07-.5-.07-.04-.78-.12-1.57-.2-2.35,1.14-.27,1.56-1.51,1.91-2.49.31-.72.52-1.45.63-2.18,1.11.63,2.21,1.28,3.29,1.95,4.8,2.83,9.17,6.26,13.99,9.08,5.4,2.99,10.32,6.78,15.73,9.75,2.63,1.35,5.35,1.9,8.13,3.05,3.41,1.48,6.83,2.95,10.46,3.83,5.29,1.78,10.88,1.52,16.33,2.6,2.77.54,5.26,2.06,8.06,2.4.2.9.83,1.88,1.88,1.45.35-.16.55-.41.64-.69,1.05.73,2.12,1.44,3.23,2.09,3.84,2.92,7.17,6.45,11.23,9.11,3.55,2.9,6.74,6.17,10.7,8.56.95.63,1.85,1.32,2.73,2.04,3.55,1.4,1.9-4.34,1.4-6.03-1.95-6.64-4.66-13.02-6.89-19.57-2.01-5.3-3.37-11.14-5.77-16.31Z"/>
    <path class="cls-1" d="M780.12,405.42c-.14,2.15.37,4.58,2.54,5.55-.29,1.84-.67,4.06.83,5.41-.04.03-.08.07-.12.11-1.71.83-2.18,3.01-3.04,4.58-1.52,3.69-3.67,7.08-5.15,10.78-5.21,12.13-10.05,24.41-15.3,36.53-2.05,4.9-3.87,9.89-5.83,14.82-2.15,5.17-3.82,10.56-4.31,16.16-1.68,10.56-1.48,21.28-1.64,31.94.01,12.46,0,24.93.25,37.39-.02,5.37-.08,10.7.54,16.04.12.71.77,1.24,1.5,1.14.58-.15.89-.46,1.05-.85.01,0,.01,0,.02,0,1.48.55,1.98-1.25,2.81-2.12,3.87-5.37,8.05-10.53,12.27-15.63,3.2-3.54,6.68-6.83,9.74-10.51,7.08-8.95,14.23-17.94,22.63-25.71,5.25-5.66,10.58-11.24,16.07-16.68,4.5-4.25,9.11-8.37,13.13-13.1,4.38-3.84,8.28-8.1,11.96-12.6,5.17-5.33,9.83-11,14.99-16.37.41.3.87.54,1.34.74.11,2.92,1.86,5.72,4.7,6.68-.09.5-.06,1.02.07,1.53-.9.99-1.91,1.86-2.91,2.75-1.88,1.61-3.75,3.23-5.51,4.97-1.8,1.82-3.87,3.46-5.84,5.18-2.93,3-5.97,5.89-8.77,9.01-4.91,5.48-9.21,11.33-14.25,16.71-4.75,5.08-10.2,9.47-14.75,14.75-3.04,3.76-5.95,7.61-9.29,11.13-3.41,4.13-6.4,8.59-9.76,12.78-4.7,5.97-8.67,12.47-12.87,18.8-3.81,5.99-6.75,12.48-9.85,18.88-8.11,17.21-13.84,35.82-14.94,54.89-.73,10.14.44,20.25.66,30.38.51,5.36,1.21,10.69,1.34,16.08.69,5.78,1.28,11.48,1.56,17.31.05,10.1.61,20.37-1.68,30.27-.6,4.49-1.93,8.76-3.13,13.1-1.7,9.31-2.72,18.72-3.64,28.13-.84,6.73-1.77,13.45-2.27,20.22-.1,4.4-.01,8.81-.03,13.21-.14,6.43.48,12.87,1.93,19.14,1.18,5.02,2.1,10.11,3.08,15.18-.29-.13-.64-.15-.94-.02-.58.25-.88.95-.62,1.53.63,1.61,1.44,3.28,1.34,5.04.01.11.04.22.07.31-2.63-.84-5.24-1.77-7.97-2.24-1.48-.17-2.96.2-4.43.34-2.18.04-4.34-.33-6.51-.32-2.85.06-5.72-.34-8.55.14-1.48.23-2.8.93-4.17,1.5-1.18.39-2.45.18-3.67.27,2.62-5.16,3.92-10.87,4.21-16.63.53-6.39,1.49-12.78,1.94-19.17.31-12.29,1.29-24.56,1.81-36.86.64-7.38,1.78-14.7,2.39-22.09,1.05-9.37,2.21-18.73,3.36-28.09,1.65-9.78,2.62-19.65,3.56-29.52,1.39-16.52,1.48-33.18,1.32-49.78-.4-11.26-1.6-22.46-2.64-33.68-.31-2.48-.62-4.96-.94-7.44.29-.47.36-1.14.33-1.7.08-3.14.05-6.23.17-9.37.39-2.72.66-5.44.75-8.19.25-4.51,1.04-9.12,1.02-13.68.53-6.61,1.06-13.22,1.02-19.88.14-4.54.85-8.95.57-13.55-.14-2.39-.03-4.84-.15-7.24.45-.1.85-.43.99-.92.49-2.66-.42-5.36-.52-8.02-.27-6.63-.07-13.28-.13-19.91.14-4.24-1-8.37-1.68-12.53-.54-3.22-.91-6.47-1.38-9.71-1.12-6.69-1.78-13.47-3.19-20.12-1.53-6.14-2.62-12.38-3.98-18.56-1.18-4.93-2.16-9.89-3.37-14.81-2.35-8.1-4.79-16.18-7.31-24.23-1.89-5.5-3.71-11.37-5.38-17.02-.87-3.48-2.47-6.81-3.09-10.35.24-.16.47-.33.68-.52,1.85.93,3.99,1.62,6.09,1.52.01.26.18.5.56.61,2.38,4.67,3.79,9.76,5.44,14.76,3.88,10.6,7.2,21.4,10.97,32.06,0,.01,0,.02,0,.03.02.05.03.09.05.13,2.67,7.85,5.26,15.8,8.16,23.6,1.32,2.75,2.8,14.34,6.08,14.32.69-.05,1.12-.58,1.45-1.14.75-1.34,1.31-2.67,2.01-4.11,1.53-2.99,2.9-6.07,4.35-9.1,1.47-3.26,3.8-5.99,5.62-9.08,1.13-1.99,1.99-3.85,2.95-6.04,2.93-6.69,7.41-12.44,10.33-19.18,1.91-3.45,3.13-7.4,4.45-11.15,1.23-3.66,3.07-7.06,4.44-10.64.56.69,1.23,1.29,2,1.72Z"/>
    <path class="cls-1" d="M537.08,445.91c.43.55,1.14.69,1.83.75-.19.5-.42.99-.73,1.45-.75,1.3-2.86,4.06-4.3,2.2-.72-1.28.71-1.82,1.42-2.57.79-.84,1.19-1.88,1.54-2.94-.14.37-.08.82.24,1.11Z"/>
    <path class="cls-1" d="M539.66,444.43c-.63-.02-1.25-.11-1.87-.31-.47-.02-.81.29-.95.68.39-1.17.72-2.35,1.44-3.33.06-2.55.08-5.14-.33-7.66-.21-1.36-1.71-4.66.77-4.51.42.11.73.48.79.9.03.19,0,.38-.07.56.16.47.3.95.41,1.43-.66.44-.88,1.49-.24,2.08.21.2.46.3.72.36.25,1.68.32,3.39.34,5.09-.04.94.21,1.94-.14,2.83-.38.58-.64,1.22-.87,1.88Z"/>
    <path class="cls-1" d="M538.91,446.66c-.69-.06-1.4-.2-1.83-.75-.32-.29-.38-.74-.24-1.11.14-.39.48-.7.95-.68.62.2,1.24.29,1.87.31-.25.73-.46,1.5-.75,2.23Z"/>
    <path class="cls-1" d="M539.61,434.27c-.64-.59-.42-1.64.24-2.08.22.8.37,1.62.48,2.44-.26-.06-.51-.16-.72-.36Z"/>
    <path class="cls-1" d="M543.54,414.88c.43-1.97-1.51-7.16,1.67-7.07.57-1.09.94-2.26,1.08-3.45.02.02.04.04.07.05.72.38,1.43.76,2.13,1.16-.11.73-.32,1.46-.63,2.18-.35.98-.77,2.22-1.91,2.49.08.78.16,1.57.2,2.35-1.01.02-1.56,1.09-.69,1.93.21.17.43.34.65.5-.23,2.33-1.21,4.32-4,5.37-1.23.48-3.44,1.85-4.12,0-.18-.68.22-1.47.92-1.63,1.95-.57,4.62-1.45,4.63-3.88Z"/>
    <path class="cls-1" d="M545.46,414.52c-.87-.84-.32-1.91.69-1.93.05.84.05,1.65-.04,2.43-.22-.16-.44-.33-.65-.5Z"/>
    <path class="cls-1" d="M546.29,404.36c-.58-.36-.76-1.18-.41-1.77.11-.18.25-.33.42-.43.08.73.07,1.47,0,2.2Z"/>
    <path class="cls-1" d="M547.7,402.11c.28.15.56.29.84.44.12,1,.12,2.01-.05,3.02-.7-.4-1.41-.78-2.13-1.16-.03-.01-.05-.03-.07-.05.08-.73.09-1.47,0-2.2.41-.27.95-.29,1.4-.05Z"/>
    <path class="cls-1" d="M546.7,396.43c.85,1.94,1.6,4.02,1.84,6.12-.28-.15-.56-.29-.84-.44-.45-.24-.99-.22-1.4.05-.04-.4-.1-.8-.19-1.19-.08-1.48-2.75-5.64-.12-5.75.44-.07.86.3.86.76,0,.17-.06.33-.15.45Z"/>
    <path class="cls-1" d="M559.12,130.86c.51,1.07,1.62,3.34.6,4.3-.02-.01-.04-.01-.06-.02-1.72-.37-1.11-2.43-.85-3.65.06-.27.11-.55.17-.82.05.06.1.12.14.19Z"/>
    <path class="cls-1" d="M573.01,448.05c-6.67-.64-13.39-.2-20.06-.76-2.76.01-5.62-.68-8.28-.81-1.67.21-3.34.42-5.03.23-.23-.02-.48-.03-.73-.05.29-.73.5-1.5.75-2.23,2.27.09,4.59-.69,6.88-.34,9.35,1.29,18.84.64,28.25,1.33.12,0,.23-.01.35-.01-.12.12-.21.25-.27.4-.31.71-.25,1.65.31,2.21-.72,0-1.44.02-2.17.03Z"/>
    <path class="cls-1" d="M582.31,445.29c-2.39-.04-4.78.04-7.17.12.3-.3.77-.48,1.17-.53,1.88-.32,4.05-.21,6,.41Z"/>
    <path class="cls-1" d="M575.18,448.02c.67-.01,1.34-.02,2-.03-.45.43-1.19.57-1.75.23-.09-.06-.18-.13-.25-.2Z"/>
    <path class="cls-1" d="M576.78,434.44c-2.91-1.09-5.17-3.24-7.84-4.77-4.76-2.34-8.81-5.77-13.3-8.55-3.06-2.21-6.53-3.83-9.53-6.1.09-.78.09-1.59.04-2.43.16,0,.32.02.5.07.51.02,1,.43.94.97,3.88,2.18,7.73,4.42,11.49,6.81,3.45,2.29,6.73,4.83,10.48,6.64,2.46,1.27,4.53,3.14,6.99,4.41,2.16,1.06,4.79,1.72,6.44,3.53.96,2.65-2.96,2.16-4.5,2.19-4.5-.31-8.95-.91-13.29-.75-2.92.23-5.69.33-8.6.31-3.01-.02-6.07.19-8.97-.76-1.79-.52-3.56-1.15-5.44-1.28-.6-.08-1.27.04-1.86-.1-.11-.82-.26-1.64-.48-2.44.19-.13.43-.2.7-.19,3.75-.21,7.12,1.6,10.77,2.04,8.51.37,17-.83,25.46.4Z"/>
    <path class="cls-1" d="M582.77,448.01c-1.86-.06-3.72-.05-5.59-.02.27-.24.44-.59.4-1.01,1.8-.21,3.62.14,5.19,1.03Z"/>
    <path class="cls-1" d="M575.14,445.41c2.39-.08,4.78-.16,7.17-.12,1.74.55,3.31,1.51,4.35,2.93-1.3-.12-2.6-.18-3.89-.21-1.57-.89-3.39-1.24-5.19-1.03.04.42-.13.77-.4,1.01-.66.01-1.33.02-2,.03-.56-.56-.62-1.5-.31-2.21.06-.15.15-.28.27-.4Z"/>
    <path class="cls-1" d="M607.96,463.97c3.26,1.65,5.63,4.71,5.9,8.4.31,1.9.3,4.28-1.97,4.83,2.48,10.45,2.02,14.54-9.92,14.07-.06,2.8.67,6.24-1.75,8.28-2.45,2.15-9.01,3.09-11.81,1.36-1.24,2.58-2.93,5.36-5.78,6.35-1.95.75-4.31.61-5.88-.87-1.3,8.48-10.02,9.52-13.46,1.79-5.52,3.46-13.32.95-16.59-4.46-6.75,1.74-12.81-7.9-12.46-13.86-2.91.57-5.87-.5-8.38-1.93-1.79,3.86-6.38,4.61-10.21,4.23-3.74-.21-6.68-2.86-8.21-6.14-8.99,5.78-20.29,6.43-23.71-5.68-7.61,1.1-14.31-4.27-15.59-11.72-.61-3.14-.89-6.67.89-9.49-2.28-.43-2.93-3.32-2.43-5.28-4.91.75-10.04-2.26-11.97-6.8-6.53-2.7-9.83-9.67-10.51-16.37-.2-2.2-.52-4.54.32-6.64,1.22-3.03,4.07-5.32,7.22-6.06-1.58-3.52-1.3-7.69,1.04-10.79,1.94-2.78,4.54-5.64,8.09-6.07.03-3.63,1.55-7.57,4.96-9.24-4.05-3.16-7.78-6.91-10.24-11.43-2.65-5.56-2.45-12.19,3.75-15.11-.01-2.94-.91-5.91.1-8.76,1.22-3.91,5.13-6.29,9.06-6.65,1.52-2.13,2.98-4.39,5.21-5.86-3.91-3.45-5.93-11.48-3.1-16.06-3.68-.23-7.66-1.54-9.46-5.02-1.47-2.96-2.49-7.9.13-10.46-2.31-1.88-4.48-4.03-5.83-6.72-3-6.73-2.61-15.46,2.01-21.36-3.92-1.5-7.19-5.58-6.3-9.93.78-2.95,3.63-4.64,6.22-5.88-2.99-2.08-4.29-6.95-1.5-9.71-3.56-2.06-5.56-5.9-6.56-9.77-.7-2.71-1.3-6.2,2.13-7.17-2.02-3.02-3.06-6.54-2.96-10.17.03-2.91.3-6.76,3.33-8.11-2.28-2.54-3.84-6.69-2.15-9.9,1.39-2.32,4.14-3.1,6.46-4.16-1.6-4.88-2.53-10.66.14-15.33,2.51-4.68,9.23-9.38,14.24-5.64,4.95-4.3,10.04-2.95,13.94,1.88.48-1.24,1.08-2.57,2.14-3.43,1.64-1.32,4.22-1.47,5.78.04,1.15-1.94,2.64-3.67,4.36-5.13-2.02-4.05-3.65-8.39-3.17-13,.25-4.48,3.63-9.1,8.51-7.02.58-5.68,4.07-10.49,10.12-10.77-1.54-3.06-1.75-6.62-1.55-9.99.25-5.73,5.24-7.14,10.15-6.77.75-6.48,7.63-10.97,13.88-10.42,2.85.32,5,2.61,6.09,5.13,4.49-5.67,14.33-4.01,18.3,1.47-.06.27-.11.55-.17.82-.26,1.22-.87,3.28.85,3.65.02.01.04.01.06.02-.14.14-.32.24-.54.32-1.49.33-1.73-1.13-1.91-2.21-.46-1.83-2.12-2.87-3.61-3.62-2.09-1.05-4.6-1.61-6.87-1.14-1.27.21-2.24.68-3.12,1.42-.97.78-1.53,1.99-2.37,2.86-1.98,1.5-2.52-1.43-3.15-2.71-.69-1.43-1.77-2.75-3.25-3.25-4.47-.75-9.43,1.99-11.11,6.17-.61,1.48-.17,3.74-2.1,4.2-2.58,0-6.17-.56-7.81,1.85-.93,1.84-.71,3.87-.65,5.85.13,1.85.5,3.69,1.35,5.36.39.87,1.21,1.66,1.15,2.67-.11.8-.94,1.46-1.75,1.21-2.49-.75-5.59.46-7.17,2.36-1.06,1.27-1.56,2.88-1.92,4.47-.32,1.23-.2,2.7-1.1,3.69-.76.78-2.03.24-2.75-.16-3.2-1.39-4.72,2.21-4.91,4.8-.09,2.35.09,4.73.88,6.96.64,2.12,2.3,4.01,2.38,6.25-.02.84-.79,1.37-1.38,1.87-1.23,1.13-2.08,2.15-2.99,3.45-.36.58-.72,1.19-.99,1.81-.23.73-.46,1.66-1.37,1.76-1.39.2-1.45-1.36-2.08-2.18-1.1-1.13-2.79-.04-3.23,1.16-.86,1.32-.77,4.06-2.78,4.03-.67-.05-1.17-.46-1.46-1.05-.41-.57-.69-.99-1.13-1.5-1.69-1.82-4.15-3.84-6.72-2.94-1.87.4-3.02,2.31-4.85,2.66-.98.07-1.5-.87-2.29-1.25-.75-.4-1.84-.35-2.6-.23-3.28.63-5.72,3.15-7.25,5.98-1.88,3.86-1.02,8.48.22,12.41.28.85.53,1.86-.03,2.65-1.5,1.55-4.03,1.73-5.69,3.06-.58.46-.83.81-1.11,1.4-.37,1.8.29,3.79,1.23,5.26.54.81,1.22,1.52,1.99,2.12.49.35.96.8.91,1.45,0,1.11-1.08,1.38-1.98,1.44-3.66.45-2.69,6.81-2.45,9.42.4,2.31,1.64,4.2,2.78,6.17.34.71.6,1.65-.03,2.28-.75.94-3.14.35-2.74,2.12.43,3.83,1.95,8.11,5.19,10.39.97.9,3.07.8,3.08,2.45.07.62-.58,1.2-1.07,1.37-1.15.67-1.86,1.93-1.62,3.19.18,1.17.7,2.17,1.5,2.89.94.98,3.5,1.5,2.61,3.28-.27.57-.87.81-1.41,1.05-1.5.71-3.08,1.44-4.36,2.43-2.68,1.84-1.74,5.49.31,7.32,1.3,1.23,2.98,1.87,4.63,2.35,2.01,1.23-.15,2.68-.96,3.78-2.55,3.41-3.43,7.73-3.03,11.92.2,11.09,10.93,12.59,7.83,15.72-.35.25-.79.36-1.16.58-.71.77-.6,1.96-.59,2.94.1,1.21.32,2.62.82,3.66.94,2.21,3.04,3.45,5.21,3.84,1.84.43,3.87.21,5.62.91.75.39.89,1.54.27,2.1-.44.43-.73.5-1.1.93-.74.88-1.21,2.1-1.25,3.19,0,3.62.82,7.69,3.69,10.07.44.33.78.51,1.19.69.8.33,1.06,1.37.54,2.04-.73.76-2.11,1.03-2.89,1.85-1.38,1.14-2.4,2.63-3.4,4.1-.43.61-.89,1.3-1.62,1.56-1.06.22-2.16.3-3.19.71-2.18.7-3.97,2.6-4.49,4.8-.39,1.9-.03,3.6.1,5.47.07,1.41.55,3.41-1.06,4.11-1.42.7-2.77,1.75-3.56,3.12-2.85,7.43,4.61,14.52,9.82,18.83.88.68,1.81,1.3,2.76,1.86.9.16,1.88.86,1.59,1.89-.16.55-.7,1-1.29.98-.57.06-1.02-.37-1.58-.35-.94.02-1.76.42-2.41.89-1.34,1.15-2.2,2.8-2.47,4.48-.18,1.13,0,2.36-.5,3.41-.42,1.03-1.53,1.05-2.48,1.18-3.48,1.03-5.9,4.51-7.16,7.72-.59,2.39.38,4.55,1.09,6.75.38,2-1.63,2.07-3.01,2.46-2.28.81-4.47,2.79-4.9,5.17-.35,5.79,1.11,12.26,5.43,16.37,1.35,1.32,3.18,1.94,4.71,2.95.29.29.41.68.4,1.08,1.07,2.12,3.24,3.8,5.41,4.64,1.64.46,3.33.23,4.92.12,1.22-.27,2.7.37,2.33,1.83-.57,1.13-1.17,2.44-.37,3.57.88.09,1.79-.16,2.67.05.91.24,1.43,1.4.8,2.17-.99.87-1.91,1.83-2.27,3.15-1.55,6.59,2.32,15.15,9.62,15.83,1.22.04,2.44.01,3.66-.04.88-.11,1.97.1,2.22,1.09,1.45,8.66,8.95,10.42,16.17,7,2.15-.92,5.14-4.01,7.18-1.41,1.01,1.68,1.91,3.65,3.83,4.47,1.77.86,3.44.79,5.26.7,1.2-.08,2.19-.31,3.1-.83.62-.41,1.11-.9,1.44-1.42.78-1.31,1.59-3.74,3.42-2.1,1.23,1.02,3,1.59,4.47,2.03,1.11.27,2.3.19,3.39-.12.93-.56,2.21-.4,2.42.82-.25,3.96.81,7.88,3.63,10.77,1.36,1.43,3.31,3.12,5.38,2.51-.37-1.65,1.91-2.63,2.81-1.18.39.62.41,1.4.19,2.08,1.5,3.06,5.68,5.23,8.98,5.04,1.48-.08,2.89-.51,4.15-1.27.7-.41,1.57-.82,2.37-.45,1.11.49,1.4,2.12,2.04,2.99.89,1.38,2.44,2.56,4.09,2.35,2.43-.22,3.23-3.1,3.65-5.01.26-1.41.29-4.52,2.5-3.58,1.21.96,1.57,2.94,3.51,2.91,1.12-.02,2.13-.44,2.88-1.03,2-1.58,2.63-4.15,4.02-6.14.52-.57,1.48-.46,2,.05,1.41,2.16,7.71,1.07,9.42-.41,2.43-1.96-1.47-9.91,3.37-8.94,2.51.13,5.06.11,7.29-.76,1.61-.62,1.16-2.7,1.18-4.02-.1-1.98-.5-3.92-1.01-5.84-.16-.65-.28-1.46-.01-2.11.31-.86,1.27-.99,2-1.29.06-2.47-.49-5.07-2.34-6.67-1-1.02-2.53-1.4-3.39-2.55-.28-.49-.21-1.08-.34-1.61-.41-1.64-1.39-3.07-2.6-4.15-1.2-1.04-2.42-1.56-3.89-1.89-1.36-.33-2.87,0-4.16-.59-1.05-.69-1.2-2.09-1.96-3.02-.57-.77-1.1-1.29-1.98-1.6-1.69-.74-4.61.5-5.43-1.55-.09-.59-.2-1.16-.64-1.56-.54-.54-1.15-1-1.81-1.36,1.29.03,2.59.09,3.89.21.32.42.59.88.8,1.38,4.1-.23,6.95,1.33,8.54,5.19,5.57-.18,11.17,3.41,11.96,9.18Z"/>
    <path class="cls-1" d="M624.27,437.01c-2.25.95-3.13-1.06-2.16-1.99.1.03.19.07.28.12-.03.28.08.58.38.75.5.37,1,.75,1.5,1.12Z"/>
    <path class="cls-1" d="M622.39,435.14c-.09-.05-.18-.09-.28-.12.11-.09.24-.18.39-.24-.06.11-.1.23-.11.36Z"/>
    <path class="cls-1" d="M622.78,435.3c.94.43,2.06.34,2.97.78-.54.45-1.04.75-1.48.93-.5-.37-1-.75-1.5-1.12-.3-.17-.41-.47-.38-.75.13.05.26.1.39.16Z"/>
    <path class="cls-1" d="M623.21,434.61c-.27.01-.5.07-.7.16.17-.28.49-.46.87-.34h0s.06,0,.09.02c-.08.05-.17.11-.26.16Z"/>
    <path class="cls-1" d="M623.47,434.45c.9.25,1.67.9,2.45,1.48-.05.06-.11.1-.17.15-.91-.44-2.03-.35-2.97-.78-.13-.06-.26-.11-.39-.16.01-.13.05-.25.11-.36h.01c.2-.1.43-.16.7-.17.09-.05.18-.11.26-.16Z"/>
    <path class="cls-1" d="M627,438.99c-.92-.64-1.83-1.31-2.73-1.98.44-.18.94-.48,1.48-.93.13.07.25.14.37.22.54.63,1.18,1.85.88,2.69Z"/>
    <path class="cls-1" d="M622.11,435.02c-.97.93-.09,2.94,2.16,1.99.9.67,1.81,1.34,2.73,1.98-.09.28-.29.53-.64.69-1.05.43-1.68-.55-1.88-1.45-2.8-.34-5.29-1.86-8.06-2.4-5.45-1.08-11.04-.82-16.33-2.6-3.63-.88-7.05-2.35-10.46-3.83-2.78-1.15-5.5-1.7-8.13-3.05-5.41-2.97-10.33-6.76-15.73-9.75-4.82-2.82-9.19-6.25-13.99-9.08-1.08-.67-2.18-1.32-3.29-1.95.17-1.01.17-2.02.05-3.02,7.44,3.99,14.08,9.29,21.4,13.45,5.23,2.88,9.85,7.11,15.49,9.13,3.87,1.16,7.52,2.88,11.27,4.34,5.03,1.7,10.2,2.86,15.49,3.08,3.38.4,6.8,1.18,9.92,2.47Z"/>
    <path class="cls-1" d="M635.49,423.93c1.73.03,3.31-.85,4.05-2.44.36-.56.46-1.34.49-2.17l1.03.05c0,.17.03.35.11.54.38.68.69,1.39.97,2.11-.98,2.59-3.11,4.53-6.34,4.56-.15,4.97-.71,9.82-6.43,5.15-1.29,2.01-2.45,3.35-3.45,4.2-.78-.58-1.55-1.23-2.45-1.48,2.06-1.35,3.07-3.82,4.77-5.49,1.73-.83,3.08,1.16,4.47,1.86.43-1.9.2-3.9.65-5.79.27-.98,1.24-1.2,2.13-1.1Z"/>
    <path class="cls-1" d="M641.17,419.91c-.08-.19-.11-.37-.11-.54,0-.88.93-1.46,1.71-1.25.04,1.36-.17,2.7-.63,3.9-.28-.72-.59-1.43-.97-2.11Z"/>
    <path class="cls-1" d="M645.99,415.32c1.46-.19,2.38-1.33,3.27-2.37.72-.6,1.87-.19,2.1.7.85,1.86,2.91,3.2,4.74,3.95.06.02.11.04.16.06.16.75.32,1.42.37,1.93.06.29.13.57.19.86-2.6-.35-5.3-2.04-6.98-4.18-1.88,1.75-4.75,2.3-7.1,1.19.02.22.03.44.03.66-.78-.21-1.71.37-1.71,1.25l-1.03-.05c.07-2.08-.31-4.52,1.79-4.92,1.43.08,2.68,1.31,4.17.92Z"/>
    <path class="cls-1" d="M643.63,418.88c2.4,5.17,3.76,11.01,5.77,16.31,2.23,6.55,4.94,12.93,6.89,19.57.5,1.69,2.15,7.43-1.4,6.03-.88-.72-1.78-1.41-2.73-2.04-3.96-2.39-7.15-5.66-10.7-8.56-4.06-2.66-7.39-6.19-11.23-9.11-1.11-.65-2.18-1.36-3.23-2.09.3-.84-.34-2.06-.88-2.69-.12-.08-.24-.15-.37-.22.06-.05.12-.09.17-.15.26.19.53.38.8.54,3.54,2.1,7.09,4.19,10,7.11,1.81,1.67,3.8,2.9,5.75,4.31,2.02,1.52,3.96,3.24,5.82,4.89,1.82,1.58,3.86,2.88,5.87,4.21-3.26-11.17-7.95-21.84-11.3-32.94-.23-.68-.46-1.36-.72-2.03.46-1.2.67-2.54.63-3.9.35.09.67.33.86.76Z"/>
    <path class="cls-1" d="M656.26,417.66c-.5-2.22-1.06-5.01,1.1-5.33,1.21-.17,1.87,1.41.95,2.17.17,1.07.35,2.13.55,3.2-.65.31-1.48.36-2.6-.04Z"/>
    <path class="cls-1" d="M656.26,417.66c1.12.4,1.95.35,2.6.04.16.87.33,1.74.51,2.61-.82.22-1.68.26-2.55.14-.06-.29-.13-.57-.19-.86-.05-.51-.21-1.18-.37-1.93Z"/>
    <path class="cls-1" d="M667,45.12c-.28-4.92,3.27-9.24,8.42-7.6,1.56.49,2.72,1.6,3.81,2.76.01.95.1,1.91.16,2.87-.47.18-1.02.07-1.39-.3-1.04-1.05-1.97-2.33-3.43-2.81-1.56-.51-3.58.02-4.24,1.63-1.11,2.33-.44,4.98-.8,7.44-.12,1.06-1.53,1.55-2.26.77-.98-1.58-2.01-3.29-3.89-3.92-3-.77-6.43.87-7.79,3.64-.95,1.73-.73,3.67-.76,5.54-.09,1.37.32,4.2-1.75,4.1-1.32-.36-2.31-1.55-3.74-1.71-4.81-.7-10.21,2.18-11.49,7.01-.45,4.91.7,9.87.03,14.78-.49,1.91-2.08,1.68-3.31.57-.71-.49-1.33-.88-2.12-1.17-3.33-1-6.43,1.85-7.37,4.88-.7,1.77-.37,3.7-.76,5.52-.23.96-1.54,1.29-2.23.58-.68-.72-.97-1.73-1.59-2.52-2.76-3.87-9.04-8.46-10.47-1.01-.39,1.49-1.97,2.01-3.03.81-1.11-1.03-2.29-1.98-3.62-2.64-2.55-1.33-6-1.24-8.29.53-1.65,1.39-2.29,3.55-2.7,5.59-.11,1.15-.68,2.83-2.14,2.27-1.37-.79-2.03-2.67-3.81-2.86-5.28-.52-7.98,5.19-8.11,9.71-.1,1.47-1.34,2.11-2.68,1.54-1.8-.29-3.91-.18-5.38,1.01-2.15,2.16-1.03,5.63-.76,8.3.16,1.78,1.21,4.1-.24,5.55-.86.56-1.94.3-2.9.57-1.77.45-3.86,1.16-4.6,2.98-.56,2.25.17,4.84-.14,7.07-.06,2.35-.63,4.63-1.12,6.92.8.57.11,1.89-.79,1.64,1.02-.96-.09-3.23-.6-4.3-.04-.07-.09-.13-.14-.19.18-.97.34-1.94.39-2.92.41-3.03-.67-6.16.19-9.1,1.22-3.11,4.79-4.42,7.88-4.78-.33-2.99-1.16-5.94-.99-8.98-.02-4.9,5.04-7.22,9.36-6.41.26-2.78,1.06-5.6,2.87-7.77,2.62-3.26,7.99-5.04,11.36-1.9,1.57-8.85,11.89-10.33,17.83-4.62,2.49-8.03,10.49-4.31,14.18.63.63-6.17,7.62-11.65,13.32-7.58.41-4.74-1.03-9.62.15-14.27,2.31-6.28,10.46-10.16,16.63-7.25-.24-4.01.43-8.41,4.03-10.8,3.17-2.18,7.92-2.7,10.82.2Z"/>
    <path class="cls-1" d="M679.23,40.28c.22.23.44.46.65.69.52.51.51,1.37,0,1.88-.14.14-.31.25-.49.3-.06-.96-.15-1.92-.16-2.87Z"/>
    <path class="cls-1" d="M701.48,392.85c0,.54.27.9.64,1.09,0,.22,0,.41.02.55-.51,6.32-4.87,14.63-12.31,13.2.36,3.21.85,7.04-1.83,9.43-2.66,2.55-7.25,2.43-9.72-.35-1.71,3.79-6.16,4.28-9.83,3.88-2.22-.42-3.94-2.19-5.34-3.84-.87,1.99-2.21,3.08-3.74,3.5-.18-.87-.35-1.74-.51-2.61,2.47-1.17,2.34-6.07,5.11-4.23,1.43,1.82,2.89,4.36,5.42,4.62,1.88-.09,3.97.21,5.46-1.11.88-.75,1.25-1.88,1.87-2.82,2.75-2.77,3.76,4.51,9,1.48,3.61-2.46.54-7.24,1.9-10.49.76-1.04,1.84-.27,2.7.15,1.52.4,3.31,0,4.61-.8,3.69-2.82,5.36-7.77,5.49-12.25.1-.67-.1-1.82.84-1.86.08,0,.15.01.21.03,0,.81,0,1.62,0,2.43Z"/>
    <path class="cls-1" d="M701.47,388.75c0-.9,0-1.79,0-2.69.11-.02.22-.05.32-.08-.3.69-.16,1.71.09,2.7-.14.03-.28.05-.42.07Z"/>
    <path class="cls-1" d="M701.48,392.85c0-.81,0-1.62,0-2.43.84.29.67,2.35.65,3.52-.37-.19-.64-.55-.64-1.09Z"/>
    <path class="cls-1" d="M701.8,385.98h0,0Z"/>
    <path class="cls-1" d="M701.81,385.97c.17-.38.48-.65.98-.76.14-.02.29-.02.44.02-.43.35-.91.59-1.42.74Z"/>
    <path class="cls-1" d="M701.89,388.68c.22.86.51,1.7.65,2.26.33.97.65,1.94.96,2.92-.4.27-.95.3-1.38.08.02-1.17.19-3.23-.65-3.52v-1.67c.14-.02.28-.04.42-.07Z"/>
    <path class="cls-1" d="M701.81,385.97c.51-.15.99-.39,1.42-.74.24.05.47.16.66.34.02.08.03.17.03.26.01.71.01,1.41.01,2.12-.63.34-1.32.59-2.04.73-.25-.99-.39-2.01-.09-2.7,0,0,0,0,0-.01Z"/>
    <path class="cls-1" d="M702.79,385.21c-.5.11-.81.38-.98.76h0c-.1.04-.21.07-.32.09v-.23c0-.66.56-1.22,1.22-1.22.33,0,.63.14.85.35-.1.1-.21.19-.32.27-.15-.04-.3-.04-.44-.02Z"/>
    <path class="cls-1" d="M702.54,390.94c-.14-.56-.43-1.4-.65-2.26.72-.14,1.41-.39,2.04-.73,0,1.63,0,3.27.07,4.9,0,.48-.21.81-.5,1.01-.31-.98-.63-1.95-.96-2.92Z"/>
    <path class="cls-1" d="M703.23,385.23c.11-.08.22-.17.32-.27.17.17.29.38.34.61-.19-.18-.42-.29-.66-.34Z"/>
    <path class="cls-1" d="M703.92,385.83c0-.09-.01-.18-.03-.26.22.19.37.47.4.78.05.43.11.86.19,1.28-.17.12-.36.23-.55.32,0-.71,0-1.41-.01-2.12Z"/>
    <path class="cls-1" d="M711.76,860.31s.01-.02.02-.03c.04-.02.09-.03.13-.05-.04.03-.09.05-.15.08Z"/>
    <path class="cls-1" d="M711.25,388.63c-.07-.61.67-1.35,1.38-.89.74.4,1.04,1.31,1.41,2.01.06.11.11.22.16.34-.46-.51-.83-1.1-1.1-1.76-.61.18-1.23.28-1.85.3Z"/>
    <path class="cls-1" d="M727,616.6c-.77-7.5-2.15-14.91-3.76-22.28-1.99-9.12-3.96-18.34-7.57-26.97-1.37-3.3-3.1-6.43-4.78-9.58-2.81-6.26-6.31-12.15-9.97-17.95-5.01-7.1-10.48-13.89-15.78-20.75-6.17-6.47-12.54-12.76-18.75-19.19-3.4-3.61-7.63-6.25-11.22-9.64-3.24-3.13-6.78-5.92-10.21-8.84-4.99-4.51-9.88-9.11-15.21-13.23-3-2.28-5.56-5.06-8.46-7.45-4.44-2.83-8.64-5.97-13.6-7.76-4.89-2.36-10.18-3.28-15.47-3.97-1.86-.38-3.71-.63-5.56-.77-1.04-1.42-2.61-2.38-4.35-2.93,2.95.04,5.89.25,8.79.87,6.08.77,12.22,1.68,17.77,4.41,4.81,1.72,8.91,4.78,13.19,7.43,4,3,7.35,6.79,11.41,9.75,5.27,4.07,9.97,8.93,15.07,13.17,3.16,2.66,6.39,5.33,9.34,8.21,3.1,2.69,6.52,5.01,9.44,7.92,4.48,4.6,9.08,9.07,13.44,13.79,2.98,2.95,6.1,5.76,8.52,9.21,5.45,7.26,11.48,14.15,16.13,21.97,2.75,4.56,5.49,9.11,7.58,14.02,1.98,3.76,4.06,7.47,5.62,11.43,3.43,8.63,5.38,17.71,7.33,26.76.78,3.29,1.42,6.6,1.98,9.92-.06.5-.13.99-.21,1.48-.32,3.57.01,7.22-.32,10.8,0,.04,0,.09,0,.13l-.38.04Z"/>
    <path class="cls-1" d="M727.92,604.15c.74,4.41,1.34,8.83,1.89,13.27-.22.35-.55.58-1.07.58-.79,0-1.36-.69-1.36-1.44,0-.04,0-.09,0-.13.33-3.58,0-7.23.32-10.8.08-.49.15-.98.21-1.48Z"/>
    <path class="cls-1" d="M730.61,566.92c-.08-3.67.44-7.02.76-10.63.16-2.2.09-4.35.16-6.55.05-2.35.1-4.69.2-7.04.13.23.27.45.44.65.33.45.87.58,1.35.46.12,2.4,0,4.85.15,7.24.28,4.6-.43,9.01-.57,13.55.04,6.66-.49,13.27-1.02,19.88.02,4.56-.77,9.17-1.02,13.68-.09,2.75-.36,5.47-.75,8.19-.12,3.14-.09,6.23-.17,9.37.03.56-.04,1.23-.33,1.7-.55-4.44-1.15-8.86-1.89-13.27.35-2.76.47-5.57.61-8.29.52-3.99.85-7.98.98-12.01.48-5.65.97-11.31,1.1-16.93Z"/>
    <path class="cls-1" d="M732.94,539.56c.34,1.38.5,2.81.58,4.25-.48.12-1.02-.01-1.35-.46-.17-.2-.31-.42-.44-.65.03-.69.07-1.37.11-2.06.05-.37.03-.75.2-1.08.16-.4.73-.38.9,0Z"/>
    <path class="cls-1" d="M733.86,514.96c.06,6.63-.14,13.28.13,19.91.1,2.66,1.01,5.36.52,8.02-.14.49-.54.82-.99.92-.08-1.44-.24-2.87-.58-4.25-.17-.38-.74-.4-.9,0-.17.33-.15.71-.2,1.08-.04.69-.08,1.37-.11,2.06-.12-.21-.24-.42-.36-.62-1.72-2.91-3.3-5.9-5.13-8.74-1.35-1.94-2.8-3.8-4.26-5.64-2.74-3.54-4.71-7.2-7.58-10.53-4.46-5.46-9.08-10.78-13.59-16.2-3.46-4.07-7.04-8.02-10.88-11.73-2.36-2.39-4.48-5.02-6.81-7.45-1.73-1.77-3.52-3.08-5.21-4.83-3.52-3.63-5.42-8.39-7.93-12.71-3.12-5.88-4.56-12.51-6.66-18.8-2.48-8.25-4.65-16.58-6.5-25,.87.12,1.73.08,2.55-.14,1.56,7.56,3.77,15.01,5.87,22.43,1.93,6.21,3.67,12.51,6.14,18.53,1.52,2.8,3.05,5.59,4.56,8.4,2.1,4.32,5.89,7.22,9.27,10.46,3.41,3.75,6.77,7.54,10.43,11.06,4.63,4.85,8.86,10.05,13.18,15.17,4.45,5.3,9.17,10.48,12.85,16.36,3.32,4.73,7.19,9.08,9.84,14.26-.7-8.14-.09-16.34-.36-24.5-.57-5.39-2-10.65-2.54-16.05-1.03-7.11-2.02-14.24-3.18-21.33-1.26-5.55-2.53-11.14-3.59-16.72-2.19-9.9-4.19-19.84-7.45-29.46-2.79-9.83-6.18-19.46-9.1-29.24-.57-1.95-1.17-3.89-1.79-5.82.29-.2.5-.53.5-1.01-.07-1.63-.07-3.27-.07-4.9.19-.09.38-.2.55-.32.62,3.54,2.22,6.87,3.09,10.35,1.67,5.65,3.49,11.52,5.38,17.02,2.52,8.05,4.96,16.13,7.31,24.23,1.21,4.92,2.19,9.88,3.37,14.81,1.36,6.18,2.45,12.42,3.98,18.56,1.41,6.65,2.07,13.43,3.19,20.12.47,3.24.84,6.49,1.38,9.71.68,4.16,1.82,8.29,1.68,12.53Z"/>
    <path class="cls-1" d="M751.75,861.5c-.55.42-1.4.32-1.65-.51.55.18,1.1.35,1.65.51Z"/>
    <path class="cls-1" d="M751.44,585.02c-1.17-.62-.84-1.83-.11-2.67.13.92.38,1.94.11,2.67Z"/>
    <path class="cls-1" d="M750.84,854.73c.63,1.66,1.32,3.36,1.39,5.15-.3.2-.75.08-.89-.27-.38-1.82-.74-3.65-1.09-5.48.26.11.48.32.59.6Z"/>
    <path class="cls-1" d="M751.34,859.61c.14.35.59.47.89.27.01.12.01.23.01.35.08.58-.15,1.03-.49,1.27-.55-.16-1.1-.33-1.65-.51-.03-.09-.06-.2-.07-.31.1-1.76-.71-3.43-1.34-5.04-.26-.58.04-1.28.62-1.53.3-.13.65-.11.94.02.35,1.83.71,3.66,1.09,5.48Z"/>
    <path class="cls-1" d="M761.96,863.85c-3.39.24-6.82,1.18-10.21.43-3.25-.93-6.48-2.19-9.8-2.88-1.84-.14-3.41.48-5.22.35-4.11-.27-8.02-.43-12.07-.39-2.53-.06-4.36,1.54-6.74,1.9-1.46.11-3.15.01-4.57.22-1.55.3-3.06.99-4.68.84-1.31.18-2.4-1.24-1.4-2.33,1.35-.85,3.01-1.13,4.51-1.71,0,.01,0,.02-.02.03.06-.03.11-.05.15-.08-.04.02-.09.03-.13.05,3.03-4.34,4.06-10.4,4.52-15.58.34-4.43.95-8.84,1.3-13.28.53-3.36.77-6.43.72-9.76.17-4.82.71-9.51.7-14.31.12-5.25.86-10.35.88-15.55.17-6.41,1.22-12.77,1.89-19.15,1.17-11.83,2.66-23.62,4.11-35.42,1.81-10.67,2.8-21.61,3.81-32.35,1.04-15.83,1.22-31.67.99-47.53-.75-13.13-1.79-26.26-3.54-39.25-.05-.5-.1-1-.16-1.5l.38-.04c0,.75.57,1.44,1.36,1.44.52,0,.85-.23,1.07-.58.32,2.48.63,4.96.94,7.44,1.04,11.22,2.24,22.42,2.64,33.68.16,16.6.07,33.26-1.32,49.78-.94,9.87-1.91,19.74-3.56,29.52-1.15,9.36-2.31,18.72-3.36,28.09-.61,7.39-1.75,14.71-2.39,22.09-.52,12.3-1.5,24.57-1.81,36.86-.45,6.39-1.41,12.78-1.94,19.17-.29,5.76-1.59,11.47-4.21,16.63,1.22-.09,2.49.12,3.67-.27,1.37-.57,2.69-1.27,4.17-1.5,2.83-.48,5.7-.08,8.55-.14,2.17-.01,4.33.36,6.51.32,1.47-.14,2.95-.51,4.43-.34,2.73.47,5.34,1.4,7.97,2.24.25.83,1.1.93,1.65.51.27.08.55.16.82.24,4.04.57,8.04-.82,12.11-.65.74-.09,1.46.36,1.56,1.13.07,2.26-2.85,1.34-4.28,1.63Z"/>
    <path class="cls-1" d="M756.64,410.6c1.6,1.08,4.34,1.82,6,.73.98-1.47,2.39-1.19,3.88-.86,1.32.43,3.9-.42,4.47,1.1.02.14.05.28.09.41,0,.01.01.02.01.04,0,.71-.61,1.36-1.33,1.34-1.65-.06-3.3-.13-4.92-.49-2.88,3.12-8.75,1.47-11.21-1.47-3.32,3.17-9.15,2.11-11.66-1.56-7.89,2.35-13.69-3.7-13.9-11.38-3.1.03-6-2.86-6.49-5.84-2.68.3-5.62-.52-7.38-2.53-.05-.12-.1-.23-.16-.34-.37-.7-.67-1.61-1.41-2.01-.71-.46-1.45.28-1.38.89-2.1.1-4.24-.59-6.09-1.52-.21.19-.44.36-.68.52-.08-.42-.14-.85-.19-1.28-.03-.31-.18-.59-.4-.78-.05-.23-.17-.44-.34-.61.07-.06.14-.12.2-.19,1.39-1.2,3.06.37,4.47.76,1.02.32,2.31.49,3.34.44.91.03,1.33-.99,2.2-.99,1.44-.01,1.43,1.82,1.97,2.68.52.87,1.2,1.44,2.04,1.85,1.2.44,2.53.58,3.78.41.4-.08.64-.4,1.03-.52.5-.17,1.1.07,1.41.47.63.99-.17,2.3.52,3.34.75,1.21,1.95,2.6,3.45,2.56.34-.19.65-.4,1.05-.4,2.47.25,1.4,3.67,2.05,5.35.39,1.84,1.22,3.82,2.56,5,1.8,1.69,4.57,2.27,6.9,1.79,2.35-1.12,2.97.02,4.41,1.67.5.5.99.76,1.51,1,1.05.38,2.02.45,3.01.4.36-.05.71-.15.89-.22.15-.07.31-.14.31-.13.55-.26,1.08-.61,1.43-1.12,1.44-2.67,3.28.46,4.56,1.49Z"/>
    <path class="cls-1" d="M770.99,411.57c.04.12.08.25.09.41-.04-.13-.07-.27-.09-.41Z"/>
    <path class="cls-1" d="M771.63,412.34c.11-.3.22-.59.34-.89-.04.27-.07.53-.18.77-.06.05-.11.1-.16.12Z"/>
    <path class="cls-1" d="M770.9,410.72c-.06-.66.48-1.09.89-1.53.24-.47.81-.69,1.27-.47-.31.72-.6,1.45-.88,2.17-.03.02-.07.03-.1.05-.06.17-.09.34-.11.51-.12.3-.23.59-.34.89-.27.17-.44-.02-.54-.32,0-.02-.01-.03-.01-.04-.01-.16-.05-.29-.09-.41-.06-.34-.07-.68-.09-.85Z"/>
    <path class="cls-1" d="M772.18,410.89c.28-.72.57-1.45.88-2.17.08.04.17.1.24.17.8.91-.36,1.6-1.12,2Z"/>
    <path class="cls-1" d="M773.06,408.72c.5-1.21,1.03-2.42,1.61-3.6.62-1.37,1.13-2.71,1.59-4.1.06-.19.15-.36.28-.5.3,1.16.85,2.26,1.58,3.18-1.37,3.58-3.21,6.98-4.44,10.64-1.32,3.75-2.54,7.7-4.45,11.15-2.92,6.74-7.4,12.49-10.33,19.18-.96,2.19-1.82,4.05-2.95,6.04-1.82,3.09-4.15,5.82-5.62,9.08-1.45,3.03-2.82,6.11-4.35,9.1-.7,1.44-1.26,2.77-2.01,4.11-.33.56-.76,1.09-1.45,1.14-3.28.02-4.76-11.57-6.08-14.32-2.9-7.8-5.49-15.75-8.16-23.6-.02-.04-.03-.08-.05-.13,0-.01,0-.02,0-.03-3.77-10.66-7.09-21.46-10.97-32.06-1.65-5-3.06-10.09-5.44-14.76-.38-.11-.55-.35-.56-.61.62-.02,1.24-.12,1.85-.3.27.66.64,1.25,1.1,1.76,2.04,4.2,3.52,8.68,5.01,13.07,2.83,7.43,5.49,15.04,8,22.54h0c.02.05.03.08.04.12,3.87,10.75,7.35,21.53,11.34,32.23,1.55,3.98,2.13,8.28,3.8,12.23,2.36-4.71,4.42-9.61,6.92-14.24,1.69-2.92,3.73-5.23,5.16-8.19,1.72-3.34,3-6.86,4.9-10.11,2.07-3.34,4.2-6.63,5.87-10.18,2.73-4.82,4.45-10.07,6.39-15.22.05-.02.1-.07.16-.12.11-.24.14-.5.18-.77.06-.18.14-.37.21-.56.76-.4,1.92-1.09,1.12-2-.07-.07-.16-.13-.24-.17Z"/>
    <path class="cls-1" d="M776.54,400.52c.32-.38.83-.58,1.35-.43.68.18,1.16.95.93,1.64-.21.66-.45,1.32-.7,1.97-.73-.92-1.28-2.02-1.58-3.18Z"/>
    <path class="cls-1" d="M780.33,421.07c.86-1.57,1.33-3.75,3.04-4.58.04-.04.08-.08.12-.11.13.12.27.23.43.33-.14.69-.23,1.39-.24,2.05-1.62,2.83-2.53,6.17-4.09,9-3.98,8.51-7.27,17.31-10.71,26.06-3.41,8.13-7.02,16.18-10.09,24.46-1.94,5.26-4.35,10.4-5.58,15.9-1.61,8.44-2.14,16.98-2.28,25.56-.37,14.18-.09,28.39-.05,42.58.41,6.37-.22,12.77.41,19.13-.02.28,0,.58.04.9-.73.84-1.06,2.05.11,2.67-.16.39-.47.7-1.05.85-.73.1-1.38-.43-1.5-1.14-.62-5.34-.56-10.67-.54-16.04-.25-12.46-.24-24.93-.25-37.39.16-10.66-.04-21.38,1.64-31.94.49-5.6,2.16-10.99,4.31-16.16,1.96-4.93,3.78-9.92,5.83-14.82,5.25-12.12,10.09-24.4,15.3-36.53,1.48-3.7,3.63-7.09,5.15-10.78Z"/>
    <path class="cls-1" d="M783.68,418.76c0-.66.1-1.36.24-2.05-.16-.1-.3-.21-.43-.33.56-.41,1.49.06,1.37.84-.03.45-.45.67-.79.89-.14.21-.27.43-.39.65Z"/>
    <path class="cls-1" d="M843.62,469.08c.54.57,1.68.96,2.32.34.4-.72.54-1.73,1.52-1.92,1.6-.17,3.2.85,4.83.44.6-.54,1.48-.96,2.22-.37.46.43.76.99,1.1,1.51-.83.3-1.52.88-2.17,1.53-.05-.07-.1-.15-.15-.22-1.52.58-3.24.22-4.79-.12-1.29,3.09-5.92,2.55-7.39-.12-3.18,1.5-7.2-.58-8.21-3.87-3.35,1.27-7.43,0-9.93-2.47-1.98,4.18-7.99,4.92-11.79,2.92-1.97,4.83-10.11,2.73-12.52-.77-1.8,1.79-4.76,1.3-6.87.36-2.75-1.31-3.6-4.44-4.5-7.1-6.52-.92-6.76-6.09-5.64-11.45-4.28-1.74-2.08-7.98,1.13-9.75-2.55-3.94,1.17-8.33,3.98-11.01-.15-1.26.17-2.52.49-3.74-2.84-.37-3.64-2.26-3.57-4.51.12-.22.25-.44.39-.65.34-.22.76-.44.79-.89.12-.78-.81-1.25-1.37-.84-1.5-1.35-1.12-3.57-.83-5.41-2.17-.97-2.68-3.4-2.54-5.55-.77-.43-1.44-1.03-2-1.72.25-.65.49-1.31.7-1.97.23-.69-.25-1.46-.93-1.64-.52-.15-1.03.05-1.35.43-.36-1.29-.42-2.65-.15-3.89.32-1.1.81-2.2,1.46-3.15.14-.48.58-.84,1.12-.84.7,0,1.24.63,1.15,1.32-1.7,2.86-2.2,5.18-.12,8.09.31.44.68.87,1.2,1.08.42.09.83.3,1.09.66.85,1.24.04,2.93.78,4.19,1.55,1.45,2.71.95,2.16,3.7-.05.84-.39,1.74-.1,2.52.36.45.92.69,1.21,1.2.98,1.73-1.6,5.7,1.95,5.22.39-.24.88-.27,1.29-.07,1,.42.91,1.58.54,2.42-.34,1.35-1.03,2.81-.56,4.18.14.84-.52,1.48-1.14,1.94-.96.85-1.73,1.86-2.49,2.88-1.55,2.29-2.17,4.18.52,5.85.58.72.18,1.87-.7,2.1-2.38-.01-4.15,2.69-3.7,4.9h0c.32.57,1.07.57,1.59.89.82.51.83,1.6.65,2.44-.35,2.69-1.55,6.62,1.67,7.98.74.41,1.6.36,2.38.6,1.22.38,1.54,1.75,1.88,2.83.51,1.5,1.01,3.17,2.35,4.14,1.08.63,3.94,1.51,4.47-.12.49-1.89,2.32-1.61,3.1-.12,1.4,2.51,4.22,3.56,6.99,3.35,3.34-.22.47-4.75,3.03-5.25,1.15-.16,1.71,1.08,1.59,2.06,1.88,2.36,6.73,1.84,8.54-.42.67-.85.3-2.24,1.28-2.86,1-.57,2,.18,2.62.94,1.51,1.66,3.47,2.75,5.72,2.79.71-.01,1.74.21,2.13-.56.32-.68.33-1.47,1.14-1.76.76-.37,1.76.21,1.84,1.04-.11,2.75,1.57,5.83,4.72,5.07.77-.42,1.48-1.46,2.46-.82.77.44.86,1.41,1.42,2.04Z"/>
    <path class="cls-1" d="M844.53,480.3c2.36-2.57,4.53-5.12,6.91-7.64.68-.61,1.31-1.37,2-2.05.33.46.69.9,1.11,1.29.16.14.33.28.51.41-5.16,5.37-9.82,11.04-14.99,16.37-3.68,4.5-7.58,8.76-11.96,12.6-4.02,4.73-8.63,8.85-13.13,13.1-5.49,5.44-10.82,11.02-16.07,16.68-8.4,7.77-15.55,16.76-22.63,25.71-3.06,3.68-6.54,6.97-9.74,10.51-4.22,5.1-8.4,10.26-12.27,15.63-.83.87-1.33,2.67-2.81,2.12,0,0,0,0-.02,0,.27-.73.02-1.75-.11-2.67.05-.05.1-.11.15-.16,4.29-5.87,8.77-11.64,13.51-17.17,3.3-3.63,6.91-6.98,9.95-10.83,7.13-9.21,14.68-18.12,23.17-26.11,7.63-8.59,16.01-16.44,24.27-24.41,2.77-3.25,5.91-6.23,9.07-9.06,4.36-4.78,8.4-9.82,13.08-14.31Z"/>
    <path class="cls-1" d="M857.42,470.58c-.48.26-1.1.4-1.47.8-.3.31-.6.62-.89.93-.18-.13-.35-.27-.51-.41-.42-.39-.78-.83-1.11-1.29.65-.65,1.34-1.23,2.17-1.53.22.32.46.63.77.88.3.3.67.46,1.04.62Z"/>
    <path class="cls-1" d="M856.38,469.96c-.31-.25-.55-.56-.77-.88.21-.08.42-.14.64-.18.55-.8,1.9-.36,1.87.62,0,.56-.31.85-.7,1.06-.37-.16-.74-.32-1.04-.62Z"/>
    <path class="cls-1" d="M852.75,488.98c1.76-1.74,3.63-3.36,5.51-4.97,1-.89,2.01-1.76,2.91-2.75.2.9.71,1.76,1.36,2.43-1.44,1.46-3.04,2.75-4.58,4.1-3.53,3.4-7.28,6.49-10.78,9.87-8.75,8.22-15.48,18.25-23.96,26.71-5.76,5.58-11.76,10.93-16.42,17.51-1.42,1.88-3.08,3.53-4.64,5.29-2.72,3.21-5.07,6.71-7.66,10.03-9.68,12.36-18.25,25.73-24.66,40.06-7.92,16.79-13.56,34.9-14.71,53.48-.74,10.72.4,21.44.72,32.15.74,4.85,1.04,9.73,1.25,14.63.66,5.31,1.23,10.67,1.47,15.98.38,6.66.12,13.34,0,20.01-.03,4.95-1.23,9.77-2.08,14.61-.45,3.72-1.85,7.21-2.73,10.83-1.64,9.24-2.67,18.56-3.59,27.89-1.29,9.86-2.66,19.73-2.28,29.69-.14,6.8.07,13.61,1.44,20.31,1.23,4.9,1.93,9.9,2.73,14.89.26,2.67,1.49,5.64.22,8.13-.01,0-.03.02-.04.02-.07-1.79-.76-3.49-1.39-5.15-.11-.28-.33-.49-.59-.6-.98-5.07-1.9-10.16-3.08-15.18-1.45-6.27-2.07-12.71-1.93-19.14.02-4.4-.07-8.81.03-13.21.5-6.77,1.43-13.49,2.27-20.22.92-9.41,1.94-18.82,3.64-28.13,1.2-4.34,2.53-8.61,3.13-13.1,2.29-9.9,1.73-20.17,1.68-30.27-.28-5.83-.87-11.53-1.56-17.31-.13-5.39-.83-10.72-1.34-16.08-.22-10.13-1.39-20.24-.66-30.38,1.1-19.07,6.83-37.68,14.94-54.89,3.1-6.4,6.04-12.89,9.85-18.88,4.2-6.33,8.17-12.83,12.87-18.8,3.36-4.19,6.35-8.65,9.76-12.78,3.34-3.52,6.25-7.37,9.29-11.13,4.55-5.28,10-9.67,14.75-14.75,5.04-5.38,9.34-11.23,14.25-16.71,2.8-3.12,5.84-6.01,8.77-9.01,1.97-1.72,4.04-3.36,5.84-5.18Z"/>
    <path class="cls-1" d="M862.53,483.69c-.65-.67-1.16-1.53-1.36-2.43.49-.53,1.39-.49,1.88,0,.52.5.52,1.39,0,1.89-.17.18-.34.36-.52.54Z"/>
    <path class="cls-1" d="M864.23,481.71c-.28.71,1.55,1.97,2.71,2.57-1.27,1.35-3.12.75-4.41-.59.18-.18.35-.36.52-.54.52-.5.52-1.39,0-1.89-.49-.49-1.39-.53-1.88,0-.13-.51-.16-1.03-.07-1.53-2.84-.96-4.59-3.76-4.7-6.68-.47-.2-.93-.44-1.34-.74.29-.31.59-.62.89-.93.37-.4.99-.54,1.47-.8.36.15.72.29,1.02.55.74.84.59,2.07.83,3.11.16.86.73,1.58,1.35,2.18.6.56,1.38.82,2.15,1.05,1.81.78.45,2.93,1.46,4.24Z"/>
    <path class="cls-1" d="M864.23,481.71c.19.24.46.46.86.63.07-.36.18-.66.33-.9.58.3,1.11.81,1.69,1.05.22.1.45.2.69.28-.03.12-.08.24-.14.37-.2.48-.45.86-.72,1.14-1.16-.6-2.99-1.86-2.71-2.57Z"/>
    <path class="cls-1" d="M865.42,481.44c-.15.24-.26.54-.33.9-.4-.17-.67-.39-.86-.63.07-.21.31-.36.78-.45.14.04.28.1.41.18Z"/>
    <path class="cls-1" d="M865.42,481.44c.9-1.52,3.02-.64,2.38,1.33-.24-.08-.47-.18-.69-.28-.58-.24-1.11-.75-1.69-1.05Z"/>
    <path class="cls-1" d="M984.86,269.76c2.07.31,4.13.87,6.08,1.68-.23.83.36,1.74,1.21,1.74l-.43,1.59c-1.7-.93-3.56-1.59-5.44-2-3.76-.72-8.04-1.58-11.67-.04-1.01.43-1.44,1.19-2.33,1.71-1.12.42-2.15-.44-2.88-1.18-2.3-2.25-4.78-4.85-8.01-5.57-3.21-.86-4.5.8-5.06,3.73-.64,2.36-2.72,1.3-3.99.19-1.94-1.38-4.31-1.73-6.53-1.33-1.96.61-3.78,2.05-4.72,3.84-.49,1.06-.32,3.03-2,2.84-.47-.06-.84-.37-1.04-.8-.96-2.13-1.72-4.42-3.25-6.23-.66-.76-1.23-1.2-2.08-1.65-.88-.34-1.7-1.02-1.51-2.05.96-3.21,1.73-6.69-.54-9.54-.86-1.1-1.7-2.39-3.06-2.89-.72-.25-1.56-.18-2.11-.79-1.2-1.31-2.21-3.06-3.55-4.17-3.41-2.97-8.23-3.96-12.64-3.72-1.22.18-2.3.9-3.12,1.66-.75.75-1.54,1.82-2.74,1.57-3.23-.99-6.76-3.32-10.22-2.22-2.89,1.4-4.02,4.52-4.36,7.47-.23,1.04-1.73,1.32-2.34.46-.87-1.46-1.64-3-2.99-4.09-.75-.82-2.04-.99-2.6-1.95-.59-1.45,1.03-2.41,1.66-3.54,1.79-2.79,3.07-6.14,2.81-9.5-.25-1.27-1.64-1.11-2.51-1.64-1.22-1.32-.64-3.43-.86-5.09-.08-1.83-.93-3.48-2.23-4.59-1.05-.87-2.2-1.61-3.48-1.96-.58-.13-1.21-.35-1.45-.94-.86-3-.11-6.39-1.67-9.26-1.65-3.59-5.98-5.99-9.81-5.2-1.43.21-2.08,2.5-3.65,1.69-1.04-.47-.8-1.99-.86-2.86-.03-1.55-.52-2.97-1.4-4.21-1.81-2.69-5.16-4.09-8.26-4.24-2.64-.3-5.38.14-5.88,3.11-.51,1.33-2.59.89-2.56-.51,0-1.01-.15-2.25-.5-3.08-1.63-4.63-7.7-6.22-12.02-5.03-2.17.86-3.79,2.73-4.31,4.96-.41,1.89-2.95,1.24-2.7-.61-.1-1.38-.92-2.5-1.72-3.44-1.4-1.59-8.41-4.61-8.81-1.09-.14.86-.06,2.12-1.14,2.37-.65.22-1.27-.06-1.79-.47-.88-.62-1.94-1.34-2.95-1.65-1.9-.59-4.04-.86-5.72.15-1.98,1.19-2.76,3.12-3.32,5.18-1.22,2-3.75.22-5.41-.2-2.23-.6-5.05-1.41-7.13-.15-2.07,1.75-2.6,4.48-3.38,6.94-.22.66-.4,1.36-.69,1.99-.48.84-1.72,1.04-2.32.24-.7-.98-1.22-2.25-2.25-2.89-1.67-.85-3.76-.99-5.43-.62-3.73,1.36-5.75,5.26-6.58,8.9-.14.85-.15,1.99-1.16,2.24-.9.27-1.54-.5-1.89-1.23-.44-.9-1.1-1.95-1.67-2.62-1.21-1.59-3.15-2.2-4.99-2.21-2.49.04-4.61,1.42-6.74,2.51-1.14.41-1.96-.68-2.55-1.45-.98-1.15-2.54-2.1-3.99-2.33-1.81-.28-3.57-.39-5.2.2-3.25,1.15-4.97,4.29-6.33,7.23-.31.58-.64,1.23-1.22,1.57-1.77.63-3.77.22-5.62.4-2.96.23-6.05,1.07-8.29,2.92-2.08,1.81-2.68,4.5-2.63,7.13.18,1.07-1.07,1.89-1.99,1.33-.59-.36-1.26-1.05-1.87-1.28-2.1-.8-4.75-1.29-6.61.09-2.72,2.42-2.85,6.28-3.26,9.64-.09,1.43.32,3.82-1.91,3.41-2.03-1.01-4.16-1.65-5.41.7-1.48,3.11-1.98,7.19-.39,10.31.84,1.4-1.21,2.78-2.2,1.49-.59-.84-1.46-1.42-2.28-1.76-7.07-2.81-13.21,3.89-14.01,10.53-.19,1.5-.24,3.05.07,4.54.15.77.48,1.64.06,2.38-.86,1.27-2.03,2.37-2.69,3.79-1.45,3.13-1.86,6.88-1.27,10.26.24.97,1.01,1.96,1.83,2.45.63.38,1.51.72,1.72,1.52.24.74-.12,1.5-.59,2.07-.92,1.25-1.99,2.41-2.66,3.84-1.58,3.45-1.5,7.42-1.41,11.05.21,3.76,1.82,7.26,4.49,9.88.88.93.44,2.24-.25,3.13-.89,1.27-1.81,2.53-2.5,3.92-1.48,3.04-1.88,6.69-1.42,10.01.6,2.8,2.27,4.91,4.8,5.99.39.29.58.83.59,1.3-.08,1.8-.19,3.59-.09,5.22.47,3.94,2.29,8.45,5.95,10.33.6.03,1.17.27,1.45.82.46.77-.1,1.62-.33,2.37-.63,2.12-.84,4.54-.6,6.72.29,1.76,1.32,3.33,2.54,4.5,1.02.94,2.46,1.83,3.73,2.06,1.14.38,2.64-.24,3.57.52,1.03.99.67,2.65.99,3.95.42,1.84,1.22,3.8,2.5,5.16.62.59,1.3,1.04,2.02,1.26,1.32.41,3.35,0,3.68,1.79.28,1.38.3,2.93.95,4.17.39.85.99,1.28,1.87,1.43.73.17,1.42.17,2.07.03,0,.9,0,1.79,0,2.69-2.17.32-4.46-.29-5.78-2.07-1.06-1.5-1.4-3.35-1.61-5.13-5.46-.25-8.3-6.11-8.58-10.97-4.37.09-8.35-2.99-10-6.94-1.22-3.17-.74-6.82.13-10.02-5.86-3.43-7.85-10.89-7.14-17.3-8.49-4.67-6.15-17.19-.85-23.52-4.11-4.03-5.28-9.99-4.83-15.56.04-4.35,1.34-8.64,4.33-11.87-3.4-1.88-3.77-6.04-3.39-9.52.18-3.85,1.65-7.57,4.29-10.39-2.68-10.02,6.18-23.15,17.28-18.9-.43-5.18,1.72-13.88,8.61-11.43.35-8.74,3.9-16.41,13.87-12.26.73-8.77,10.39-10.87,17.7-10.56,1.71-3.63,3.89-7.46,7.89-8.88,4.26-1.45,9.68-.54,12.52,3.17,4.5-3.04,11.41-3.41,14.63,1.62,1.55-4.58,5.37-9.55,10.69-9.18,2.33.06,4.82.66,6.34,2.55,2.37-9.6,7.63-10.18,16.02-6.91,1.93-6.81,9.06-8.31,14.65-4.73.46-2.12,2.52-3.49,4.66-3.21,3.9.17,7.98,1.93,10,5.41,4.75-6.99,17.4-4.43,19.97,3.32,1.81-1.5,4.29-1.69,6.54-1.44,5.7.17,11.52,4.24,12.09,10.19,4.46-2.06,10.04.35,12.87,4.07,2.42,3.07,2.7,7.16,2.83,10.89,5.76,1.87,7.91,6.22,7.62,12.01,6.52,1.9,2.06,12.27-.78,15.84,1.12.72,2.13,1.65,2.95,2.71,3.1-8.37,9.82-7.4,16.59-4.12,3-3.72,7.67-3.6,11.95-2.69,4.92.85,9.01,3.93,11.73,8.05,3.14.42,5.16,3.28,6.6,5.86,1.45,2.81,1.13,6.2.16,9.12,2.48,1.24,4.07,3.66,5.17,6.12,3.18-5.01,10.2-6.08,14.87-2.51,1.26-5.28,6.51-5.67,10.68-3.47,2.66,1.3,4.69,3.51,6.81,5.51,3.62-3.19,8.89-2.47,13.31-1.85Z"/>
    <path class="cls-1" d="M992.15,273.18c-.85,0-1.44-.91-1.21-1.74.84.36,1.67.77,2.46,1.23-.08.04-.17.08-.26.11-.34.28-.68.4-.99.4Z"/>
    <path class="cls-1" d="M1026.82,204.37c.15,3.31-.98,6.25-4.59,6.81,2.41,3.47,2.52,8.2,1.82,12.23-1.37,4.29-6.17,6-9.57,8.41,2.48,3.07,2.18,8.66.1,11.89-1.45,2.52-4.51,2.98-6.97,3.94-1.08.7-3.24,1.36-2.89,2.93.7,6.66,2.41,12.66-6.71,12.51-.14,2.23.25,4.7-1.07,6.65-.94,1.17-2.13,2.35-3.54,2.93-.79-.46-1.62-.87-2.46-1.23.1-.39.38-.76.89-1.01.91-.25,1.53-.83,2.22-1.45.34-.31.66-.64.88-1.06.2-.46.25-.96.3-1.29.39-1.92-.85-5.87,1.95-6.18,1.26-.04,2.39-.06,3.6-.31,1.03-.13,1.86-.92,1.8-1.94.03-1.62-.01-3.25-.2-4.87-.14-1.57-.67-3.23-.11-4.77.89-1.55,2.49-2.38,4-3.21,1.92-1.03,4.22-1.01,5.68-2.55,1.91-2.31,1.83-5.61,1.12-8.26-.28-.85-.97-1.43-1.85-1.6-1.02-.4-1.07-1.93-.09-2.43,2.54-1.11,4.79-2.76,7.11-4.27,1.16-.79,2.46-1.73,3.05-2.98.85-2.88.55-6.61-.53-9.39-.5-1.24-1.64-1.97-2.41-2.99-.47-.72-.02-1.74.79-1.96,1.37-.31,3.11-.1,4.23-1.07.6-.59.66-1.45.74-2.21.09-2.35.06-4.73-.34-7.06-.35-1.56-1-3.33-2.21-4.38-.95-.55-2.01-1.77-1.02-2.79.51-.47,1.18-.76,1.74-1.16.94-.64,1.72-1.23,2.21-2.1.14-.26.26-.53.36-.82.05-.19.09-.37.11-.39.69-5.11-.84-10.69-4.52-14.35-1.12-1.15-2.53-.97-3.94-1.11-.81-.13-1.29-.89-1.11-1.67.08-.33.27-.58.52-.78.23-.52.05-1.15.07-1.71-.11-2.26-.88-4.57-1.97-6.51-1.34-2.54-3.93-6.71-7.23-4.51-.11,4.99-5.1,2.82-2.65-1.04.11-5.22-1.04-11.73-6.42-13.87-1.47-.34-2.76-.05-4.13.37-.73.3-1.59.42-2.17-.23-.92-.82.12-1.97.23-2.83.17-2.36.07-5.27-2.16-6.54-1.42-1.02-3.4-1.11-4.66.09-1.36,1.27-1.84,3.15-2.99,4.57-3.22,2.17-2.73-3.85-3.32-5.61-.55-2.45-1.41-5.17-3.4-6.8-.23-.17-.48-.32-.73-.46-.11-.04-.21-.1-.23-.12-3.19-.95-6.83.27-8.95,2.78-.76.87-1.43,1.8-2.09,2.74-.53.78-1.28,1.67-2.32,1.42-.52-.07-.97-.47-1.11-.97-.38-2.42-.2-5.1-1.45-7.29-.38-.65-.86-1.02-1.39-1.34-.91-.38-1.6-.31-2.5-.28-1.78.18-3.77.3-5.16,1.54-.53.4-1.29.36-1.76-.11-.94-.95.08-1.82.43-2.74.87-3.32,1.11-7.47-.72-10.47-1.39-2.11-3.79-.92-5.46.05-1.83.54-2.44-1.57-1.09-2.65,1.32-1.87.63-4.32.36-6.43-.85-4.12-4.34-9.57-9.07-6.65-3.69,1.84-3.13-2.28-3.47-4.54-.53-3.07-1.23-7.4-4.53-8.56-3.17-.38-5.08,2.49-7.46,3.94-2.55.72-2.2-3.32-2.98-4.82-.81-2.1-1.82-5.4-4.53-5.13-3.4.72-4.91,4.23-6.38,7-.5,1.07-2.19,1.26-2.69.1-.22-.48-.42-1.19-.64-1.61-.58-1.08-1.7-1.64-2.81-2.04-1.51-.54-2.72-.19-3.49,1.12-1.49,1.98-2.31,4.53-4.14,6.21-1.6,1.07-2.79-.63-2.86-2.14-.5-2.27.06-4.88-1.11-6.95-2.35-.22-4.42.21-4.41-2.94-.59-5.41-1.03-12.74-6.69-15.29-2.66-.88-5.49.04-8.21.12-2.55-.25-1.86-3.79-2.53-5.58-.67-3.05-1.68-6-3.76-8.36-2.45-2.58-6.24-4.51-9.76-3.28-1.41.45-2.34,1.65-3.85,1.61-1.14.03-1.91-.96-2.47-1.82-.74-1.03-1.56-2.11-2.52-2.88-1.03-.87-2.49-.91-3.6-.57-.31.09-.61.21-.74.29-.13.07-.26.15-.28.15-2.4,1.49-3.15,4.14-4.54,6.37-1.6,1.24-2.62-.28-2.52-1.89-.14-1.94-.12-3.8-.68-5.6-.26-.73-.52-1.14-.95-1.63-.61-.61-1.62-.72-1.98-1.58-.81-4.39-.23-12.28-4.8-14.66-1.38-.53-2.86-.27-4.18.05-.61.23-1.3.53-1.95.26-.6-.24-.91-.84-1.06-1.43-.33-1.25-.6-2.52-1.01-3.74-1.2-3.3-3.63-7.64-7.56-7.68-1.15.15-2.29.83-2.99,1.71-.81.97-1.78,2.96-3.28,1.94-.89-.63-.88-1.92-1.42-2.82-.86-1.79-2.38-3.33-4.23-3.93-1.09-.27-2.05-.2-2.98.26-1.2,1.06-1.07,2.64-1.62,4-.34.9-1.61,1.06-2.25.38-.61-.79-1-1.88-1.67-2.63-1.74-2.17-5.07-.49-6.37,1.32-.91,1.21-1.2,2.55-1.49,3.98-.09,1.35-.81,2.99-2.41,2.13-.6-.48-1.13-1.26-1.84-1.55-1.45-.53-3.35-.21-4.7.31-2.62,1.45-3.64,4.61-4.37,7.27-.72,2.37-.25,5.99-3.13,6.93-.76.25-1.27.27-1.87.71-.69.59-1.12,1.3-1.55,2.08-1.18,1.47-2.07,7.86-4.67,5.85-.6-.46-.55-1.25-.64-1.93-.1-.69-.32-1.51-.6-2.12-.94-2.04-3.62-2.98-5.71-2.5-1.52.31-1.77,1.78-2.17,3.01-.21.71-.99,1.22-1.72,1.01-1.19-.33-.99-1.76-1.23-2.72-.41-3.12-2.94-5.41-5.81-6.27-.91-.26-2-.2-2.87,0-2.29.48-1,4.19-1.37,5.93-.03.59-.39,1.12-.98,1.28-1.83.41-1.71-1.83-2.14-2.99-.2-.57-.62-1.37-.94-1.77-.2-.24-.42-.46-.56-.58-.13-.1-.26-.2-.25-.2-5.16-3.75-5.56,10.29-10.39,2.79-.8-.94-2.36-2.08-3.39-.94-1.03,1.18-1.37,2.75-1.71,4.24-.19.72-.13,1.57-.69,2.12-.7.7-1.98.39-2.23-.59-.12-.48-.25-.94-.41-1.41-.7-1.63-1.81-3.41-3.52-4.09-3.32.37-.53,4.44-1.83,6.19-.69.71-2.02.37-2.26-.6-.13-.45-.36-1.17-.57-1.5-.95-1.98-3.2-2.51-5.11-1.94-3.66.87-1.12,7.45-3.97,7.65-1.11.11-1.74-1.26-2.52-1.72-2.61-2-4.19,2.57-4.69,4.52-.24,1.43-.09,2.82-.09,4.21-.15.95.38,2.63-1.04,2.71-.6,0-1.1-.55-1.01-1.15-.01-.45-.04-.91-.08-1.37.18-.05.35-.16.49-.3.51-.51.52-1.37,0-1.88-.21-.23-.43-.46-.65-.69-.03-1.34.1-2.65.63-3.93,1.19-3.56,4.22-7.02,7.99-4.15.2-1.88.66-3.93,2.09-5.27,2.28-1.91,6.03-2.01,8.38-.18.46-1.91,2.44-3.37,4.4-3.25,2.05.24,3.58,1.99,4.73,3.59,1.67-5.35,6.58-5.72,9.64-1.27,1.16-1.74,2.15-3.9,4.21-4.72,2.1-.91,4.55-.08,6.04,1.56.31-1.43,1.56-2.42,2.93-2.81,4.65-1.38,9.95,1.81,11.61,6.23,3.35-3.15,9.62-1.25,11.3,2.86.82-1.87,1.7-3.81,3.32-5.13.86-.97,2.84-.56,3.18-1.87.94-4.97,1.98-11.37,7.23-13.54,2.26-.7,5.01-1.07,7.1.3.65-5.54,8.39-10.64,12.5-5.34.86-2.78,4.02-3.82,6.66-3.17,2.96.7,5.25,3.11,6.46,5.83,7.14-7.88,14.97,2.61,16.06,9.91,10.17-2.89,11.72,8.5,12.06,15.91,2.48,1.18,3.36,4.07,3.59,6.62,4.54-6.53,10.57-5.3,14.41,1.13,5.49-4.04,13.05-1.2,16.58,4.09,2.37,3.36,3.18,7.52,3.84,11.51,13.17-2.92,16.14,7.19,16.89,18.04,5.24-.55,4.99,4.13,5.31,7.96,1.33-2.03,2.27-4.62,4.47-5.86,2.9-1.24,6.59.23,8.37,2.71,5.58-9.88,13.07-7.95,15.37,2.74,9.08-8.13,14.39.93,14.67,9.98,8.62-4.02,13.58,7.59,12.67,14.6,7.06-1.05,7.87,8.34,6.91,13.36,6.7-1.74,10.52.58,11.18,7.59,2.73-4.15,8.18-6.59,13.01-4.99,4.25,1.82,5.72,6.77,6.39,10.98,2.53-4.77,8.66-4.6,11.62-.37,1.31,2,1.43,4.56,1.28,6.88,8.11-1.83,12.65,7.72,12.43,14.56,7.27-2.54,12.38,9.83,11.93,15.58,6.33,1.1,9.26,10.41,9.11,16.05.25,3.11-1.43,5.99-4.11,7.53,3.02,3.11,3.14,7.75,3.15,11.84Z"/>
    <path class="cls-1" d="M1061.1,405.72c3.43,2.5,4.48,7.03,4.21,11.08-.23,4.82-.59,10.52-4.14,14.14,1.02,7.25-1.85,14.27-9.98,14.68-.85,4.75-3.84,7.98-8.91,6.56-.29,2.15-1.36,4.73-3.72,5.18-3.13.35-6.45-.56-8.9-2.57-1.13.78-2.56.88-3.87.59-.36,2.84-.58,6.05-2.86,8.09,3.93,2.67,1.62,11.11-1,14.14,4.89,6.1,2.29,20.11-6.2,21.67.81,9.3-11.22,14.93-18.98,11.43-2.89,5.17-9.63,4.83-12.65.02-1.26,2.21-4.1,2.21-6.31,1.73-2.8-.55-5.17-2.65-6.21-5.29-3.19,2.28-7.72.37-10.28-2.07-2.36-2.1-3.26-5.2-4.68-7.91-5.01.59-10.77-.75-13.99-4.9-1.97,2.48-5.11,3.02-8.1,2.75-1.06,6.52-6.76,8.2-12.45,6.23-.99,6.77-9.32,8.61-14.17,4.48-4.67,6.91-14.96,4.3-16.6-3.71-2.43.62-5.45-.4-6.88-2.49-1.28-1.97-.61-4.39-.43-6.57-3.25-.47-4.14-2.96-3.98-5.92-2.15-.14-4.12-1.37-5.05-3.34-1.82,2.12-4.95,1.65-7.32.88-.16-.05-.41-.16-.71-.32.27-.28.52-.66.72-1.14.06-.13.11-.25.14-.37,1.49.53,3.24.7,4.71.21.83-.46,1.21-1.35,1.63-2.14,1.21-1.5,2.26.13,2.72,1.32.67,1.6,2.16,2.42,3.86,2.42.92-.11,1.74.55,1.8,1.49.29,2.01-.42,4.39,2.48,4.39.73.03,1.55.54,1.64,1.32.26,2.03-.78,4.17-.09,6.14.46.91,1.74,1.43,2.61,1.57,2.2.69,1.16-1.69,2.98-1.76,1.45.02,1.38,1.68,1.53,2.72.48,2.39,1.67,4.97,3.95,6.02,1.47.57,3.08.71,4.54.42,1.38-.43,2.66-1.28,3.43-2.44.28-.43.42-.93.66-1.39.52-.9,1.83-.87,2.49-.15.83.83,2.02,1.72,3.09,2,1.96.56,4.15.6,5.67-.74.74-.61,1.49-1.51,1.75-2.38.42-2.05.24-4.1,3.11-3.22,1.76.63,3.63.87,5.43.74.67-.09,1.14-.32,1.6-.55,1.49-.91,2.14-2.42,2.49-4.04.06-1.16.74-2.28,2-2.31,1.58-.13,3.34.22,4.69-.34,1.26-.52,2.16-1.57,2.91-2.67,1.38-1.47,2.71.46,3.48,1.53,1.17,1.42,2.8,2.35,4.5,2.93,2.12.69,4.43.95,6.64.72.91-.31,1.86-.04,2.44.72,1.41,1.97,1.97,4.56,3.41,6.52,1.48,2.09,4.03,3.69,6.5,3.7,1.33.06,2.12-.87,2.49-2.01.62-1.08,2.35-.79,2.52.47.04.28.09.56.15.85.52,2.44,2.34,4.59,4.76,5.03,2.36.49,3.73.26,4.14-2.37.09-.51.43-.98.96-1.1.8-.31,1.69.36,1.87,1.09.66,1.35,1.46,2.82,2.72,3.58,1.25.68,2.71.96,4.02.55,1.16-.51,1.85-1.53,2.53-2.48.43-.83,1.26-1.43,2.22-1.19,2.37.9,5.05,1.5,7.54.97,3.38-.86,6.81-2.9,8.29-6.08.55-1.47.48-2.9.31-4.38.04-1.49,1.86-1.73,2.96-1.94,5.23-2.02,6.16-8.83,5.55-13.7-.23-1.04-.69-2.27-1.24-3.05-.44-.7-1.38-1.07-1.39-2,.12-1.36,1.66-2.27,2.11-3.51,1.14-2.18,1.39-4.52,1.32-6.93-.03-1.05-.77-1.81-1.75-2.1-.71-.15-1.51-.46-1.6-1.29-.18-1.33,1.53-1.66,2.18-2.38,1.91-1.95,1.74-4.88,2.13-7.39-2.34-2.16,1.74-4.07,2.66-1.52.61.21,1.3.31,1.93.12.75-.34,1.15-.95,1.99-.86,1.58.46,2.63,1.99,4.38,2.38,1.38.37,2.79.68,4.12.38.46-.23.79-1,.94-1.32.37-.88.38-1.77.51-2.68.69-2.13,3.27-.89,4.85-.85,1.86.34,2.99-1.71,3.57-3.12.52-.99.12-2.39,1-3.17.86-.69,2.06-.51,3.09-.72,1.45-.33,2.98-.88,4.06-1.91,2.31-2.49,2.51-6.1,2.23-9.26-3.3-.62-1.17-5.7,1.44-3.32,2.62-4.2,3.98-14.55,1.08-18.77-.43-.62-.97-1.29-1.56-1.67-.99-.46-1.61-1.49-1.16-2.55,2.2-4.17,1.92-9.81-2.34-12.39-1.55-.84-3.05-.9-4.67-1.03-.96-.06-1.77-.02-2.6.35-1.53.71-2.67-1.1-3.89-1.63-1.52-.64-3.02-.63-4.61-.62-1.93.13-3.89.9-5.05,2.46-.72.78-2.18.3-2.27-.76-.11-.83.17-1.64.17-2.47.17-2.45.19-5.27-1.58-7.14-.48-.47-.81-.58-1.26-.93-.72-.55-.68-1.76.14-2.2.89-.53,2.15-.24,3.06-.72,3.63-1.91,4.66-6.37,4.3-10.12-.06-.7-.56-1.02-.57-1.67-.1-1.56,1.74-1.64,2.82-1.89,1.64-.48,2.86-1.62,3.97-2.85,3-3.67,4.23-8.58,3.93-13.24-.34-.67-.41-1.43.04-2.07,2.24-2.5,2.97-6.16,2.42-9.34-1.07-3.39-4.61-5.46-7.92-6-.21.67-.74.96-1.26.96-.79,0-1.59-.65-1.33-1.67.38-2.83-1.08-5.87-3.19-7.65-1.83-1.3-5.66-1.94-7.61-.79-.42.26-.55.77-.93,1.07-.81.65-2.07.19-2.22-.85-.18-1.75-.79-3.51-1.9-4.81-1.44-1.69-3.77-2.57-5.84-1.84-1.42.68-1.85,2.2-2.37,3.55-.56,1.41-2.7.81-2.69-.64-.07-3.75.58-5.14-3.74-5.98-.75,1.71-3.47,2.9-4.37.7-.39-1.61.97-3.23,2.56-3.43.35-2.26.51-4.73.04-6.97-.23-1.22-1.33-1.82-1.34-3.06,1.12-4.78,2.39-9.91-1.08-14.09-1.32-1.76-3.27-2.46-5.33-2.44-1.55-.37-1.68-2.36-2.61-3.43-1.4-2.1-3.34-3.73-5.53-4.92l.43-1.59c.31,0,.65-.12.99-.4.09-.03.18-.07.26-.11,3.17,1.81,5.83,4.42,7.37,7.84,4.94.09,8.35,4.75,9.19,9.26.52,3.28-.09,6.6-.99,9.76,2.18,2.94,1.64,6.91,1.28,10.33,2.25.5,4.88,1.66,5.38,4.15,4.45-3.8,11.24.25,12.45,5.36,2.44-1.18,5.4-.71,7.93,0,3.72,1.3,6.07,5.24,6.54,9.02,4.51.58,9.22,3.56,10.44,8.13.64,3.79-.06,8.04-2.57,11.04,1.04,7.36-2.37,17.4-10.12,19.68.91,5.13-1.09,11.62-6.3,13.65,1.64,2.18,2.02,4.97,1.81,7.63,3.8-1.86,9.05-1.76,12.32,1.12,10.3-2.67,17.38,6.64,12.97,16.08Z"/>
  </g>
</svg>